# MagicaVoxel @ Ephtracy

# group
o 

# material
mtllib handcuffs.vox.mtl
usemtl palette

# normals
vn -1 0 0
vn 1 0 0
vn 0 0 1
vn 0 0 -1
vn 0 -1 0
vn 0 1 0

# texcoords
vt 0.978516 0.5
vt 0.982422 0.5
vt 0.990234 0.5

# verts
v -1.2 2 -1.9
v -1.2 2 -2
v -1.2 2.5 -1.9
v -1.2 2.5 -2
v -1.1 1.9 -1.9
v -1.1 1.9 -2
v -1.1 2 -1.9
v -1.1 2 -2
v -1.1 2.5 -1.9
v -1.1 2.5 -2
v -1.1 2.6 -1.9
v -1.1 2.6 -2
v -1 1.8 -1.9
v -1 1.8 -2
v -1 1.9 -1.9
v -1 1.9 -2
v -1 2.6 -1.9
v -1 2.6 -2
v -1 2.7 -1.9
v -1 2.7 -2
v -0.9 1.7 -1.9
v -0.9 1.7 -2
v -0.9 1.8 -1.9
v -0.9 1.8 -2
v -0.8 1.6 -1.9
v -0.8 1.6 -2
v -0.8 1.7 -1.9
v -0.8 1.7 -2
v -0.7 1.5 -1.9
v -0.7 1.5 -2
v -0.7 1.6 -1.9
v -0.7 1.6 -2
v -0.6 1.4 -1.9
v -0.6 1.4 -2
v -0.6 1.5 -1.9
v -0.6 1.5 -2
v -0.6 1.9 -1.9
v -0.6 1.9 -2
v -0.6 2 -1.9
v -0.6 2 -2
v -0.6 2.5 -1.9
v -0.6 2.5 -2
v -0.6 2.6 -1.9
v -0.6 2.6 -2
v -0.5 1.3 -1.9
v -0.5 1.3 -2
v -0.5 1.4 -1.9
v -0.5 1.4 -2
v -0.5 2 -1.9
v -0.5 2 -2
v -0.5 2.1 -1.9
v -0.5 2.1 -2
v -0.5 2.4 -1.9
v -0.5 2.4 -2
v -0.5 2.5 -1.9
v -0.5 2.5 -2
v -0.4 1 -1.9
v -0.4 1 -2
v -0.4 1.3 -1.9
v -0.4 1.3 -2
v -0.4 1.5 -1.9
v -0.4 1.5 -2
v -0.4 1.6 -1.9
v -0.4 1.6 -2
v -0.4 2.1 -1.9
v -0.4 2.1 -2
v -0.4 2.4 -1.9
v -0.4 2.4 -2
v -0.3 0.9 -1.9
v -0.3 0.9 -2
v -0.3 1 -1.9
v -0.3 1 -2
v -0.2 0.8 -1.9
v -0.2 0.8 -2
v -0.2 0.9 -1.9
v -0.2 0.9 -2
v -0.2 1.6 -1.9
v -0.2 1.6 -2
v -0.2 1.7 -1.9
v -0.2 1.7 -2
v 0.2 0.9 -1.9
v 0.2 0.9 -2
v 0.2 1 -1.9
v 0.2 1 -2
v 0.2 1.5 -1.9
v 0.2 1.5 -2
v 0.2 1.6 -1.9
v 0.2 1.6 -2
v 0.3 1 -1.9
v 0.3 1 -2
v 0.3 1.1 -1.9
v 0.3 1.1 -2
v 0.3 1.4 -1.9
v 0.3 1.4 -2
v 0.3 1.5 -1.9
v 0.3 1.5 -2
v 0.4 1.1 -1.9
v 0.4 1.1 -2
v 0.4 1.2 -1.9
v 0.4 1.2 -2
v 0.4 1.4 -1.9
v 0.4 1.4 -2
v -1.1 2.1 -1.9
v -1.1 2.1 -2
v -1.1 2.4 -1.9
v -1.1 2.4 -2
v -1 2 -1.9
v -1 2 -2
v -1 2.1 -1.9
v -1 2.1 -2
v -1 2.4 -1.9
v -1 2.4 -2
v -1 2.5 -1.9
v -1 2.5 -2
v -0.9 1.9 -1.9
v -0.9 1.9 -2
v -0.9 2 -1.9
v -0.9 2 -2
v -0.9 2.5 -1.9
v -0.9 2.5 -2
v -0.9 2.6 -1.9
v -0.9 2.6 -2
v -0.7 1.6 -1.9
v -0.7 1.6 -2
v -0.7 1.7 -1.9
v -0.7 1.7 -2
v -0.6 1.5 -1.9
v -0.6 1.5 -2
v -0.6 1.6 -1.9
v -0.6 1.6 -2
v -0.6 1.7 -1.9
v -0.6 1.7 -2
v -0.6 1.8 -1.9
v -0.6 1.8 -2
v -0.5 1.8 -1.9
v -0.5 1.8 -2
v -0.5 1.9 -1.9
v -0.5 1.9 -2
v -0.5 2.6 -1.9
v -0.5 2.6 -2
v -0.5 2.7 -1.9
v -0.5 2.7 -2
v -0.4 1.9 -1.9
v -0.4 1.9 -2
v -0.4 2 -1.9
v -0.4 2 -2
v -0.4 2.5 -1.9
v -0.4 2.5 -2
v -0.4 2.6 -1.9
v -0.4 2.6 -2
v -0.3 1.1 -1.9
v -0.3 1.1 -2
v -0.3 1.3 -1.9
v -0.3 1.3 -2
v -0.3 1.4 -1.9
v -0.3 1.4 -2
v -0.3 2 -1.9
v -0.3 2 -2
v -0.3 2.5 -1.9
v -0.3 2.5 -2
v -0.2 1 -1.9
v -0.2 1 -2
v -0.2 1.1 -1.9
v -0.2 1.1 -2
v -0.2 1.4 -1.9
v -0.2 1.4 -2
v -0.2 1.5 -1.9
v -0.2 1.5 -2
v -0.0999999 0.9 -1.9
v -0.0999999 0.9 -2
v -0.0999999 1 -1.9
v -0.0999999 1 -2
v -0.0999999 1.5 -1.9
v -0.0999999 1.5 -2
v -0.0999999 1.6 -1.9
v -0.0999999 1.6 -2
v 0.3 0.8 -1.9
v 0.3 0.8 -2
v 0.3 0.9 -1.9
v 0.3 0.9 -2
v 0.3 1.6 -1.9
v 0.3 1.6 -2
v 0.3 1.7 -1.9
v 0.3 1.7 -2
v 0.4 0.9 -1.9
v 0.4 0.9 -2
v 0.4 1 -1.9
v 0.4 1 -2
v 0.4 1.5 -1.9
v 0.4 1.5 -2
v 0.4 1.6 -1.9
v 0.4 1.6 -2
v 0.5 1 -1.9
v 0.5 1 -2
v 0.5 1.2 -1.9
v 0.5 1.2 -2
v 0.5 1.5 -1.9
v 0.5 1.5 -2
v -1.2 2 -1.9
v -1.2 2.5 -1.9
v -1.1 1.9 -1.9
v -1.1 2 -1.9
v -1.1 2.1 -1.9
v -1.1 2.4 -1.9
v -1.1 2.5 -1.9
v -1.1 2.6 -1.9
v -1 1.8 -1.9
v -1 1.9 -1.9
v -1 2 -1.9
v -1 2.1 -1.9
v -1 2.4 -1.9
v -1 2.5 -1.9
v -1 2.6 -1.9
v -1 2.7 -1.9
v -0.9 1.7 -1.9
v -0.9 1.8 -1.9
v -0.9 1.9 -1.9
v -0.9 2 -1.9
v -0.9 2.5 -1.9
v -0.9 2.6 -1.9
v -0.8 1.6 -1.9
v -0.8 1.7 -1.9
v -0.7 1.5 -1.9
v -0.7 1.6 -1.9
v -0.7 1.7 -1.9
v -0.6 1.4 -1.9
v -0.6 1.5 -1.9
v -0.6 1.6 -1.9
v -0.6 1.7 -1.9
v -0.6 1.8 -1.9
v -0.6 1.9 -1.9
v -0.6 2 -1.9
v -0.6 2.5 -1.9
v -0.6 2.6 -1.9
v -0.5 1.3 -1.9
v -0.5 1.4 -1.9
v -0.5 1.8 -1.9
v -0.5 1.9 -1.9
v -0.5 2 -1.9
v -0.5 2.1 -1.9
v -0.5 2.4 -1.9
v -0.5 2.5 -1.9
v -0.5 2.6 -1.9
v -0.5 2.7 -1.9
v -0.4 1 -1.9
v -0.4 1.3 -1.9
v -0.4 1.5 -1.9
v -0.4 1.6 -1.9
v -0.4 1.9 -1.9
v -0.4 2 -1.9
v -0.4 2.1 -1.9
v -0.4 2.4 -1.9
v -0.4 2.5 -1.9
v -0.4 2.6 -1.9
v -0.3 0.9 -1.9
v -0.3 1 -1.9
v -0.3 1.1 -1.9
v -0.3 1.3 -1.9
v -0.3 1.4 -1.9
v -0.3 1.6 -1.9
v -0.3 2 -1.9
v -0.3 2.5 -1.9
v -0.2 0.8 -1.9
v -0.2 0.9 -1.9
v -0.2 1 -1.9
v -0.2 1.1 -1.9
v -0.2 1.4 -1.9
v -0.2 1.5 -1.9
v -0.2 1.6 -1.9
v -0.2 1.7 -1.9
v -0.0999999 0.9 -1.9
v -0.0999999 1 -1.9
v -0.0999999 1.5 -1.9
v -0.0999999 1.6 -1.9
v 1.19209e-07 1.6 -1.9
v 1.19209e-07 1.7 -1.9
v 0.2 0.9 -1.9
v 0.2 1 -1.9
v 0.2 1.5 -1.9
v 0.2 1.6 -1.9
v 0.3 0.8 -1.9
v 0.3 0.9 -1.9
v 0.3 1 -1.9
v 0.3 1.1 -1.9
v 0.3 1.4 -1.9
v 0.3 1.5 -1.9
v 0.3 1.6 -1.9
v 0.3 1.7 -1.9
v 0.4 0.9 -1.9
v 0.4 1 -1.9
v 0.4 1.1 -1.9
v 0.4 1.2 -1.9
v 0.4 1.4 -1.9
v 0.4 1.5 -1.9
v 0.4 1.6 -1.9
v 0.5 1 -1.9
v 0.5 1.2 -1.9
v 0.5 1.5 -1.9
v -1.2 2 -2
v -1.2 2.5 -2
v -1.1 1.9 -2
v -1.1 2 -2
v -1.1 2.1 -2
v -1.1 2.4 -2
v -1.1 2.5 -2
v -1.1 2.6 -2
v -1 1.8 -2
v -1 1.9 -2
v -1 2 -2
v -1 2.1 -2
v -1 2.4 -2
v -1 2.5 -2
v -1 2.6 -2
v -1 2.7 -2
v -0.9 1.7 -2
v -0.9 1.8 -2
v -0.9 1.9 -2
v -0.9 2 -2
v -0.9 2.5 -2
v -0.9 2.6 -2
v -0.8 1.6 -2
v -0.8 1.7 -2
v -0.7 1.5 -2
v -0.7 1.6 -2
v -0.7 1.7 -2
v -0.6 1.4 -2
v -0.6 1.5 -2
v -0.6 1.6 -2
v -0.6 1.7 -2
v -0.6 1.8 -2
v -0.6 1.9 -2
v -0.6 2 -2
v -0.6 2.5 -2
v -0.6 2.6 -2
v -0.5 1.3 -2
v -0.5 1.4 -2
v -0.5 1.8 -2
v -0.5 1.9 -2
v -0.5 2 -2
v -0.5 2.1 -2
v -0.5 2.4 -2
v -0.5 2.5 -2
v -0.5 2.6 -2
v -0.5 2.7 -2
v -0.4 1 -2
v -0.4 1.3 -2
v -0.4 1.5 -2
v -0.4 1.6 -2
v -0.4 1.9 -2
v -0.4 2 -2
v -0.4 2.1 -2
v -0.4 2.4 -2
v -0.4 2.5 -2
v -0.4 2.6 -2
v -0.3 0.9 -2
v -0.3 1 -2
v -0.3 1.1 -2
v -0.3 1.3 -2
v -0.3 1.4 -2
v -0.3 1.6 -2
v -0.3 2 -2
v -0.3 2.5 -2
v -0.2 0.8 -2
v -0.2 0.9 -2
v -0.2 1 -2
v -0.2 1.1 -2
v -0.2 1.4 -2
v -0.2 1.5 -2
v -0.2 1.6 -2
v -0.2 1.7 -2
v -0.0999999 0.9 -2
v -0.0999999 1 -2
v -0.0999999 1.5 -2
v -0.0999999 1.6 -2
v 1.19209e-07 1.6 -2
v 1.19209e-07 1.7 -2
v 0.2 0.9 -2
v 0.2 1 -2
v 0.2 1.5 -2
v 0.2 1.6 -2
v 0.3 0.8 -2
v 0.3 0.9 -2
v 0.3 1 -2
v 0.3 1.1 -2
v 0.3 1.4 -2
v 0.3 1.5 -2
v 0.3 1.6 -2
v 0.3 1.7 -2
v 0.4 0.9 -2
v 0.4 1 -2
v 0.4 1.1 -2
v 0.4 1.2 -2
v 0.4 1.4 -2
v 0.4 1.5 -2
v 0.4 1.6 -2
v 0.5 1 -2
v 0.5 1.2 -2
v 0.5 1.5 -2
v -0.2 0.8 -1.9
v 0.3 0.8 -1.9
v -0.2 0.8 -2
v 0.3 0.8 -2
v -0.3 0.9 -1.9
v -0.2 0.9 -1.9
v 0.3 0.9 -1.9
v 0.4 0.9 -1.9
v -0.3 0.9 -2
v -0.2 0.9 -2
v 0.3 0.9 -2
v 0.4 0.9 -2
v -0.4 1 -1.9
v -0.3 1 -1.9
v 0.4 1 -1.9
v 0.5 1 -1.9
v -0.4 1 -2
v -0.3 1 -2
v 0.4 1 -2
v 0.5 1 -2
v -0.5 1.3 -1.9
v -0.4 1.3 -1.9
v -0.5 1.3 -2
v -0.4 1.3 -2
v -0.6 1.4 -1.9
v -0.5 1.4 -1.9
v -0.3 1.4 -1.9
v -0.2 1.4 -1.9
v 0.3 1.4 -1.9
v 0.4 1.4 -1.9
v -0.6 1.4 -2
v -0.5 1.4 -2
v -0.3 1.4 -2
v -0.2 1.4 -2
v 0.3 1.4 -2
v 0.4 1.4 -2
v -0.7 1.5 -1.9
v -0.6 1.5 -1.9
v -0.2 1.5 -1.9
v -0.0999999 1.5 -1.9
v 0.2 1.5 -1.9
v 0.3 1.5 -1.9
v -0.7 1.5 -2
v -0.6 1.5 -2
v -0.2 1.5 -2
v -0.0999999 1.5 -2
v 0.2 1.5 -2
v 0.3 1.5 -2
v -0.8 1.6 -1.9
v -0.7 1.6 -1.9
v -0.0999999 1.6 -1.9
v 1.19209e-07 1.6 -1.9
v 0.2 1.6 -1.9
v -0.8 1.6 -2
v -0.7 1.6 -2
v -0.0999999 1.6 -2
v 1.19209e-07 1.6 -2
v 0.2 1.6 -2
v -0.9 1.7 -1.9
v -0.8 1.7 -1.9
v -0.7 1.7 -1.9
v -0.6 1.7 -1.9
v -0.9 1.7 -2
v -0.8 1.7 -2
v -0.7 1.7 -2
v -0.6 1.7 -2
v -1 1.8 -1.9
v -0.9 1.8 -1.9
v -0.6 1.8 -1.9
v -0.5 1.8 -1.9
v -1 1.8 -2
v -0.9 1.8 -2
v -0.6 1.8 -2
v -0.5 1.8 -2
v -1.1 1.9 -1.9
v -1 1.9 -1.9
v -0.5 1.9 -1.9
v -0.4 1.9 -1.9
v -1.1 1.9 -2
v -1 1.9 -2
v -0.5 1.9 -2
v -0.4 1.9 -2
v -1.2 2 -1.9
v -1.1 2 -1.9
v -0.4 2 -1.9
v -0.3 2 -1.9
v -1.2 2 -2
v -1.1 2 -2
v -0.4 2 -2
v -0.3 2 -2
v -1.1 2.4 -1.9
v -1 2.4 -1.9
v -0.5 2.4 -1.9
v -0.4 2.4 -1.9
v -1.1 2.4 -2
v -1 2.4 -2
v -0.5 2.4 -2
v -0.4 2.4 -2
v -1 2.5 -1.9
v -0.9 2.5 -1.9
v -0.6 2.5 -1.9
v -0.5 2.5 -1.9
v -1 2.5 -2
v -0.9 2.5 -2
v -0.6 2.5 -2
v -0.5 2.5 -2
v -0.9 2.6 -1.9
v -0.6 2.6 -1.9
v -0.9 2.6 -2
v -0.6 2.6 -2
v -0.0999999 0.9 -1.9
v 0.2 0.9 -1.9
v -0.0999999 0.9 -2
v 0.2 0.9 -2
v -0.2 1 -1.9
v -0.0999999 1 -1.9
v 0.2 1 -1.9
v 0.3 1 -1.9
v -0.2 1 -2
v -0.0999999 1 -2
v 0.2 1 -2
v 0.3 1 -2
v -0.3 1.1 -1.9
v -0.2 1.1 -1.9
v 0.3 1.1 -1.9
v 0.4 1.1 -1.9
v -0.3 1.1 -2
v -0.2 1.1 -2
v 0.3 1.1 -2
v 0.4 1.1 -2
v -0.6 1.5 -1.9
v -0.4 1.5 -1.9
v 0.4 1.5 -1.9
v 0.5 1.5 -1.9
v -0.6 1.5 -2
v -0.4 1.5 -2
v 0.4 1.5 -2
v 0.5 1.5 -2
v -0.7 1.6 -1.9
v -0.6 1.6 -1.9
v -0.4 1.6 -1.9
v -0.3 1.6 -1.9
v -0.2 1.6 -1.9
v 0.3 1.6 -1.9
v 0.4 1.6 -1.9
v -0.7 1.6 -2
v -0.6 1.6 -2
v -0.4 1.6 -2
v -0.3 1.6 -2
v -0.2 1.6 -2
v 0.3 1.6 -2
v 0.4 1.6 -2
v -0.2 1.7 -1.9
v 1.19209e-07 1.7 -1.9
v 0.3 1.7 -1.9
v -0.2 1.7 -2
v 1.19209e-07 1.7 -2
v 0.3 1.7 -2
v -0.9 1.9 -1.9
v -0.6 1.9 -1.9
v -0.9 1.9 -2
v -0.6 1.9 -2
v -1 2 -1.9
v -0.9 2 -1.9
v -0.6 2 -1.9
v -0.5 2 -1.9
v -1 2 -2
v -0.9 2 -2
v -0.6 2 -2
v -0.5 2 -2
v -1.1 2.1 -1.9
v -1 2.1 -1.9
v -0.5 2.1 -1.9
v -0.4 2.1 -1.9
v -1.1 2.1 -2
v -1 2.1 -2
v -0.5 2.1 -2
v -0.4 2.1 -2
v -1.2 2.5 -1.9
v -1.1 2.5 -1.9
v -0.4 2.5 -1.9
v -0.3 2.5 -1.9
v -1.2 2.5 -2
v -1.1 2.5 -2
v -0.4 2.5 -2
v -0.3 2.5 -2
v -1.1 2.6 -1.9
v -1 2.6 -1.9
v -0.5 2.6 -1.9
v -0.4 2.6 -1.9
v -1.1 2.6 -2
v -1 2.6 -2
v -0.5 2.6 -2
v -0.4 2.6 -2
v -1 2.7 -1.9
v -0.5 2.7 -1.9
v -1 2.7 -2
v -0.5 2.7 -2

# faces
f 3/1/1 2/1/1 1/1/1
f 4/1/1 2/1/1 3/1/1
f 7/1/1 6/1/1 5/1/1
f 8/1/1 6/1/1 7/1/1
f 11/1/1 10/1/1 9/1/1
f 12/1/1 10/1/1 11/1/1
f 15/1/1 14/1/1 13/1/1
f 16/1/1 14/1/1 15/1/1
f 19/2/1 18/2/1 17/2/1
f 20/2/1 18/2/1 19/2/1
f 23/3/1 22/3/1 21/3/1
f 24/3/1 22/3/1 23/3/1
f 27/3/1 26/3/1 25/3/1
f 28/3/1 26/3/1 27/3/1
f 31/3/1 30/3/1 29/3/1
f 32/3/1 30/3/1 31/3/1
f 35/3/1 34/3/1 33/3/1
f 36/3/1 34/3/1 35/3/1
f 39/1/1 38/1/1 37/1/1
f 40/1/1 38/1/1 39/1/1
f 43/2/1 42/2/1 41/2/1
f 44/2/1 42/2/1 43/2/1
f 47/3/1 46/3/1 45/3/1
f 48/3/1 46/3/1 47/3/1
f 51/2/1 50/2/1 49/2/1
f 52/2/1 50/2/1 51/2/1
f 55/2/1 54/2/1 53/2/1
f 56/2/1 54/2/1 55/2/1
f 59/1/1 58/1/1 57/1/1
f 60/1/1 58/1/1 59/1/1
f 63/3/1 62/3/1 61/3/1
f 64/3/1 62/3/1 63/3/1
f 67/2/1 66/2/1 65/2/1
f 68/2/1 66/2/1 67/2/1
f 71/1/1 70/1/1 69/1/1
f 72/1/1 70/1/1 71/1/1
f 75/1/1 74/1/1 73/1/1
f 76/1/1 74/1/1 75/1/1
f 79/1/1 78/1/1 77/1/1
f 80/1/1 78/1/1 79/1/1
f 83/1/1 82/1/1 81/1/1
f 84/1/1 82/1/1 83/1/1
f 87/2/1 86/2/1 85/2/1
f 88/2/1 86/2/1 87/2/1
f 91/1/1 90/1/1 89/1/1
f 92/1/1 90/1/1 91/1/1
f 95/2/1 94/2/1 93/2/1
f 96/2/1 94/2/1 95/2/1
f 99/1/1 98/1/1 97/1/1
f 100/1/1 98/1/1 99/1/1
f 101/2/1 100/2/1 99/2/1
f 102/2/1 100/2/1 101/2/1
f 103/1/2 104/1/2 105/1/2
f 105/1/2 104/1/2 106/1/2
f 107/1/2 108/1/2 109/1/2
f 109/1/2 108/1/2 110/1/2
f 111/1/2 112/1/2 113/1/2
f 113/1/2 112/1/2 114/1/2
f 115/1/2 116/1/2 117/1/2
f 117/1/2 116/1/2 118/1/2
f 119/2/2 120/2/2 121/2/2
f 121/2/2 120/2/2 122/2/2
f 123/3/2 124/3/2 125/3/2
f 125/3/2 124/3/2 126/3/2
f 127/3/2 128/3/2 129/3/2
f 129/3/2 128/3/2 130/3/2
f 131/3/2 132/3/2 133/3/2
f 133/3/2 132/3/2 134/3/2
f 135/1/2 136/1/2 137/1/2
f 137/1/2 136/1/2 138/1/2
f 139/2/2 140/2/2 141/2/2
f 141/2/2 140/2/2 142/2/2
f 143/1/2 144/1/2 145/1/2
f 145/1/2 144/1/2 146/1/2
f 147/2/2 148/2/2 149/2/2
f 149/2/2 148/2/2 150/2/2
f 151/1/2 152/1/2 153/1/2
f 153/1/2 152/1/2 154/1/2
f 153/3/2 154/3/2 155/3/2
f 155/3/2 154/3/2 156/3/2
f 157/2/2 158/2/2 159/2/2
f 159/2/2 158/2/2 160/2/2
f 161/1/2 162/1/2 163/1/2
f 163/1/2 162/1/2 164/1/2
f 165/1/2 166/1/2 167/1/2
f 167/1/2 166/1/2 168/1/2
f 169/1/2 170/1/2 171/1/2
f 171/1/2 170/1/2 172/1/2
f 173/1/2 174/1/2 175/1/2
f 175/1/2 174/1/2 176/1/2
f 177/1/2 178/1/2 179/1/2
f 179/1/2 178/1/2 180/1/2
f 181/2/2 182/2/2 183/2/2
f 183/2/2 182/2/2 184/2/2
f 185/1/2 186/1/2 187/1/2
f 187/1/2 186/1/2 188/1/2
f 189/2/2 190/2/2 191/2/2
f 191/2/2 190/2/2 192/2/2
f 193/1/2 194/1/2 195/1/2
f 195/1/2 194/1/2 196/1/2
f 195/2/2 196/2/2 197/2/2
f 197/2/2 196/2/2 198/2/2
f 202/1/3 200/1/3 199/1/3
f 203/1/3 200/1/3 202/1/3
f 204/1/3 200/1/3 203/1/3
f 205/1/3 200/1/3 204/1/3
f 208/1/3 202/1/3 201/1/3
f 208/1/3 203/1/3 202/1/3
f 209/1/3 203/1/3 208/1/3
f 210/1/3 203/1/3 209/1/3
f 211/1/3 205/1/3 204/1/3
f 211/1/3 206/1/3 205/1/3
f 212/1/3 206/1/3 211/1/3
f 213/1/3 206/1/3 212/1/3
f 216/1/3 209/1/3 208/1/3
f 216/1/3 208/1/3 207/1/3
f 217/1/3 209/1/3 216/1/3
f 218/1/3 209/1/3 217/1/3
f 219/2/3 214/2/3 213/2/3
f 219/2/3 213/2/3 212/2/3
f 220/2/3 214/2/3 219/2/3
f 222/3/3 216/3/3 215/3/3
f 224/3/3 222/3/3 221/3/3
f 225/3/3 216/3/3 222/3/3
f 225/3/3 222/3/3 224/3/3
f 227/3/3 224/3/3 223/3/3
f 228/3/3 224/3/3 227/3/3
f 229/3/3 216/3/3 225/3/3
f 230/1/3 217/1/3 216/1/3
f 230/3/3 216/3/3 229/3/3
f 231/1/3 217/1/3 230/1/3
f 234/2/3 214/2/3 220/2/3
f 236/3/3 227/3/3 226/3/3
f 237/1/3 232/1/3 231/1/3
f 237/1/3 231/1/3 230/1/3
f 238/1/3 232/1/3 237/1/3
f 239/1/3 232/1/3 238/1/3
f 242/2/3 234/2/3 233/2/3
f 243/2/3 214/2/3 234/2/3
f 243/2/3 234/2/3 242/2/3
f 244/2/3 214/2/3 243/2/3
f 246/3/3 236/3/3 235/3/3
f 247/3/3 227/3/3 236/3/3
f 247/3/3 236/3/3 246/3/3
f 249/1/3 239/1/3 238/1/3
f 250/2/3 240/2/3 239/2/3
f 250/1/3 239/1/3 249/1/3
f 251/2/3 240/2/3 250/2/3
f 252/2/3 243/2/3 242/2/3
f 252/2/3 242/2/3 241/2/3
f 253/2/3 243/2/3 252/2/3
f 254/2/3 243/2/3 253/2/3
f 256/1/3 246/1/3 245/1/3
f 257/1/3 246/1/3 256/1/3
f 258/3/3 248/3/3 247/3/3
f 258/1/3 246/1/3 257/1/3
f 258/3/3 247/3/3 246/3/3
f 259/3/3 248/3/3 258/3/3
f 260/3/3 248/3/3 259/3/3
f 261/2/3 251/2/3 250/2/3
f 261/2/3 253/2/3 252/2/3
f 261/2/3 252/2/3 251/2/3
f 262/2/3 253/2/3 261/2/3
f 264/1/3 257/1/3 256/1/3
f 264/1/3 256/1/3 255/1/3
f 265/1/3 257/1/3 264/1/3
f 266/1/3 257/1/3 265/1/3
f 267/1/3 260/1/3 259/1/3
f 268/1/3 260/1/3 267/1/3
f 269/1/3 260/1/3 268/1/3
f 271/1/3 264/1/3 263/1/3
f 271/1/3 265/1/3 264/1/3
f 272/1/3 265/1/3 271/1/3
f 273/1/3 270/1/3 269/1/3
f 273/1/3 269/1/3 268/1/3
f 274/1/3 270/1/3 273/1/3
f 275/1/3 270/1/3 274/1/3
f 276/1/3 270/1/3 275/1/3
f 277/1/3 271/1/3 263/1/3
f 280/2/3 276/2/3 275/2/3
f 281/1/3 278/1/3 277/1/3
f 281/1/3 277/1/3 263/1/3
f 282/1/3 278/1/3 281/1/3
f 283/1/3 278/1/3 282/1/3
f 286/2/3 280/2/3 279/2/3
f 287/2/3 276/2/3 280/2/3
f 287/2/3 280/2/3 286/2/3
f 288/2/3 276/2/3 287/2/3
f 289/1/3 284/1/3 283/1/3
f 289/1/3 283/1/3 282/1/3
f 290/1/3 284/1/3 289/1/3
f 291/1/3 284/1/3 290/1/3
f 293/2/3 286/2/3 285/2/3
f 293/2/3 287/2/3 286/2/3
f 294/2/3 287/2/3 293/2/3
f 295/2/3 287/2/3 294/2/3
f 296/1/3 292/1/3 291/1/3
f 296/1/3 291/1/3 290/1/3
f 297/2/3 294/2/3 293/2/3
f 297/1/3 292/1/3 296/1/3
f 297/2/3 293/2/3 292/2/3
f 298/2/3 294/2/3 297/2/3
f 299/1/4 300/1/4 302/1/4
f 302/1/4 300/1/4 303/1/4
f 303/1/4 300/1/4 304/1/4
f 304/1/4 300/1/4 305/1/4
f 301/1/4 302/1/4 308/1/4
f 302/1/4 303/1/4 308/1/4
f 308/1/4 303/1/4 309/1/4
f 309/1/4 303/1/4 310/1/4
f 304/1/4 305/1/4 311/1/4
f 305/1/4 306/1/4 311/1/4
f 311/1/4 306/1/4 312/1/4
f 312/1/4 306/1/4 313/1/4
f 308/1/4 309/1/4 316/1/4
f 307/1/4 308/1/4 316/1/4
f 316/1/4 309/1/4 317/1/4
f 317/1/4 309/1/4 318/1/4
f 313/2/4 314/2/4 319/2/4
f 312/2/4 313/2/4 319/2/4
f 319/2/4 314/2/4 320/2/4
f 315/3/4 316/3/4 322/3/4
f 321/3/4 322/3/4 324/3/4
f 322/3/4 316/3/4 325/3/4
f 324/3/4 322/3/4 325/3/4
f 323/3/4 324/3/4 327/3/4
f 327/3/4 324/3/4 328/3/4
f 325/3/4 316/3/4 329/3/4
f 316/1/4 317/1/4 330/1/4
f 329/3/4 316/3/4 330/3/4
f 330/1/4 317/1/4 331/1/4
f 320/2/4 314/2/4 334/2/4
f 326/3/4 327/3/4 336/3/4
f 331/1/4 332/1/4 337/1/4
f 330/1/4 331/1/4 337/1/4
f 337/1/4 332/1/4 338/1/4
f 338/1/4 332/1/4 339/1/4
f 333/2/4 334/2/4 342/2/4
f 334/2/4 314/2/4 343/2/4
f 342/2/4 334/2/4 343/2/4
f 343/2/4 314/2/4 344/2/4
f 335/3/4 336/3/4 346/3/4
f 336/3/4 327/3/4 347/3/4
f 346/3/4 336/3/4 347/3/4
f 338/1/4 339/1/4 349/1/4
f 339/2/4 340/2/4 350/2/4
f 349/1/4 339/1/4 350/1/4
f 350/2/4 340/2/4 351/2/4
f 342/2/4 343/2/4 352/2/4
f 341/2/4 342/2/4 352/2/4
f 352/2/4 343/2/4 353/2/4
f 353/2/4 343/2/4 354/2/4
f 345/1/4 346/1/4 356/1/4
f 356/1/4 346/1/4 357/1/4
f 347/3/4 348/3/4 358/3/4
f 357/1/4 346/1/4 358/1/4
f 346/3/4 347/3/4 358/3/4
f 358/3/4 348/3/4 359/3/4
f 359/3/4 348/3/4 360/3/4
f 350/2/4 351/2/4 361/2/4
f 352/2/4 353/2/4 361/2/4
f 351/2/4 352/2/4 361/2/4
f 361/2/4 353/2/4 362/2/4
f 356/1/4 357/1/4 364/1/4
f 355/1/4 356/1/4 364/1/4
f 364/1/4 357/1/4 365/1/4
f 365/1/4 357/1/4 366/1/4
f 359/1/4 360/1/4 367/1/4
f 367/1/4 360/1/4 368/1/4
f 368/1/4 360/1/4 369/1/4
f 363/1/4 364/1/4 371/1/4
f 364/1/4 365/1/4 371/1/4
f 371/1/4 365/1/4 372/1/4
f 369/1/4 370/1/4 373/1/4
f 368/1/4 369/1/4 373/1/4
f 373/1/4 370/1/4 374/1/4
f 374/1/4 370/1/4 375/1/4
f 375/1/4 370/1/4 376/1/4
f 363/1/4 371/1/4 377/1/4
f 375/2/4 376/2/4 380/2/4
f 377/1/4 378/1/4 381/1/4
f 363/1/4 377/1/4 381/1/4
f 381/1/4 378/1/4 382/1/4
f 382/1/4 378/1/4 383/1/4
f 379/2/4 380/2/4 386/2/4
f 380/2/4 376/2/4 387/2/4
f 386/2/4 380/2/4 387/2/4
f 387/2/4 376/2/4 388/2/4
f 383/1/4 384/1/4 389/1/4
f 382/1/4 383/1/4 389/1/4
f 389/1/4 384/1/4 390/1/4
f 390/1/4 384/1/4 391/1/4
f 385/2/4 386/2/4 393/2/4
f 386/2/4 387/2/4 393/2/4
f 393/2/4 387/2/4 394/2/4
f 394/2/4 387/2/4 395/2/4
f 391/1/4 392/1/4 396/1/4
f 390/1/4 391/1/4 396/1/4
f 393/2/4 394/2/4 397/2/4
f 396/1/4 392/1/4 397/1/4
f 392/2/4 393/2/4 397/2/4
f 397/2/4 394/2/4 398/2/4
f 401/1/5 400/1/5 399/1/5
f 402/1/5 400/1/5 401/1/5
f 407/1/5 404/1/5 403/1/5
f 408/1/5 404/1/5 407/1/5
f 409/1/5 406/1/5 405/1/5
f 410/1/5 406/1/5 409/1/5
f 415/1/5 412/1/5 411/1/5
f 416/1/5 412/1/5 415/1/5
f 417/1/5 414/1/5 413/1/5
f 418/1/5 414/1/5 417/1/5
f 421/3/5 420/3/5 419/3/5
f 422/3/5 420/3/5 421/3/5
f 429/3/5 424/3/5 423/3/5
f 430/3/5 424/3/5 429/3/5
f 431/1/5 426/1/5 425/1/5
f 432/1/5 426/1/5 431/1/5
f 433/2/5 428/2/5 427/2/5
f 434/2/5 428/2/5 433/2/5
f 441/3/5 436/3/5 435/3/5
f 442/3/5 436/3/5 441/3/5
f 443/1/5 438/1/5 437/1/5
f 444/1/5 438/1/5 443/1/5
f 445/2/5 440/2/5 439/2/5
f 446/2/5 440/2/5 445/2/5
f 452/3/5 448/3/5 447/3/5
f 453/3/5 448/3/5 452/3/5
f 454/1/5 450/1/5 449/1/5
f 455/2/5 451/2/5 450/2/5
f 455/1/5 450/1/5 454/1/5
f 456/2/5 451/2/5 455/2/5
f 461/3/5 458/3/5 457/3/5
f 462/3/5 458/3/5 461/3/5
f 463/3/5 460/3/5 459/3/5
f 464/3/5 460/3/5 463/3/5
f 469/1/5 466/1/5 465/1/5
f 470/1/5 466/1/5 469/1/5
f 471/1/5 468/1/5 467/1/5
f 472/1/5 468/1/5 471/1/5
f 477/1/5 474/1/5 473/1/5
f 478/1/5 474/1/5 477/1/5
f 479/1/5 476/1/5 475/1/5
f 480/1/5 476/1/5 479/1/5
f 485/1/5 482/1/5 481/1/5
f 486/1/5 482/1/5 485/1/5
f 487/2/5 484/2/5 483/2/5
f 488/2/5 484/2/5 487/2/5
f 493/1/5 490/1/5 489/1/5
f 494/1/5 490/1/5 493/1/5
f 495/2/5 492/2/5 491/2/5
f 496/2/5 492/2/5 495/2/5
f 501/2/5 498/2/5 497/2/5
f 502/2/5 498/2/5 501/2/5
f 503/2/5 500/2/5 499/2/5
f 504/2/5 500/2/5 503/2/5
f 507/2/5 506/2/5 505/2/5
f 508/2/5 506/2/5 507/2/5
f 509/1/6 510/1/6 511/1/6
f 511/1/6 510/1/6 512/1/6
f 513/1/6 514/1/6 517/1/6
f 517/1/6 514/1/6 518/1/6
f 515/1/6 516/1/6 519/1/6
f 519/1/6 516/1/6 520/1/6
f 521/1/6 522/1/6 525/1/6
f 525/1/6 522/1/6 526/1/6
f 523/1/6 524/1/6 527/1/6
f 527/1/6 524/1/6 528/1/6
f 529/3/6 530/3/6 533/3/6
f 533/3/6 530/3/6 534/3/6
f 531/2/6 532/2/6 535/2/6
f 535/2/6 532/2/6 536/2/6
f 537/3/6 538/3/6 544/3/6
f 544/3/6 538/3/6 545/3/6
f 539/3/6 540/3/6 546/3/6
f 540/1/6 541/1/6 547/1/6
f 546/3/6 540/3/6 547/3/6
f 547/1/6 541/1/6 548/1/6
f 542/2/6 543/2/6 549/2/6
f 549/2/6 543/2/6 550/2/6
f 551/1/6 552/1/6 554/1/6
f 552/2/6 553/2/6 555/2/6
f 554/1/6 552/1/6 555/1/6
f 555/2/6 553/2/6 556/2/6
f 557/1/6 558/1/6 559/1/6
f 559/1/6 558/1/6 560/1/6
f 561/1/6 562/1/6 565/1/6
f 565/1/6 562/1/6 566/1/6
f 563/1/6 564/1/6 567/1/6
f 567/1/6 564/1/6 568/1/6
f 569/1/6 570/1/6 573/1/6
f 573/1/6 570/1/6 574/1/6
f 571/2/6 572/2/6 575/2/6
f 575/2/6 572/2/6 576/2/6
f 577/1/6 578/1/6 581/1/6
f 581/1/6 578/1/6 582/1/6
f 579/2/6 580/2/6 583/2/6
f 583/2/6 580/2/6 584/2/6
f 585/1/6 586/1/6 589/1/6
f 589/1/6 586/1/6 590/1/6
f 587/2/6 588/2/6 591/2/6
f 591/2/6 588/2/6 592/2/6
f 593/2/6 594/2/6 595/2/6
f 595/2/6 594/2/6 596/2/6
