# MagicaVoxel @ Ephtracy

# group
o 

# material
mtllib whiteborad.vox.mtl
usemtl palette

# normals
vn -1 0 0
vn 1 0 0
vn 0 0 1
vn 0 0 -1
vn 0 -1 0
vn 0 1 0

# texcoords
vt 0.0996094 0.5
vt 0.310547 0.5
vt 0.759766 0.5
vt 0.931641 0.5
vt 0.935547 0.5
vt 0.958984 0.5
vt 0.962891 0.5
vt 0.966797 0.5
vt 0.982422 0.5

# verts
v -0.9 0 -1.7
v -0.9 0 -1.9
v -0.9 0 -2
v -0.9 0.1 -1.7
v -0.9 0.1 -1.9
v -0.9 0.9 -1.9
v -0.9 0.9 -2
v -0.9 1.6 -1.9
v -0.9 1.6 -2
v 0.8 0.1 -1.8
v 0.8 0.1 -1.9
v 0.8 0.2 -1.8
v 0.8 0.2 -1.9
v 0.8 0.3 -1.8
v 0.8 0.3 -1.9
v 1 0.1 -1.8
v 1 0.1 -1.9
v 1 0.2 -1.8
v 1 0.2 -1.9
v 1 0.3 -1.8
v 1 0.3 -1.9
v 1.1 0 -1.7
v 1.1 0 -1.9
v 1.1 0 -2
v 1.1 0.1 -1.7
v 1.1 0.1 -1.9
v 1.1 1.4 -1.9
v 1.1 1.4 -2
v 1.1 1.6 -1.9
v 1.1 1.6 -2
v -0.9 0 -1.7
v -0.9 0.1 -1.7
v 1.1 0 -1.7
v 1.1 0.1 -1.7
v 0.8 0.1 -1.8
v 0.8 0.2 -1.8
v 0.8 0.3 -1.8
v 1 0.1 -1.8
v 1 0.2 -1.8
v 1 0.3 -1.8
v -0.9 0.1 -1.9
v -0.9 0.9 -1.9
v -0.9 1.6 -1.9
v -0.8 0.1 -1.9
v -0.8 0.9 -1.9
v -0.8 1.5 -1.9
v -0.7 1.2 -1.9
v -0.7 1.3 -1.9
v -0.6 0.2 -1.9
v -0.6 0.3 -1.9
v -0.6 0.5 -1.9
v -0.6 0.7 -1.9
v -0.6 0.9 -1.9
v -0.6 1.1 -1.9
v -0.5 0.2 -1.9
v -0.5 0.3 -1.9
v -0.5 0.5 -1.9
v -0.5 0.6 -1.9
v -0.5 0.9 -1.9
v -0.5 1 -1.9
v -0.4 0.2 -1.9
v -0.4 0.3 -1.9
v -0.4 0.5 -1.9
v -0.4 0.6 -1.9
v -0.4 0.7 -1.9
v -0.4 0.9 -1.9
v -0.4 1 -1.9
v -0.4 1.2 -1.9
v -0.4 1.3 -1.9
v -0.3 0.6 -1.9
v -0.3 0.7 -1.9
v -0.3 0.9 -1.9
v -0.3 1.1 -1.9
v -0.2 0.2 -1.9
v -0.2 0.3 -1.9
v -0.2 0.5 -1.9
v -0.2 0.7 -1.9
v -0.2 0.9 -1.9
v -0.2 1 -1.9
v -0.1 0.5 -1.9
v -0.1 0.7 -1.9
v -0.1 0.9 -1.9
v -0.1 1 -1.9
v 0 0.2 -1.9
v 0 0.3 -1.9
v 0 0.5 -1.9
v 0 0.7 -1.9
v 0 0.9 -1.9
v 0 1.1 -1.9
v 0.1 0.5 -1.9
v 0.1 0.7 -1.9
v 0.1 0.9 -1.9
v 0.1 1.1 -1.9
v 0.2 0.3 -1.9
v 0.2 0.4 -1.9
v 0.2 0.6 -1.9
v 0.2 0.7 -1.9
v 0.3 0.5 -1.9
v 0.3 0.6 -1.9
v 0.3 1 -1.9
v 0.3 1.1 -1.9
v 0.4 0.2 -1.9
v 0.4 0.3 -1.9
v 0.4 0.5 -1.9
v 0.4 0.6 -1.9
v 0.4 0.8 -1.9
v 0.4 1 -1.9
v 0.5 0.3 -1.9
v 0.5 0.4 -1.9
v 0.5 0.5 -1.9
v 0.5 0.6 -1.9
v 0.5 0.8 -1.9
v 0.5 0.9 -1.9
v 0.5 1 -1.9
v 0.5 1.1 -1.9
v 0.5 1.2 -1.9
v 0.6 0.4 -1.9
v 0.6 0.5 -1.9
v 0.6 0.9 -1.9
v 0.6 1 -1.9
v 0.6 1.1 -1.9
v 0.6 1.2 -1.9
v 0.6 1.3 -1.9
v 0.7 0.4 -1.9
v 0.7 0.5 -1.9
v 0.7 0.9 -1.9
v 0.7 1 -1.9
v 0.7 1.1 -1.9
v 0.7 1.2 -1.9
v 0.7 1.3 -1.9
v 0.8 0.1 -1.9
v 0.8 0.2 -1.9
v 0.8 0.3 -1.9
v 0.8 0.4 -1.9
v 0.8 0.5 -1.9
v 0.8 0.6 -1.9
v 0.8 0.8 -1.9
v 0.8 0.9 -1.9
v 0.8 1 -1.9
v 0.8 1.1 -1.9
v 0.8 1.2 -1.9
v 0.9 0.5 -1.9
v 0.9 0.6 -1.9
v 0.9 0.8 -1.9
v 0.9 1 -1.9
v 1 0.1 -1.9
v 1 0.2 -1.9
v 1 0.3 -1.9
v 1 1 -1.9
v 1 1.1 -1.9
v 1 1.4 -1.9
v 1 1.5 -1.9
v 1.1 0.1 -1.9
v 1.1 1.4 -1.9
v 1.1 1.6 -1.9
v -0.9 0 -2
v -0.9 0.9 -2
v -0.9 1.6 -2
v -0.8 0 -2
v -0.8 0.1 -2
v -0.8 0.9 -2
v -0.8 1.5 -2
v -0.7 1.2 -2
v -0.7 1.3 -2
v -0.6 0.2 -2
v -0.6 0.3 -2
v -0.6 0.5 -2
v -0.6 0.7 -2
v -0.6 0.9 -2
v -0.6 1.1 -2
v -0.5 0.2 -2
v -0.5 0.3 -2
v -0.5 0.5 -2
v -0.5 0.6 -2
v -0.5 0.9 -2
v -0.5 1 -2
v -0.4 0.2 -2
v -0.4 0.3 -2
v -0.4 0.5 -2
v -0.4 0.6 -2
v -0.4 0.7 -2
v -0.4 0.9 -2
v -0.4 1 -2
v -0.4 1.2 -2
v -0.4 1.3 -2
v -0.3 0.6 -2
v -0.3 0.7 -2
v -0.3 0.9 -2
v -0.3 1.1 -2
v -0.2 0.2 -2
v -0.2 0.3 -2
v -0.2 0.5 -2
v -0.2 0.7 -2
v -0.2 0.9 -2
v -0.2 1 -2
v -0.1 0.5 -2
v -0.1 0.7 -2
v -0.1 0.9 -2
v -0.1 1 -2
v 0 0.2 -2
v 0 0.3 -2
v 0 0.5 -2
v 0 0.7 -2
v 0 0.9 -2
v 0 1.1 -2
v 0.1 0.5 -2
v 0.1 0.7 -2
v 0.1 0.9 -2
v 0.1 1.1 -2
v 0.2 0.3 -2
v 0.2 0.4 -2
v 0.2 0.6 -2
v 0.2 0.7 -2
v 0.3 0.5 -2
v 0.3 0.6 -2
v 0.3 1 -2
v 0.3 1.1 -2
v 0.4 0.2 -2
v 0.4 0.3 -2
v 0.4 0.5 -2
v 0.4 0.6 -2
v 0.4 0.8 -2
v 0.4 1 -2
v 0.5 0.3 -2
v 0.5 0.4 -2
v 0.5 0.5 -2
v 0.5 0.6 -2
v 0.5 0.8 -2
v 0.5 0.9 -2
v 0.5 1 -2
v 0.5 1.1 -2
v 0.5 1.2 -2
v 0.6 0.4 -2
v 0.6 0.5 -2
v 0.6 0.9 -2
v 0.6 1 -2
v 0.6 1.1 -2
v 0.6 1.2 -2
v 0.6 1.3 -2
v 0.7 0.4 -2
v 0.7 0.5 -2
v 0.7 0.9 -2
v 0.7 1 -2
v 0.7 1.1 -2
v 0.7 1.2 -2
v 0.7 1.3 -2
v 0.8 0.4 -2
v 0.8 0.5 -2
v 0.8 0.6 -2
v 0.8 0.8 -2
v 0.8 0.9 -2
v 0.8 1 -2
v 0.8 1.1 -2
v 0.8 1.2 -2
v 0.9 0.5 -2
v 0.9 0.6 -2
v 0.9 0.8 -2
v 0.9 1 -2
v 1 0 -2
v 1 0.1 -2
v 1 1 -2
v 1 1.1 -2
v 1 1.4 -2
v 1 1.5 -2
v 1.1 0 -2
v 1.1 1.4 -2
v 1.1 1.6 -2
v -0.9 0 -1.7
v 1.1 0 -1.7
v -0.9 0 -1.9
v -0.8 0 -1.9
v 1 0 -1.9
v 1.1 0 -1.9
v -0.9 0 -2
v -0.8 0 -2
v 1 0 -2
v 1.1 0 -2
v -0.9 0.1 -1.7
v 1.1 0.1 -1.7
v 0.8 0.1 -1.8
v 1 0.1 -1.8
v -0.9 0.1 -1.9
v -0.8 0.1 -1.9
v 0.8 0.1 -1.9
v 1 0.1 -1.9
v 1.1 0.1 -1.9
v 0.8 0.3 -1.8
v 1 0.3 -1.8
v 0.8 0.3 -1.9
v 1 0.3 -1.9
v -0.9 1.6 -1.9
v 1.1 1.6 -1.9
v -0.9 1.6 -2
v 1.1 1.6 -2

# faces
f 4/2/1 2/2/1 1/2/1
f 5/5/1 3/5/1 2/5/1
f 5/2/1 2/2/1 4/2/1
f 6/5/1 3/5/1 5/5/1
f 7/5/1 3/5/1 6/5/1
f 8/9/1 7/9/1 6/9/1
f 9/9/1 7/9/1 8/9/1
f 12/6/1 11/6/1 10/6/1
f 13/6/1 11/6/1 12/6/1
f 14/3/1 13/3/1 12/3/1
f 15/3/1 13/3/1 14/3/1
f 16/6/2 17/6/2 18/6/2
f 18/6/2 17/6/2 19/6/2
f 18/3/2 19/3/2 20/3/2
f 20/3/2 19/3/2 21/3/2
f 22/2/2 23/2/2 25/2/2
f 23/5/2 24/5/2 26/5/2
f 25/2/2 23/2/2 26/2/2
f 26/5/2 24/5/2 27/5/2
f 27/5/2 24/5/2 28/5/2
f 27/9/2 28/9/2 29/9/2
f 29/9/2 28/9/2 30/9/2
f 33/2/3 32/2/3 31/2/3
f 34/2/3 32/2/3 33/2/3
f 38/6/3 36/6/3 35/6/3
f 39/3/3 37/3/3 36/3/3
f 39/6/3 36/6/3 38/6/3
f 40/3/3 37/3/3 39/3/3
f 44/5/3 42/5/3 41/5/3
f 45/9/3 43/9/3 42/9/3
f 45/5/3 42/5/3 44/5/3
f 46/9/3 43/9/3 45/9/3
f 47/8/3 45/8/3 44/8/3
f 47/8/3 46/8/3 45/8/3
f 48/8/3 46/8/3 47/8/3
f 49/8/3 47/8/3 44/8/3
f 50/8/3 47/8/3 49/8/3
f 51/8/3 47/8/3 50/8/3
f 52/8/3 47/8/3 51/8/3
f 53/8/3 47/8/3 52/8/3
f 54/8/3 47/8/3 53/8/3
f 55/8/3 49/8/3 44/8/3
f 55/1/3 50/1/3 49/1/3
f 56/8/3 51/8/3 50/8/3
f 56/1/3 50/1/3 55/1/3
f 57/9/3 52/9/3 51/9/3
f 57/8/3 51/8/3 56/8/3
f 58/9/3 52/9/3 57/9/3
f 59/9/3 54/9/3 53/9/3
f 59/8/3 53/8/3 52/8/3
f 60/9/3 54/9/3 59/9/3
f 61/8/3 55/8/3 44/8/3
f 61/8/3 56/8/3 55/8/3
f 61/8/3 58/8/3 57/8/3
f 61/8/3 57/8/3 56/8/3
f 62/8/3 58/8/3 61/8/3
f 63/8/3 58/8/3 62/8/3
f 64/9/3 52/9/3 58/9/3
f 64/8/3 58/8/3 63/8/3
f 65/8/3 60/8/3 59/8/3
f 65/9/3 52/9/3 64/9/3
f 65/8/3 59/8/3 52/8/3
f 66/8/3 60/8/3 65/8/3
f 67/9/3 54/9/3 60/9/3
f 67/8/3 60/8/3 66/8/3
f 68/9/3 48/9/3 47/9/3
f 68/8/3 47/8/3 54/8/3
f 69/8/3 46/8/3 48/8/3
f 69/9/3 48/9/3 68/9/3
f 70/8/3 66/8/3 65/8/3
f 70/9/3 64/9/3 63/9/3
f 70/8/3 65/8/3 64/8/3
f 71/8/3 66/8/3 70/8/3
f 72/9/3 67/9/3 66/9/3
f 72/8/3 66/8/3 71/8/3
f 73/8/3 68/8/3 54/8/3
f 73/9/3 67/9/3 72/9/3
f 73/9/3 54/9/3 67/9/3
f 73/8/3 69/8/3 68/8/3
f 74/8/3 61/8/3 44/8/3
f 74/1/3 62/1/3 61/1/3
f 75/8/3 63/8/3 62/8/3
f 75/1/3 62/1/3 74/1/3
f 76/9/3 70/9/3 63/9/3
f 76/8/3 63/8/3 75/8/3
f 76/9/3 71/9/3 70/9/3
f 77/8/3 72/8/3 71/8/3
f 77/9/3 71/9/3 76/9/3
f 77/8/3 73/8/3 72/8/3
f 78/8/3 73/8/3 77/8/3
f 79/8/3 73/8/3 78/8/3
f 80/8/3 76/8/3 75/8/3
f 80/8/3 75/8/3 74/8/3
f 80/8/3 77/8/3 76/8/3
f 80/8/3 78/8/3 77/8/3
f 81/8/3 78/8/3 80/8/3
f 82/9/3 79/9/3 78/9/3
f 82/8/3 78/8/3 81/8/3
f 83/8/3 73/8/3 79/8/3
f 83/9/3 79/9/3 82/9/3
f 84/8/3 74/8/3 44/8/3
f 84/8/3 80/8/3 74/8/3
f 85/8/3 80/8/3 84/8/3
f 86/9/3 81/9/3 80/9/3
f 86/8/3 80/8/3 85/8/3
f 87/8/3 82/8/3 81/8/3
f 87/9/3 81/9/3 86/9/3
f 87/8/3 83/8/3 82/8/3
f 88/8/3 83/8/3 87/8/3
f 89/8/3 69/8/3 73/8/3
f 89/8/3 83/8/3 88/8/3
f 89/8/3 73/8/3 83/8/3
f 90/8/3 86/8/3 85/8/3
f 90/8/3 88/8/3 87/8/3
f 90/8/3 87/8/3 86/8/3
f 91/8/3 88/8/3 90/8/3
f 92/9/3 89/9/3 88/9/3
f 92/8/3 88/8/3 91/8/3
f 93/8/3 69/8/3 89/8/3
f 93/9/3 89/9/3 92/9/3
f 94/1/3 85/1/3 84/1/3
f 94/8/3 90/8/3 85/8/3
f 95/8/3 90/8/3 94/8/3
f 96/9/3 91/9/3 90/9/3
f 97/8/3 92/8/3 91/8/3
f 97/9/3 91/9/3 96/9/3
f 97/8/3 93/8/3 92/8/3
f 98/9/3 96/9/3 90/9/3
f 98/8/3 90/8/3 95/8/3
f 99/8/3 97/8/3 96/8/3
f 99/9/3 96/9/3 98/9/3
f 100/8/3 93/8/3 97/8/3
f 100/8/3 97/8/3 99/8/3
f 101/8/3 69/8/3 93/8/3
f 101/8/3 93/8/3 100/8/3
f 102/8/3 84/8/3 44/8/3
f 102/1/3 95/1/3 94/1/3
f 102/1/3 94/1/3 84/1/3
f 103/1/3 95/1/3 102/1/3
f 104/8/3 99/8/3 98/8/3
f 104/8/3 100/8/3 99/8/3
f 104/8/3 98/8/3 95/8/3
f 105/8/3 100/8/3 104/8/3
f 106/8/3 100/8/3 105/8/3
f 107/4/3 101/4/3 100/4/3
f 107/8/3 100/8/3 106/8/3
f 108/1/3 95/1/3 103/1/3
f 108/8/3 103/8/3 102/8/3
f 109/8/3 104/8/3 95/8/3
f 109/1/3 95/1/3 108/1/3
f 110/4/3 105/4/3 104/4/3
f 110/8/3 104/8/3 109/8/3
f 111/8/3 106/8/3 105/8/3
f 111/4/3 105/4/3 110/4/3
f 112/4/3 107/4/3 106/4/3
f 112/8/3 106/8/3 111/8/3
f 113/4/3 107/4/3 112/4/3
f 114/4/3 101/4/3 107/4/3
f 114/4/3 107/4/3 113/4/3
f 115/8/3 69/8/3 101/8/3
f 115/4/3 101/4/3 114/4/3
f 116/8/3 69/8/3 115/8/3
f 117/4/3 111/4/3 110/4/3
f 117/4/3 110/4/3 109/4/3
f 117/8/3 109/8/3 108/8/3
f 117/4/3 112/4/3 111/4/3
f 118/4/3 112/4/3 117/4/3
f 119/9/3 113/9/3 112/9/3
f 119/7/3 114/7/3 113/7/3
f 120/4/3 116/4/3 115/4/3
f 120/7/3 114/7/3 119/7/3
f 120/4/3 115/4/3 114/4/3
f 121/4/3 116/4/3 120/4/3
f 122/8/3 69/8/3 116/8/3
f 122/4/3 116/4/3 121/4/3
f 123/8/3 46/8/3 69/8/3
f 123/8/3 69/8/3 122/8/3
f 124/8/3 118/8/3 117/8/3
f 124/8/3 117/8/3 108/8/3
f 125/4/3 112/4/3 118/4/3
f 125/8/3 118/8/3 124/8/3
f 126/9/3 121/9/3 120/9/3
f 126/9/3 119/9/3 112/9/3
f 126/9/3 120/9/3 119/9/3
f 127/9/3 121/9/3 126/9/3
f 128/4/3 122/4/3 121/4/3
f 128/9/3 121/9/3 127/9/3
f 128/4/3 123/4/3 122/4/3
f 129/4/3 123/4/3 128/4/3
f 130/8/3 46/8/3 123/8/3
f 130/4/3 123/4/3 129/4/3
f 131/8/3 124/8/3 108/8/3
f 131/8/3 102/8/3 44/8/3
f 131/8/3 108/8/3 102/8/3
f 132/8/3 124/8/3 131/8/3
f 133/8/3 124/8/3 132/8/3
f 134/4/3 125/4/3 124/4/3
f 134/8/3 124/8/3 133/8/3
f 135/4/3 112/4/3 125/4/3
f 135/4/3 125/4/3 134/4/3
f 136/4/3 112/4/3 135/4/3
f 137/9/3 126/9/3 112/9/3
f 137/4/3 112/4/3 136/4/3
f 138/7/3 127/7/3 126/7/3
f 138/9/3 126/9/3 137/9/3
f 139/4/3 129/4/3 128/4/3
f 139/7/3 127/7/3 138/7/3
f 139/4/3 128/4/3 127/4/3
f 140/4/3 129/4/3 139/4/3
f 141/8/3 130/8/3 129/8/3
f 141/4/3 129/4/3 140/4/3
f 142/8/3 134/8/3 133/8/3
f 142/8/3 135/8/3 134/8/3
f 142/4/3 136/4/3 135/4/3
f 143/8/3 137/8/3 136/8/3
f 143/4/3 136/4/3 142/4/3
f 144/4/3 140/4/3 139/4/3
f 144/8/3 137/8/3 143/8/3
f 144/4/3 138/4/3 137/4/3
f 144/4/3 139/4/3 138/4/3
f 145/4/3 140/4/3 144/4/3
f 148/8/3 143/8/3 142/8/3
f 148/8/3 142/8/3 133/8/3
f 148/8/3 144/8/3 143/8/3
f 148/8/3 145/8/3 144/8/3
f 149/4/3 140/4/3 145/4/3
f 149/8/3 145/8/3 148/8/3
f 150/8/3 141/8/3 140/8/3
f 150/4/3 140/4/3 149/4/3
f 151/8/3 46/8/3 130/8/3
f 151/8/3 141/8/3 150/8/3
f 151/8/3 130/8/3 141/8/3
f 152/9/3 43/9/3 46/9/3
f 152/8/3 46/8/3 151/8/3
f 153/5/3 151/5/3 150/5/3
f 153/5/3 150/5/3 149/5/3
f 153/5/3 147/5/3 146/5/3
f 153/5/3 149/5/3 148/5/3
f 153/5/3 148/5/3 147/5/3
f 154/9/3 152/9/3 151/9/3
f 154/5/3 151/5/3 153/5/3
f 155/9/3 43/9/3 152/9/3
f 155/9/3 152/9/3 154/9/3
f 156/5/4 157/5/4 159/5/4
f 159/5/4 157/5/4 160/5/4
f 157/9/4 158/9/4 161/9/4
f 160/5/4 157/5/4 161/5/4
f 161/9/4 158/9/4 162/9/4
f 160/8/4 161/8/4 163/8/4
f 161/8/4 162/8/4 163/8/4
f 163/8/4 162/8/4 164/8/4
f 160/8/4 163/8/4 165/8/4
f 165/8/4 163/8/4 166/8/4
f 166/8/4 163/8/4 167/8/4
f 167/8/4 163/8/4 168/8/4
f 168/8/4 163/8/4 169/8/4
f 169/8/4 163/8/4 170/8/4
f 160/8/4 165/8/4 171/8/4
f 165/1/4 166/1/4 171/1/4
f 166/8/4 167/8/4 172/8/4
f 171/1/4 166/1/4 172/1/4
f 167/9/4 168/9/4 173/9/4
f 172/8/4 167/8/4 173/8/4
f 173/9/4 168/9/4 174/9/4
f 169/9/4 170/9/4 175/9/4
f 168/8/4 169/8/4 175/8/4
f 175/9/4 170/9/4 176/9/4
f 160/8/4 171/8/4 177/8/4
f 171/8/4 172/8/4 177/8/4
f 173/8/4 174/8/4 177/8/4
f 172/8/4 173/8/4 177/8/4
f 177/8/4 174/8/4 178/8/4
f 178/8/4 174/8/4 179/8/4
f 174/9/4 168/9/4 180/9/4
f 179/8/4 174/8/4 180/8/4
f 175/8/4 176/8/4 181/8/4
f 180/9/4 168/9/4 181/9/4
f 168/8/4 175/8/4 181/8/4
f 181/8/4 176/8/4 182/8/4
f 176/9/4 170/9/4 183/9/4
f 182/8/4 176/8/4 183/8/4
f 163/9/4 164/9/4 184/9/4
f 170/8/4 163/8/4 184/8/4
f 164/8/4 162/8/4 185/8/4
f 184/9/4 164/9/4 185/9/4
f 181/8/4 182/8/4 186/8/4
f 179/9/4 180/9/4 186/9/4
f 180/8/4 181/8/4 186/8/4
f 186/8/4 182/8/4 187/8/4
f 182/9/4 183/9/4 188/9/4
f 187/8/4 182/8/4 188/8/4
f 170/8/4 184/8/4 189/8/4
f 188/9/4 183/9/4 189/9/4
f 183/9/4 170/9/4 189/9/4
f 184/8/4 185/8/4 189/8/4
f 160/8/4 177/8/4 190/8/4
f 177/1/4 178/1/4 190/1/4
f 178/8/4 179/8/4 191/8/4
f 190/1/4 178/1/4 191/1/4
f 179/9/4 186/9/4 192/9/4
f 191/8/4 179/8/4 192/8/4
f 186/9/4 187/9/4 192/9/4
f 187/8/4 188/8/4 193/8/4
f 192/9/4 187/9/4 193/9/4
f 188/8/4 189/8/4 193/8/4
f 193/8/4 189/8/4 194/8/4
f 194/8/4 189/8/4 195/8/4
f 191/8/4 192/8/4 196/8/4
f 190/8/4 191/8/4 196/8/4
f 192/8/4 193/8/4 196/8/4
f 193/8/4 194/8/4 196/8/4
f 196/8/4 194/8/4 197/8/4
f 194/9/4 195/9/4 198/9/4
f 197/8/4 194/8/4 198/8/4
f 195/8/4 189/8/4 199/8/4
f 198/9/4 195/9/4 199/9/4
f 160/8/4 190/8/4 200/8/4
f 190/8/4 196/8/4 200/8/4
f 200/8/4 196/8/4 201/8/4
f 196/9/4 197/9/4 202/9/4
f 201/8/4 196/8/4 202/8/4
f 197/8/4 198/8/4 203/8/4
f 202/9/4 197/9/4 203/9/4
f 198/8/4 199/8/4 203/8/4
f 203/8/4 199/8/4 204/8/4
f 189/8/4 185/8/4 205/8/4
f 204/8/4 199/8/4 205/8/4
f 199/8/4 189/8/4 205/8/4
f 201/8/4 202/8/4 206/8/4
f 203/8/4 204/8/4 206/8/4
f 202/8/4 203/8/4 206/8/4
f 206/8/4 204/8/4 207/8/4
f 204/9/4 205/9/4 208/9/4
f 207/8/4 204/8/4 208/8/4
f 205/8/4 185/8/4 209/8/4
f 208/9/4 205/9/4 209/9/4
f 200/1/4 201/1/4 210/1/4
f 201/8/4 206/8/4 210/8/4
f 210/8/4 206/8/4 211/8/4
f 206/9/4 207/9/4 212/9/4
f 207/8/4 208/8/4 213/8/4
f 212/9/4 207/9/4 213/9/4
f 208/8/4 209/8/4 213/8/4
f 206/9/4 212/9/4 214/9/4
f 211/8/4 206/8/4 214/8/4
f 212/8/4 213/8/4 215/8/4
f 214/9/4 212/9/4 215/9/4
f 213/8/4 209/8/4 216/8/4
f 215/8/4 213/8/4 216/8/4
f 209/8/4 185/8/4 217/8/4
f 216/8/4 209/8/4 217/8/4
f 160/8/4 200/8/4 218/8/4
f 210/1/4 211/1/4 218/1/4
f 200/1/4 210/1/4 218/1/4
f 218/1/4 211/1/4 219/1/4
f 214/8/4 215/8/4 220/8/4
f 215/8/4 216/8/4 220/8/4
f 211/8/4 214/8/4 220/8/4
f 220/8/4 216/8/4 221/8/4
f 221/8/4 216/8/4 222/8/4
f 216/4/4 217/4/4 223/4/4
f 222/8/4 216/8/4 223/8/4
f 219/1/4 211/1/4 224/1/4
f 218/8/4 219/8/4 224/8/4
f 211/8/4 220/8/4 225/8/4
f 224/1/4 211/1/4 225/1/4
f 220/4/4 221/4/4 226/4/4
f 225/8/4 220/8/4 226/8/4
f 221/8/4 222/8/4 227/8/4
f 226/4/4 221/4/4 227/4/4
f 222/4/4 223/4/4 228/4/4
f 227/8/4 222/8/4 228/8/4
f 228/4/4 223/4/4 229/4/4
f 223/4/4 217/4/4 230/4/4
f 229/4/4 223/4/4 230/4/4
f 217/8/4 185/8/4 231/8/4
f 230/4/4 217/4/4 231/4/4
f 231/8/4 185/8/4 232/8/4
f 226/4/4 227/4/4 233/4/4
f 225/4/4 226/4/4 233/4/4
f 224/8/4 225/8/4 233/8/4
f 227/4/4 228/4/4 233/4/4
f 233/4/4 228/4/4 234/4/4
f 228/9/4 229/9/4 235/9/4
f 229/7/4 230/7/4 235/7/4
f 231/4/4 232/4/4 236/4/4
f 235/7/4 230/7/4 236/7/4
f 230/4/4 231/4/4 236/4/4
f 236/4/4 232/4/4 237/4/4
f 232/8/4 185/8/4 238/8/4
f 237/4/4 232/4/4 238/4/4
f 185/8/4 162/8/4 239/8/4
f 238/8/4 185/8/4 239/8/4
f 233/8/4 234/8/4 240/8/4
f 224/8/4 233/8/4 240/8/4
f 234/4/4 228/4/4 241/4/4
f 240/8/4 234/8/4 241/8/4
f 236/9/4 237/9/4 242/9/4
f 228/9/4 235/9/4 242/9/4
f 235/9/4 236/9/4 242/9/4
f 242/9/4 237/9/4 243/9/4
f 237/4/4 238/4/4 244/4/4
f 243/9/4 237/9/4 244/9/4
f 238/4/4 239/4/4 244/4/4
f 244/4/4 239/4/4 245/4/4
f 239/8/4 162/8/4 246/8/4
f 245/4/4 239/4/4 246/4/4
f 224/8/4 240/8/4 247/8/4
f 240/4/4 241/4/4 247/4/4
f 241/4/4 228/4/4 248/4/4
f 247/4/4 241/4/4 248/4/4
f 248/4/4 228/4/4 249/4/4
f 228/9/4 242/9/4 250/9/4
f 249/4/4 228/4/4 250/4/4
f 242/7/4 243/7/4 251/7/4
f 250/9/4 242/9/4 251/9/4
f 244/4/4 245/4/4 252/4/4
f 251/7/4 243/7/4 252/7/4
f 243/4/4 244/4/4 252/4/4
f 252/4/4 245/4/4 253/4/4
f 245/8/4 246/8/4 254/8/4
f 253/4/4 245/4/4 254/4/4
f 248/4/4 249/4/4 255/4/4
f 247/8/4 248/8/4 255/8/4
f 249/8/4 250/8/4 256/8/4
f 255/4/4 249/4/4 256/4/4
f 250/4/4 251/4/4 257/4/4
f 256/8/4 250/8/4 257/8/4
f 252/4/4 253/4/4 257/4/4
f 251/4/4 252/4/4 257/4/4
f 257/4/4 253/4/4 258/4/4
f 159/9/4 160/9/4 259/9/4
f 224/8/4 247/8/4 260/8/4
f 259/9/4 160/9/4 260/9/4
f 160/8/4 218/8/4 260/8/4
f 257/8/4 258/8/4 260/8/4
f 256/8/4 257/8/4 260/8/4
f 255/8/4 256/8/4 260/8/4
f 218/8/4 224/8/4 260/8/4
f 247/8/4 255/8/4 260/8/4
f 258/4/4 253/4/4 261/4/4
f 260/8/4 258/8/4 261/8/4
f 253/8/4 254/8/4 262/8/4
f 261/4/4 253/4/4 262/4/4
f 246/8/4 162/8/4 263/8/4
f 262/8/4 254/8/4 263/8/4
f 254/8/4 246/8/4 263/8/4
f 162/9/4 158/9/4 264/9/4
f 263/8/4 162/8/4 264/8/4
f 259/5/4 260/5/4 265/5/4
f 262/5/4 263/5/4 265/5/4
f 261/5/4 262/5/4 265/5/4
f 260/5/4 261/5/4 265/5/4
f 263/9/4 264/9/4 266/9/4
f 265/5/4 263/5/4 266/5/4
f 264/9/4 158/9/4 267/9/4
f 266/9/4 264/9/4 267/9/4
f 270/2/5 269/2/5 268/2/5
f 271/2/5 269/2/5 270/2/5
f 272/2/5 269/2/5 271/2/5
f 273/2/5 269/2/5 272/2/5
f 274/5/5 271/5/5 270/5/5
f 275/9/5 272/9/5 271/9/5
f 275/5/5 271/5/5 274/5/5
f 276/5/5 273/5/5 272/5/5
f 276/9/5 272/9/5 275/9/5
f 277/5/5 273/5/5 276/5/5
f 278/2/6 279/2/6 280/2/6
f 280/2/6 279/2/6 281/2/6
f 278/2/6 280/2/6 282/2/6
f 282/2/6 280/2/6 283/2/6
f 283/2/6 280/2/6 284/2/6
f 281/2/6 279/2/6 285/2/6
f 285/2/6 279/2/6 286/2/6
f 287/3/6 288/3/6 289/3/6
f 289/3/6 288/3/6 290/3/6
f 291/9/6 292/9/6 293/9/6
f 293/9/6 292/9/6 294/9/6
