# MagicaVoxel @ Ephtracy

# group
o 

# material
mtllib way_wall.vox.mtl
usemtl palette

# normals
vn -1 0 0
vn 1 0 0
vn 0 0 1
vn 0 0 -1
vn 0 -1 0
vn 0 1 0

# texcoords
vt 0.310547 0.5
vt 0.779297 0.5

# verts
v -2 0.1 0.8
v -2 0.1 0.7
v -2 0.1 0.6
v -2 0.1 -0.6
v -2 0.1 -0.7
v -2 0.1 -0.8
v -2 0.2 0.7
v -2 0.2 0.6
v -2 0.2 -0.6
v -2 0.2 -0.7
v -2 1.4 0.8
v -2 1.4 0.7
v -2 1.4 -0.7
v -2 1.4 -0.8
v 2 0.1 0.8
v 2 0.1 0.7
v 2 0.1 0.6
v 2 0.1 -0.6
v 2 0.1 -0.7
v 2 0.1 -0.8
v 2 0.2 0.7
v 2 0.2 0.6
v 2 0.2 -0.6
v 2 0.2 -0.7
v 2 1.4 0.8
v 2 1.4 0.7
v 2 1.4 -0.7
v 2 1.4 -0.8
v -2 0.1 0.8
v -2 1.4 0.8
v 2 0.1 0.8
v 2 1.4 0.8
v -2 0.1 -0.6
v -2 0.2 -0.6
v 2 0.1 -0.6
v 2 0.2 -0.6
v -2 0.2 -0.7
v -2 1.4 -0.7
v 2 0.2 -0.7
v 2 1.4 -0.7
v -2 0.2 0.7
v -2 1.4 0.7
v 2 0.2 0.7
v 2 1.4 0.7
v -2 0.1 0.6
v -2 0.2 0.6
v 2 0.1 0.6
v 2 0.2 0.6
v -2 0.1 -0.8
v -2 1.4 -0.8
v 2 0.1 -0.8
v 2 1.4 -0.8
v -2 0.1 0.8
v 2 0.1 0.8
v -2 0.1 0.7
v 2 0.1 0.7
v -2 0.1 0.6
v 2 0.1 0.6
v -2 0.1 -0.6
v 2 0.1 -0.6
v -2 0.1 -0.7
v 2 0.1 -0.7
v -2 0.1 -0.8
v 2 0.1 -0.8
v -2 0.2 0.7
v 2 0.2 0.7
v -2 0.2 0.6
v 2 0.2 0.6
v -2 0.2 -0.6
v 2 0.2 -0.6
v -2 0.2 -0.7
v 2 0.2 -0.7
v -2 1.4 0.8
v 2 1.4 0.8
v -2 1.4 0.7
v 2 1.4 0.7
v -2 1.4 -0.7
v 2 1.4 -0.7
v -2 1.4 -0.8
v 2 1.4 -0.8

# faces
f 7/2/1 2/2/1 1/2/1
f 7/1/1 3/1/1 2/1/1
f 8/1/1 3/1/1 7/1/1
f 9/1/1 5/1/1 4/1/1
f 10/2/1 6/2/1 5/2/1
f 10/1/1 5/1/1 9/1/1
f 11/2/1 7/2/1 1/2/1
f 12/2/1 7/2/1 11/2/1
f 13/2/1 6/2/1 10/2/1
f 14/2/1 6/2/1 13/2/1
f 15/2/2 16/2/2 21/2/2
f 16/1/2 17/1/2 21/1/2
f 21/1/2 17/1/2 22/1/2
f 18/1/2 19/1/2 23/1/2
f 19/2/2 20/2/2 24/2/2
f 23/1/2 19/1/2 24/1/2
f 15/2/2 21/2/2 25/2/2
f 25/2/2 21/2/2 26/2/2
f 24/2/2 20/2/2 27/2/2
f 27/2/2 20/2/2 28/2/2
f 31/2/3 30/2/3 29/2/3
f 32/2/3 30/2/3 31/2/3
f 35/1/3 34/1/3 33/1/3
f 36/1/3 34/1/3 35/1/3
f 39/2/3 38/2/3 37/2/3
f 40/2/3 38/2/3 39/2/3
f 41/2/4 42/2/4 43/2/4
f 43/2/4 42/2/4 44/2/4
f 45/1/4 46/1/4 47/1/4
f 47/1/4 46/1/4 48/1/4
f 49/2/4 50/2/4 51/2/4
f 51/2/4 50/2/4 52/2/4
f 55/2/5 54/2/5 53/2/5
f 56/2/5 54/2/5 55/2/5
f 57/1/5 56/1/5 55/1/5
f 58/1/5 56/1/5 57/1/5
f 61/1/5 60/1/5 59/1/5
f 62/1/5 60/1/5 61/1/5
f 63/2/5 62/2/5 61/2/5
f 64/2/5 62/2/5 63/2/5
f 65/1/6 66/1/6 67/1/6
f 67/1/6 66/1/6 68/1/6
f 69/1/6 70/1/6 71/1/6
f 71/1/6 70/1/6 72/1/6
f 73/2/6 74/2/6 75/2/6
f 75/2/6 74/2/6 76/2/6
f 77/2/6 78/2/6 79/2/6
f 79/2/6 78/2/6 80/2/6
