# MagicaVoxel @ Ephtracy

# group
o 

# material
mtllib room.vox.mtl
usemtl palette

# normals
vn -1 0 0
vn 1 0 0
vn 0 0 1
vn 0 0 -1
vn 0 -1 0
vn 0 1 0

# texcoords
vt 0.310547 0.5
vt 0.349609 0.5
vt 0.353516 0.5
vt 0.779297 0.5
vt 0.912109 0.5

# verts
v -2 0 2
v -2 0 -2
v -2 0.1 2
v -2 0.1 0.7
v -2 0.1 -0.7
v -2 0.1 -2
v -2 1.4 2
v -2 1.4 0.7
v -2 1.4 -0.7
v -2 1.4 -2
v 0.7 0.1 2
v 0.7 0.1 1.9
v 0.7 0.1 -1.9
v 0.7 0.1 -2
v 0.7 1.4 2
v 0.7 1.4 1.9
v 0.7 1.4 -1.9
v 0.7 1.4 -2
v 0.8 0.1 1.9
v 0.8 0.1 1.8
v 0.8 0.1 -1.8
v 0.8 0.1 -1.9
v 0.8 0.2 1.9
v 0.8 0.2 1.8
v 0.8 0.2 -1.8
v 0.8 0.2 -1.9
v 1.6 1.3 1.9
v 1.6 1.3 1.8
v 1.6 1.3 -1.8
v 1.6 1.3 -1.9
v 1.6 1.4 1.9
v 1.6 1.4 1.8
v 1.6 1.4 -1.8
v 1.6 1.4 -1.9
v 1.7 1.3 1.8
v 1.7 1.3 1.7
v 1.7 1.3 -1.7
v 1.7 1.3 -1.8
v 1.7 1.4 1.8
v 1.7 1.4 1.7
v 1.7 1.4 -1.7
v 1.7 1.4 -1.8
v 1.8 0.1 1.8
v 1.8 0.1 0.8
v 1.8 0.1 -0.8
v 1.8 0.1 -1.8
v 1.8 0.2 1.9
v 1.8 0.2 1.8
v 1.8 0.2 0.8
v 1.8 0.2 -0.8
v 1.8 0.2 -1.8
v 1.8 0.2 -1.9
v 1.8 1.3 1.9
v 1.8 1.3 1.8
v 1.8 1.3 1.7
v 1.8 1.3 1.6
v 1.8 1.3 -1.6
v 1.8 1.3 -1.7
v 1.8 1.3 -1.8
v 1.8 1.3 -1.9
v 1.8 1.4 1.7
v 1.8 1.4 1.6
v 1.8 1.4 -1.6
v 1.8 1.4 -1.7
v 1.9 0.1 0.8
v 1.9 0.1 0.7
v 1.9 0.1 -0.7
v 1.9 0.1 -0.8
v 1.9 0.2 1.8
v 1.9 0.2 0.8
v 1.9 0.2 -0.8
v 1.9 0.2 -1.8
v 1.9 1.3 1.8
v 1.9 1.3 1.6
v 1.9 1.3 -1.6
v 1.9 1.3 -1.8
v 1.9 1.4 1.6
v 1.9 1.4 0.7
v 1.9 1.4 -0.7
v 1.9 1.4 -1.6
v -1.9 0.1 0.8
v -1.9 0.1 0.7
v -1.9 0.1 -0.7
v -1.9 0.1 -0.8
v -1.9 0.2 1.8
v -1.9 0.2 0.8
v -1.9 0.2 -0.8
v -1.9 0.2 -1.8
v -1.9 1.3 1.8
v -1.9 1.3 1.6
v -1.9 1.3 -1.6
v -1.9 1.3 -1.8
v -1.9 1.4 1.6
v -1.9 1.4 0.7
v -1.9 1.4 -0.7
v -1.9 1.4 -1.6
v -1.8 0.1 1.8
v -1.8 0.1 0.8
v -1.8 0.1 -0.8
v -1.8 0.1 -1.8
v -1.8 0.2 1.9
v -1.8 0.2 1.8
v -1.8 0.2 0.8
v -1.8 0.2 -0.8
v -1.8 0.2 -1.8
v -1.8 0.2 -1.9
v -1.8 1.3 1.9
v -1.8 1.3 1.8
v -1.8 1.3 1.7
v -1.8 1.3 1.6
v -1.8 1.3 -1.6
v -1.8 1.3 -1.8
v -1.8 1.3 -1.9
v -1.8 1.4 1.7
v -1.8 1.4 1.6
v -1.8 1.4 -1.6
v -1.8 1.4 -1.8
v -1.7 1.3 1.8
v -1.7 1.3 1.7
v -1.7 1.4 1.8
v -1.7 1.4 1.7
v -1.6 1.3 1.9
v -1.6 1.3 1.8
v -1.6 1.3 -1.8
v -1.6 1.3 -1.9
v -1.6 1.4 1.9
v -1.6 1.4 1.8
v -1.6 1.4 -1.8
v -1.6 1.4 -1.9
v -0.8 0.1 -1.8
v -0.8 0.1 -1.9
v -0.8 0.2 -1.8
v -0.8 0.2 -1.9
v -0.7 0.1 2
v -0.7 0.1 1.9
v -0.7 0.1 1.8
v -0.7 0.1 -1.9
v -0.7 0.1 -2
v -0.7 0.2 1.9
v -0.7 0.2 1.8
v -0.7 1.4 2
v -0.7 1.4 1.9
v -0.7 1.4 -1.9
v -0.7 1.4 -2
v 2 0 2
v 2 0 -2
v 2 0.1 2
v 2 0.1 0.7
v 2 0.1 -0.7
v 2 0.1 -2
v 2 1.4 2
v 2 1.4 0.7
v 2 1.4 -0.7
v 2 1.4 -2
v -2 0 2
v -2 0.1 2
v -2 1.4 2
v -0.7 0.1 2
v -0.7 1.4 2
v 0.7 0.1 2
v 0.7 1.4 2
v 2 0 2
v 2 0.1 2
v 2 1.4 2
v -2 0.1 -0.7
v -2 1.4 -0.7
v -1.9 0.1 -0.7
v -1.9 1.4 -0.7
v 1.9 0.1 -0.7
v 1.9 1.4 -0.7
v 2 0.1 -0.7
v 2 1.4 -0.7
v -1.9 0.1 -0.8
v -1.9 0.2 -0.8
v -1.8 0.1 -0.8
v -1.8 0.2 -0.8
v 1.8 0.1 -0.8
v 1.8 0.2 -0.8
v 1.9 0.1 -0.8
v 1.9 0.2 -0.8
v -1.9 1.3 -1.6
v -1.9 1.4 -1.6
v -1.8 1.3 -1.6
v -1.8 1.4 -1.6
v 1.8 1.3 -1.6
v 1.8 1.4 -1.6
v 1.9 1.3 -1.6
v 1.9 1.4 -1.6
v 1.7 1.3 -1.7
v 1.7 1.4 -1.7
v 1.8 1.3 -1.7
v 1.8 1.4 -1.7
v -1.9 0.2 -1.8
v -1.9 1.3 -1.8
v -1.8 0.1 -1.8
v -1.8 0.2 -1.8
v -1.8 1.3 -1.8
v -1.8 1.4 -1.8
v -1.6 1.3 -1.8
v -1.6 1.4 -1.8
v -0.8 0.1 -1.8
v -0.8 0.2 -1.8
v 0.8 0.1 -1.8
v 0.8 0.2 -1.8
v 1.6 1.3 -1.8
v 1.6 1.4 -1.8
v 1.7 1.3 -1.8
v 1.7 1.4 -1.8
v 1.8 0.1 -1.8
v 1.8 0.2 -1.8
v 1.8 1.3 -1.8
v 1.9 0.2 -1.8
v 1.9 1.3 -1.8
v -1.8 0.2 -1.9
v -1.8 1.3 -1.9
v -1.6 1.3 -1.9
v -1.6 1.4 -1.9
v -0.8 0.1 -1.9
v -0.8 0.2 -1.9
v -0.7 0.1 -1.9
v -0.7 1.4 -1.9
v 0.7 0.1 -1.9
v 0.7 1.4 -1.9
v 0.8 0.1 -1.9
v 0.8 0.2 -1.9
v 1.6 1.3 -1.9
v 1.6 1.4 -1.9
v 1.8 0.2 -1.9
v 1.8 1.3 -1.9
v -1.8 0.2 1.9
v -1.8 1.3 1.9
v -1.6 1.3 1.9
v -1.6 1.4 1.9
v -0.7 0.2 1.9
v -0.7 1.4 1.9
v 0.7 0.1 1.9
v 0.7 1.4 1.9
v 0.8 0.1 1.9
v 0.8 0.2 1.9
v 1.6 1.3 1.9
v 1.6 1.4 1.9
v 1.8 0.2 1.9
v 1.8 1.3 1.9
v -1.9 0.2 1.8
v -1.9 1.3 1.8
v -1.8 0.1 1.8
v -1.8 0.2 1.8
v -1.8 1.3 1.8
v -1.7 1.3 1.8
v -1.7 1.4 1.8
v -1.6 1.3 1.8
v -1.6 1.4 1.8
v -0.7 0.1 1.8
v -0.7 0.2 1.8
v 0.8 0.1 1.8
v 0.8 0.2 1.8
v 1.6 1.3 1.8
v 1.6 1.4 1.8
v 1.7 1.3 1.8
v 1.7 1.4 1.8
v 1.8 0.1 1.8
v 1.8 0.2 1.8
v 1.8 1.3 1.8
v 1.9 0.2 1.8
v 1.9 1.3 1.8
v -1.8 1.3 1.7
v -1.8 1.4 1.7
v -1.7 1.3 1.7
v -1.7 1.4 1.7
v 1.7 1.3 1.7
v 1.7 1.4 1.7
v 1.8 1.3 1.7
v 1.8 1.4 1.7
v -1.9 1.3 1.6
v -1.9 1.4 1.6
v -1.8 1.3 1.6
v -1.8 1.4 1.6
v 1.8 1.3 1.6
v 1.8 1.4 1.6
v 1.9 1.3 1.6
v 1.9 1.4 1.6
v -1.9 0.1 0.8
v -1.9 0.2 0.8
v -1.8 0.1 0.8
v -1.8 0.2 0.8
v 1.8 0.1 0.8
v 1.8 0.2 0.8
v 1.9 0.1 0.8
v 1.9 0.2 0.8
v -2 0.1 0.7
v -2 1.4 0.7
v -1.9 0.1 0.7
v -1.9 1.4 0.7
v 1.9 0.1 0.7
v 1.9 1.4 0.7
v 2 0.1 0.7
v 2 1.4 0.7
v -2 0 -2
v -2 0.1 -2
v -2 1.4 -2
v -0.7 0.1 -2
v -0.7 1.4 -2
v 0.7 0.1 -2
v 0.7 1.4 -2
v 2 0 -2
v 2 0.1 -2
v 2 1.4 -2
v -2 0 2
v 2 0 2
v -2 0 -2
v 2 0 -2
v -1.8 1.3 1.9
v -1.6 1.3 1.9
v 1.6 1.3 1.9
v 1.8 1.3 1.9
v -1.9 1.3 1.8
v -1.8 1.3 1.8
v -1.7 1.3 1.8
v -1.6 1.3 1.8
v 1.6 1.3 1.8
v 1.7 1.3 1.8
v 1.8 1.3 1.8
v 1.9 1.3 1.8
v -1.8 1.3 1.7
v -1.7 1.3 1.7
v 1.7 1.3 1.7
v 1.8 1.3 1.7
v -1.9 1.3 1.6
v -1.8 1.3 1.6
v 1.8 1.3 1.6
v 1.9 1.3 1.6
v -1.9 1.3 -1.6
v -1.8 1.3 -1.6
v 1.8 1.3 -1.6
v 1.9 1.3 -1.6
v 1.7 1.3 -1.7
v 1.8 1.3 -1.7
v -1.9 1.3 -1.8
v -1.8 1.3 -1.8
v -1.6 1.3 -1.8
v 1.6 1.3 -1.8
v 1.7 1.3 -1.8
v 1.8 1.3 -1.8
v 1.9 1.3 -1.8
v -1.8 1.3 -1.9
v -1.6 1.3 -1.9
v 1.6 1.3 -1.9
v 1.8 1.3 -1.9
v -0.7 0.1 2
v 0.7 0.1 2
v -0.7 0.1 1.9
v 0.7 0.1 1.9
v 0.8 0.1 1.9
v -1.8 0.1 1.8
v -0.7 0.1 1.8
v 0.8 0.1 1.8
v 1.8 0.1 1.8
v -1.9 0.1 0.8
v -1.8 0.1 0.8
v 1.8 0.1 0.8
v 1.9 0.1 0.8
v -2 0.1 0.7
v -1.9 0.1 0.7
v 1.9 0.1 0.7
v 2 0.1 0.7
v -2 0.1 -0.7
v -1.9 0.1 -0.7
v 1.9 0.1 -0.7
v 2 0.1 -0.7
v -1.9 0.1 -0.8
v -1.8 0.1 -0.8
v 1.8 0.1 -0.8
v 1.9 0.1 -0.8
v -1.8 0.1 -1.8
v -0.8 0.1 -1.8
v 0.8 0.1 -1.8
v 1.8 0.1 -1.8
v -0.8 0.1 -1.9
v -0.7 0.1 -1.9
v 0.7 0.1 -1.9
v 0.8 0.1 -1.9
v -0.7 0.1 -2
v 0.7 0.1 -2
v -1.8 0.2 1.9
v -0.7 0.2 1.9
v 0.8 0.2 1.9
v 1.8 0.2 1.9
v -1.9 0.2 1.8
v -1.8 0.2 1.8
v -0.7 0.2 1.8
v 0.8 0.2 1.8
v 1.8 0.2 1.8
v 1.9 0.2 1.8
v -1.9 0.2 0.8
v -1.8 0.2 0.8
v 1.8 0.2 0.8
v 1.9 0.2 0.8
v -1.9 0.2 -0.8
v -1.8 0.2 -0.8
v 1.8 0.2 -0.8
v 1.9 0.2 -0.8
v -1.9 0.2 -1.8
v -1.8 0.2 -1.8
v -0.8 0.2 -1.8
v 0.8 0.2 -1.8
v 1.8 0.2 -1.8
v 1.9 0.2 -1.8
v -1.8 0.2 -1.9
v -0.8 0.2 -1.9
v 0.8 0.2 -1.9
v 1.8 0.2 -1.9
v -2 1.4 2
v -0.7 1.4 2
v 0.7 1.4 2
v 2 1.4 2
v -1.9 1.4 1.9
v -1.6 1.4 1.9
v -0.7 1.4 1.9
v 0.7 1.4 1.9
v 1.6 1.4 1.9
v 1.9 1.4 1.9
v -1.7 1.4 1.8
v -1.6 1.4 1.8
v 1.6 1.4 1.8
v 1.7 1.4 1.8
v -1.8 1.4 1.7
v -1.7 1.4 1.7
v 1.7 1.4 1.7
v 1.8 1.4 1.7
v -1.9 1.4 1.6
v -1.8 1.4 1.6
v 1.8 1.4 1.6
v 1.9 1.4 1.6
v -2 1.4 0.7
v -1.9 1.4 0.7
v 1.9 1.4 0.7
v 2 1.4 0.7
v -2 1.4 -0.7
v -1.9 1.4 -0.7
v 1.9 1.4 -0.7
v 2 1.4 -0.7
v -1.9 1.4 -1.6
v -1.8 1.4 -1.6
v 1.8 1.4 -1.6
v 1.9 1.4 -1.6
v 1.7 1.4 -1.7
v 1.8 1.4 -1.7
v -1.8 1.4 -1.8
v -1.6 1.4 -1.8
v 1.6 1.4 -1.8
v 1.7 1.4 -1.8
v -1.9 1.4 -1.9
v -1.6 1.4 -1.9
v -0.7 1.4 -1.9
v 0.7 1.4 -1.9
v 1.6 1.4 -1.9
v 1.9 1.4 -1.9
v -2 1.4 -2
v -0.7 1.4 -2
v 0.7 1.4 -2
v 2 1.4 -2

# faces
f 3/5/1 2/5/1 1/5/1
f 4/5/1 2/5/1 3/5/1
f 5/5/1 2/5/1 4/5/1
f 6/5/1 2/5/1 5/5/1
f 7/4/1 4/4/1 3/4/1
f 8/4/1 4/4/1 7/4/1
f 9/4/1 6/4/1 5/4/1
f 10/4/1 6/4/1 9/4/1
f 15/4/1 12/4/1 11/4/1
f 16/4/1 12/4/1 15/4/1
f 17/4/1 14/4/1 13/4/1
f 18/4/1 14/4/1 17/4/1
f 23/1/1 20/1/1 19/1/1
f 24/1/1 20/1/1 23/1/1
f 25/1/1 22/1/1 21/1/1
f 26/1/1 22/1/1 25/1/1
f 31/2/1 28/2/1 27/2/1
f 32/2/1 28/2/1 31/2/1
f 33/2/1 30/2/1 29/2/1
f 34/2/1 30/2/1 33/2/1
f 39/2/1 36/2/1 35/2/1
f 40/2/1 36/2/1 39/2/1
f 41/2/1 38/2/1 37/2/1
f 42/2/1 38/2/1 41/2/1
f 48/1/1 44/1/1 43/1/1
f 49/1/1 44/1/1 48/1/1
f 50/1/1 46/1/1 45/1/1
f 51/1/1 46/1/1 50/1/1
f 53/3/1 48/3/1 47/3/1
f 54/3/1 48/3/1 53/3/1
f 59/3/1 52/3/1 51/3/1
f 60/3/1 52/3/1 59/3/1
f 61/2/1 56/2/1 55/2/1
f 62/2/1 56/2/1 61/2/1
f 63/2/1 58/2/1 57/2/1
f 64/2/1 58/2/1 63/2/1
f 70/4/1 66/4/1 65/4/1
f 71/4/1 68/4/1 67/4/1
f 73/4/1 70/4/1 69/4/1
f 74/4/1 70/4/1 73/4/1
f 75/4/1 72/4/1 71/4/1
f 76/4/1 72/4/1 75/4/1
f 77/4/1 70/4/1 74/4/1
f 78/4/1 66/4/1 70/4/1
f 78/4/1 70/4/1 77/4/1
f 79/4/1 71/4/1 67/4/1
f 79/4/1 75/4/1 71/4/1
f 80/4/1 75/4/1 79/4/1
f 81/4/2 82/4/2 86/4/2
f 83/4/2 84/4/2 87/4/2
f 85/4/2 86/4/2 89/4/2
f 89/4/2 86/4/2 90/4/2
f 87/4/2 88/4/2 91/4/2
f 91/4/2 88/4/2 92/4/2
f 90/4/2 86/4/2 93/4/2
f 86/4/2 82/4/2 94/4/2
f 93/4/2 86/4/2 94/4/2
f 83/4/2 87/4/2 95/4/2
f 87/4/2 91/4/2 95/4/2
f 95/4/2 91/4/2 96/4/2
f 97/1/2 98/1/2 102/1/2
f 102/1/2 98/1/2 103/1/2
f 99/1/2 100/1/2 104/1/2
f 104/1/2 100/1/2 105/1/2
f 101/3/2 102/3/2 107/3/2
f 107/3/2 102/3/2 108/3/2
f 105/3/2 106/3/2 112/3/2
f 112/3/2 106/3/2 113/3/2
f 109/2/2 110/2/2 114/2/2
f 114/2/2 110/2/2 115/2/2
f 111/2/2 112/2/2 116/2/2
f 116/2/2 112/2/2 117/2/2
f 118/2/2 119/2/2 120/2/2
f 120/2/2 119/2/2 121/2/2
f 122/2/2 123/2/2 126/2/2
f 126/2/2 123/2/2 127/2/2
f 124/2/2 125/2/2 128/2/2
f 128/2/2 125/2/2 129/2/2
f 130/1/2 131/1/2 132/1/2
f 132/1/2 131/1/2 133/1/2
f 134/4/2 135/4/2 139/4/2
f 135/1/2 136/1/2 139/1/2
f 139/1/2 136/1/2 140/1/2
f 134/4/2 139/4/2 141/4/2
f 141/4/2 139/4/2 142/4/2
f 137/4/2 138/4/2 143/4/2
f 143/4/2 138/4/2 144/4/2
f 145/5/2 146/5/2 147/5/2
f 147/5/2 146/5/2 148/5/2
f 148/5/2 146/5/2 149/5/2
f 149/5/2 146/5/2 150/5/2
f 147/4/2 148/4/2 151/4/2
f 151/4/2 148/4/2 152/4/2
f 149/4/2 150/4/2 153/4/2
f 153/4/2 150/4/2 154/4/2
f 158/5/3 156/5/3 155/5/3
f 158/4/3 157/4/3 156/4/3
f 159/4/3 157/4/3 158/4/3
f 160/5/3 158/5/3 155/5/3
f 162/5/3 160/5/3 155/5/3
f 163/4/3 161/4/3 160/4/3
f 163/5/3 160/5/3 162/5/3
f 164/4/3 161/4/3 163/4/3
f 167/4/3 166/4/3 165/4/3
f 168/4/3 166/4/3 167/4/3
f 171/4/3 170/4/3 169/4/3
f 172/4/3 170/4/3 171/4/3
f 175/1/3 174/1/3 173/1/3
f 176/1/3 174/1/3 175/1/3
f 179/1/3 178/1/3 177/1/3
f 180/1/3 178/1/3 179/1/3
f 183/2/3 182/2/3 181/2/3
f 184/2/3 182/2/3 183/2/3
f 187/2/3 186/2/3 185/2/3
f 188/2/3 186/2/3 187/2/3
f 191/2/3 190/2/3 189/2/3
f 192/2/3 190/2/3 191/2/3
f 196/3/3 194/3/3 193/3/3
f 197/3/3 194/3/3 196/3/3
f 199/2/3 198/2/3 197/2/3
f 200/2/3 198/2/3 199/2/3
f 201/1/3 196/1/3 195/1/3
f 202/1/3 196/1/3 201/1/3
f 207/2/3 206/2/3 205/2/3
f 208/2/3 206/2/3 207/2/3
f 209/1/3 204/1/3 203/1/3
f 210/1/3 204/1/3 209/1/3
f 212/3/3 211/3/3 210/3/3
f 213/3/3 211/3/3 212/3/3
f 216/4/3 215/4/3 214/4/3
f 219/4/3 216/4/3 214/4/3
f 219/4/3 217/4/3 216/4/3
f 220/4/3 219/4/3 218/4/3
f 221/4/3 217/4/3 219/4/3
f 221/4/3 219/4/3 220/4/3
f 224/4/3 223/4/3 222/4/3
f 225/4/3 223/4/3 224/4/3
f 226/4/3 223/4/3 225/4/3
f 227/4/3 223/4/3 226/4/3
f 228/4/3 226/4/3 225/4/3
f 229/4/3 226/4/3 228/4/3
f 230/4/4 231/4/4 232/4/4
f 230/4/4 232/4/4 234/4/4
f 232/4/4 233/4/4 234/4/4
f 234/4/4 233/4/4 235/4/4
f 236/4/4 237/4/4 238/4/4
f 238/4/4 237/4/4 239/4/4
f 239/4/4 237/4/4 240/4/4
f 240/4/4 237/4/4 241/4/4
f 239/4/4 240/4/4 242/4/4
f 242/4/4 240/4/4 243/4/4
f 244/3/4 245/3/4 247/3/4
f 247/3/4 245/3/4 248/3/4
f 249/2/4 250/2/4 251/2/4
f 251/2/4 250/2/4 252/2/4
f 246/1/4 247/1/4 253/1/4
f 253/1/4 247/1/4 254/1/4
f 257/2/4 258/2/4 259/2/4
f 259/2/4 258/2/4 260/2/4
f 255/1/4 256/1/4 261/1/4
f 261/1/4 256/1/4 262/1/4
f 262/3/4 263/3/4 264/3/4
f 264/3/4 263/3/4 265/3/4
f 266/2/4 267/2/4 268/2/4
f 268/2/4 267/2/4 269/2/4
f 270/2/4 271/2/4 272/2/4
f 272/2/4 271/2/4 273/2/4
f 274/2/4 275/2/4 276/2/4
f 276/2/4 275/2/4 277/2/4
f 278/2/4 279/2/4 280/2/4
f 280/2/4 279/2/4 281/2/4
f 282/1/4 283/1/4 284/1/4
f 284/1/4 283/1/4 285/1/4
f 286/1/4 287/1/4 288/1/4
f 288/1/4 287/1/4 289/1/4
f 290/4/4 291/4/4 292/4/4
f 292/4/4 291/4/4 293/4/4
f 294/4/4 295/4/4 296/4/4
f 296/4/4 295/4/4 297/4/4
f 298/5/4 299/5/4 301/5/4
f 299/4/4 300/4/4 301/4/4
f 301/4/4 300/4/4 302/4/4
f 298/5/4 301/5/4 303/5/4
f 298/5/4 303/5/4 305/5/4
f 303/4/4 304/4/4 306/4/4
f 305/5/4 303/5/4 306/5/4
f 306/4/4 304/4/4 307/4/4
f 310/5/5 309/5/5 308/5/5
f 311/5/5 309/5/5 310/5/5
f 317/2/5 313/2/5 312/2/5
f 318/2/5 313/2/5 317/2/5
f 319/2/5 313/2/5 318/2/5
f 320/2/5 315/2/5 314/2/5
f 321/2/5 315/2/5 320/2/5
f 322/2/5 315/2/5 321/2/5
f 324/2/5 317/2/5 316/2/5
f 324/2/5 318/2/5 317/2/5
f 325/2/5 318/2/5 324/2/5
f 326/2/5 323/2/5 322/2/5
f 326/2/5 322/2/5 321/2/5
f 327/2/5 323/2/5 326/2/5
f 328/2/5 324/2/5 316/2/5
f 329/2/5 324/2/5 328/2/5
f 330/2/5 323/2/5 327/2/5
f 331/2/5 323/2/5 330/2/5
f 337/2/5 335/2/5 334/2/5
f 338/2/5 333/2/5 332/2/5
f 339/2/5 333/2/5 338/2/5
f 342/2/5 337/2/5 336/2/5
f 343/2/5 335/2/5 337/2/5
f 343/2/5 337/2/5 342/2/5
f 344/2/5 335/2/5 343/2/5
f 345/2/5 340/2/5 339/2/5
f 346/2/5 340/2/5 345/2/5
f 347/2/5 342/2/5 341/2/5
f 347/2/5 343/2/5 342/2/5
f 348/2/5 343/2/5 347/2/5
f 349/5/6 350/5/6 351/5/6
f 351/5/6 350/5/6 352/5/6
f 351/5/6 352/5/6 355/5/6
f 352/5/6 353/5/6 355/5/6
f 355/5/6 353/5/6 356/5/6
f 354/5/6 355/5/6 359/5/6
f 356/5/6 357/5/6 359/5/6
f 355/5/6 356/5/6 359/5/6
f 359/5/6 357/5/6 360/5/6
f 358/5/6 359/5/6 363/5/6
f 360/5/6 361/5/6 363/5/6
f 359/5/6 360/5/6 363/5/6
f 363/5/6 361/5/6 364/5/6
f 362/5/6 363/5/6 366/5/6
f 364/5/6 365/5/6 366/5/6
f 363/5/6 364/5/6 366/5/6
f 366/5/6 365/5/6 367/5/6
f 367/5/6 365/5/6 368/5/6
f 368/5/6 365/5/6 369/5/6
f 367/5/6 368/5/6 370/5/6
f 370/5/6 368/5/6 371/5/6
f 371/5/6 368/5/6 372/5/6
f 372/5/6 368/5/6 373/5/6
f 371/5/6 372/5/6 374/5/6
f 374/5/6 372/5/6 375/5/6
f 375/5/6 372/5/6 376/5/6
f 376/5/6 372/5/6 377/5/6
f 375/5/6 376/5/6 378/5/6
f 378/5/6 376/5/6 379/5/6
f 379/5/6 376/5/6 380/5/6
f 380/5/6 376/5/6 381/5/6
f 379/5/6 380/5/6 382/5/6
f 382/5/6 380/5/6 383/5/6
f 384/1/6 385/1/6 389/1/6
f 389/1/6 385/1/6 390/1/6
f 386/1/6 387/1/6 391/1/6
f 391/1/6 387/1/6 392/1/6
f 388/1/6 389/1/6 394/1/6
f 394/1/6 389/1/6 395/1/6
f 392/1/6 393/1/6 396/1/6
f 396/1/6 393/1/6 397/1/6
f 398/1/6 399/1/6 402/1/6
f 402/1/6 399/1/6 403/1/6
f 400/1/6 401/1/6 406/1/6
f 406/1/6 401/1/6 407/1/6
f 403/1/6 404/1/6 408/1/6
f 408/1/6 404/1/6 409/1/6
f 405/1/6 406/1/6 410/1/6
f 410/1/6 406/1/6 411/1/6
f 412/4/6 413/4/6 416/4/6
f 416/4/6 413/4/6 417/4/6
f 417/4/6 413/4/6 418/4/6
f 414/4/6 415/4/6 419/4/6
f 419/4/6 415/4/6 420/4/6
f 420/4/6 415/4/6 421/4/6
f 416/2/6 417/2/6 422/2/6
f 422/2/6 417/2/6 423/2/6
f 420/2/6 421/2/6 424/2/6
f 424/2/6 421/2/6 425/2/6
f 416/2/6 422/2/6 426/2/6
f 426/2/6 422/2/6 427/2/6
f 425/2/6 421/2/6 428/2/6
f 428/2/6 421/2/6 429/2/6
f 412/4/6 416/4/6 430/4/6
f 416/2/6 426/2/6 430/2/6
f 430/2/6 426/2/6 431/2/6
f 429/2/6 421/2/6 432/2/6
f 421/4/6 415/4/6 433/4/6
f 432/2/6 421/2/6 433/2/6
f 412/4/6 430/4/6 434/4/6
f 434/4/6 430/4/6 435/4/6
f 433/4/6 415/4/6 436/4/6
f 436/4/6 415/4/6 437/4/6
f 438/4/6 439/4/6 442/4/6
f 440/4/6 441/4/6 445/4/6
f 444/2/6 445/2/6 447/2/6
f 442/2/6 443/2/6 448/2/6
f 446/2/6 447/2/6 451/2/6
f 448/2/6 449/2/6 452/2/6
f 438/4/6 442/4/6 452/4/6
f 442/2/6 448/2/6 452/2/6
f 452/2/6 449/2/6 453/2/6
f 450/2/6 451/2/6 456/2/6
f 451/2/6 447/2/6 457/2/6
f 445/4/6 441/4/6 457/4/6
f 456/2/6 451/2/6 457/2/6
f 447/2/6 445/2/6 457/2/6
f 453/4/6 454/4/6 458/4/6
f 452/4/6 453/4/6 458/4/6
f 438/4/6 452/4/6 458/4/6
f 458/4/6 454/4/6 459/4/6
f 455/4/6 456/4/6 460/4/6
f 456/4/6 457/4/6 460/4/6
f 457/4/6 441/4/6 461/4/6
f 460/4/6 457/4/6 461/4/6
