# MagicaVoxel @ Ephtracy

# group
o 

# material
mtllib way.vox.mtl
usemtl palette

# normals
vn -1 0 0
vn 1 0 0
vn 0 0 1
vn 0 0 -1
vn 0 -1 0
vn 0 1 0

# texcoords
vt 0.310547 0.5
vt 0.779297 0.5
vt 0.962891 0.5

# verts
v -2 0 0.8
v -2 0 -0.8
v -2 0.1 0.8
v -2 0.1 0.7
v -2 0.1 0.6
v -2 0.1 -0.6
v -2 0.1 -0.7
v -2 0.1 -0.8
v -2 0.2 0.7
v -2 0.2 0.6
v -2 0.2 -0.6
v -2 0.2 -0.7
v -2 1.4 0.8
v -2 1.4 0.7
v -2 1.4 -0.7
v -2 1.4 -0.8
v 2 0 0.8
v 2 0 -0.8
v 2 0.1 0.8
v 2 0.1 0.7
v 2 0.1 0.6
v 2 0.1 -0.6
v 2 0.1 -0.7
v 2 0.1 -0.8
v 2 0.2 0.7
v 2 0.2 0.6
v 2 0.2 -0.6
v 2 0.2 -0.7
v 2 1.4 0.8
v 2 1.4 0.7
v 2 1.4 -0.7
v 2 1.4 -0.8
v -2 0 0.8
v -2 0.1 0.8
v -2 1.4 0.8
v 2 0 0.8
v 2 0.1 0.8
v 2 1.4 0.8
v -2 0.1 -0.6
v -2 0.2 -0.6
v 2 0.1 -0.6
v 2 0.2 -0.6
v -2 0.2 -0.7
v -2 1.4 -0.7
v 2 0.2 -0.7
v 2 1.4 -0.7
v -2 0.2 0.7
v -2 1.4 0.7
v 2 0.2 0.7
v 2 1.4 0.7
v -2 0.1 0.6
v -2 0.2 0.6
v 2 0.1 0.6
v 2 0.2 0.6
v -2 0 -0.8
v -2 0.1 -0.8
v -2 1.4 -0.8
v 2 0 -0.8
v 2 0.1 -0.8
v 2 1.4 -0.8
v -2 0 0.8
v 2 0 0.8
v -2 0 -0.8
v 2 0 -0.8
v -2 0.1 0.6
v 2 0.1 0.6
v -2 0.1 -0.6
v 2 0.1 -0.6
v -2 0.2 0.7
v 2 0.2 0.7
v -2 0.2 0.6
v 2 0.2 0.6
v -2 0.2 -0.6
v 2 0.2 -0.6
v -2 0.2 -0.7
v 2 0.2 -0.7
v -2 1.4 0.8
v 2 1.4 0.8
v -2 1.4 0.7
v 2 1.4 0.7
v -2 1.4 -0.7
v 2 1.4 -0.7
v -2 1.4 -0.8
v 2 1.4 -0.8

# faces
f 3/3/1 2/3/1 1/3/1
f 4/3/1 2/3/1 3/3/1
f 5/3/1 2/3/1 4/3/1
f 6/3/1 2/3/1 5/3/1
f 7/3/1 2/3/1 6/3/1
f 8/3/1 2/3/1 7/3/1
f 9/2/1 4/2/1 3/2/1
f 9/1/1 5/1/1 4/1/1
f 10/1/1 5/1/1 9/1/1
f 11/1/1 7/1/1 6/1/1
f 12/2/1 8/2/1 7/2/1
f 12/1/1 7/1/1 11/1/1
f 13/2/1 9/2/1 3/2/1
f 14/2/1 9/2/1 13/2/1
f 15/2/1 8/2/1 12/2/1
f 16/2/1 8/2/1 15/2/1
f 17/3/2 18/3/2 19/3/2
f 19/3/2 18/3/2 20/3/2
f 20/3/2 18/3/2 21/3/2
f 21/3/2 18/3/2 22/3/2
f 22/3/2 18/3/2 23/3/2
f 23/3/2 18/3/2 24/3/2
f 19/2/2 20/2/2 25/2/2
f 20/1/2 21/1/2 25/1/2
f 25/1/2 21/1/2 26/1/2
f 22/1/2 23/1/2 27/1/2
f 23/2/2 24/2/2 28/2/2
f 27/1/2 23/1/2 28/1/2
f 19/2/2 25/2/2 29/2/2
f 29/2/2 25/2/2 30/2/2
f 28/2/2 24/2/2 31/2/2
f 31/2/2 24/2/2 32/2/2
f 36/3/3 34/3/3 33/3/3
f 37/2/3 35/2/3 34/2/3
f 37/3/3 34/3/3 36/3/3
f 38/2/3 35/2/3 37/2/3
f 41/1/3 40/1/3 39/1/3
f 42/1/3 40/1/3 41/1/3
f 45/2/3 44/2/3 43/2/3
f 46/2/3 44/2/3 45/2/3
f 47/2/4 48/2/4 49/2/4
f 49/2/4 48/2/4 50/2/4
f 51/1/4 52/1/4 53/1/4
f 53/1/4 52/1/4 54/1/4
f 55/3/4 56/3/4 58/3/4
f 56/2/4 57/2/4 59/2/4
f 58/3/4 56/3/4 59/3/4
f 59/2/4 57/2/4 60/2/4
f 63/3/5 62/3/5 61/3/5
f 64/3/5 62/3/5 63/3/5
f 65/3/6 66/3/6 67/3/6
f 67/3/6 66/3/6 68/3/6
f 69/1/6 70/1/6 71/1/6
f 71/1/6 70/1/6 72/1/6
f 73/1/6 74/1/6 75/1/6
f 75/1/6 74/1/6 76/1/6
f 77/2/6 78/2/6 79/2/6
f 79/2/6 78/2/6 80/2/6
f 81/2/6 82/2/6 83/2/6
f 83/2/6 82/2/6 84/2/6
