# MagicaVoxel @ Ephtracy

# group
g carpet_side

# material
mtllib carpet_side.mtl
usemtl palette

# normals
vn -1 0 0
vn 1 0 0
vn 0 0 1
vn 0 0 -1
vn 0 -1 0
vn 0 1 0

# texcoords
vt 0.505859 0.5
vt 0.509766 0.5
vt 0.513672 0.5
vt 0.572266 0.5
vt 0.576172 0.5

# verts
v -10 0 10
v -10 0 9
v -10 0 8
v -10 0 7
v -10 0 6
v -10 0 5
v -10 0 4
v -10 0 3
v -10 0 2
v -10 0 1
v -10 0 -0
v -10 0 -1
v -10 0 -2
v -10 0 -3
v -10 0 -4
v -10 0 -5
v -10 0 -6
v -10 0 -7
v -10 0 -8
v -10 0 -9
v -10 0 -10
v -10 1 10
v -10 1 9
v -10 1 8
v -10 1 7
v -10 1 6
v -10 1 5
v -10 1 4
v -10 1 3
v -10 1 2
v -10 1 1
v -10 1 -0
v -10 1 -1
v -10 1 -2
v -10 1 -3
v -10 1 -4
v -10 1 -5
v -10 1 -6
v -10 1 -7
v -10 1 -8
v -10 1 -9
v -10 1 -10
v 10 0 10
v 10 0 -10
v 10 1 10
v 10 1 -10
v -10 0 10
v -10 1 10
v -9 0 10
v -9 1 10
v -8 0 10
v -8 1 10
v -7 0 10
v -7 1 10
v 10 0 10
v 10 1 10
v -10 0 -10
v -10 1 -10
v -9 0 -10
v -9 1 -10
v -8 0 -10
v -8 1 -10
v -7 0 -10
v -7 1 -10
v 10 0 -10
v 10 1 -10
v -10 0 10
v -9 0 10
v -8 0 10
v -7 0 10
v 10 0 10
v -10 0 9
v -9 0 9
v -10 0 8
v -9 0 8
v -10 0 7
v -9 0 7
v -10 0 6
v -9 0 6
v -10 0 5
v -9 0 5
v -10 0 4
v -9 0 4
v -10 0 3
v -9 0 3
v -10 0 2
v -9 0 2
v -10 0 1
v -9 0 1
v -10 0 -0
v -9 0 -0
v -10 0 -1
v -9 0 -1
v -10 0 -2
v -9 0 -2
v -10 0 -3
v -9 0 -3
v -10 0 -4
v -9 0 -4
v -10 0 -5
v -9 0 -5
v -10 0 -6
v -9 0 -6
v -10 0 -7
v -9 0 -7
v -10 0 -8
v -9 0 -8
v -10 0 -9
v -9 0 -9
v -10 0 -10
v -9 0 -10
v -8 0 -10
v -7 0 -10
v 10 0 -10
v -10 1 10
v -9 1 10
v -8 1 10
v -7 1 10
v 10 1 10
v -10 1 9
v -9 1 9
v -10 1 8
v -9 1 8
v -10 1 7
v -9 1 7
v -10 1 6
v -9 1 6
v -10 1 5
v -9 1 5
v -10 1 4
v -9 1 4
v -10 1 3
v -9 1 3
v -10 1 2
v -9 1 2
v -10 1 1
v -9 1 1
v -10 1 -0
v -9 1 -0
v -10 1 -1
v -9 1 -1
v -10 1 -2
v -9 1 -2
v -10 1 -3
v -9 1 -3
v -10 1 -4
v -9 1 -4
v -10 1 -5
v -9 1 -5
v -10 1 -6
v -9 1 -6
v -10 1 -7
v -9 1 -7
v -10 1 -8
v -9 1 -8
v -10 1 -9
v -9 1 -9
v -10 1 -10
v -9 1 -10
v -8 1 -10
v -7 1 -10
v 10 1 -10

# faces
f 22/2/1 2/2/1 1/2/1
f 23/3/1 3/3/1 2/3/1
f 23/2/1 2/2/1 22/2/1
f 24/2/1 4/2/1 3/2/1
f 24/3/1 3/3/1 23/3/1
f 25/3/1 5/3/1 4/3/1
f 25/2/1 4/2/1 24/2/1
f 26/2/1 6/2/1 5/2/1
f 26/3/1 5/3/1 25/3/1
f 27/3/1 7/3/1 6/3/1
f 27/2/1 6/2/1 26/2/1
f 28/2/1 8/2/1 7/2/1
f 28/3/1 7/3/1 27/3/1
f 29/3/1 9/3/1 8/3/1
f 29/2/1 8/2/1 28/2/1
f 30/2/1 10/2/1 9/2/1
f 30/3/1 9/3/1 29/3/1
f 31/3/1 11/3/1 10/3/1
f 31/2/1 10/2/1 30/2/1
f 32/2/1 12/2/1 11/2/1
f 32/3/1 11/3/1 31/3/1
f 33/3/1 13/3/1 12/3/1
f 33/2/1 12/2/1 32/2/1
f 34/2/1 14/2/1 13/2/1
f 34/3/1 13/3/1 33/3/1
f 35/3/1 15/3/1 14/3/1
f 35/2/1 14/2/1 34/2/1
f 36/2/1 16/2/1 15/2/1
f 36/3/1 15/3/1 35/3/1
f 37/3/1 17/3/1 16/3/1
f 37/2/1 16/2/1 36/2/1
f 38/2/1 18/2/1 17/2/1
f 38/3/1 17/3/1 37/3/1
f 39/3/1 19/3/1 18/3/1
f 39/2/1 18/2/1 38/2/1
f 40/2/1 20/2/1 19/2/1
f 40/3/1 19/3/1 39/3/1
f 41/3/1 21/3/1 20/3/1
f 41/2/1 20/2/1 40/2/1
f 42/3/1 21/3/1 41/3/1
f 43/4/2 44/4/2 45/4/2
f 45/4/2 44/4/2 46/4/2
f 49/2/3 48/2/3 47/2/3
f 50/2/3 48/2/3 49/2/3
f 51/1/3 50/1/3 49/1/3
f 52/1/3 50/1/3 51/1/3
f 53/5/3 52/5/3 51/5/3
f 54/5/3 52/5/3 53/5/3
f 55/4/3 54/4/3 53/4/3
f 56/4/3 54/4/3 55/4/3
f 57/3/4 58/3/4 59/3/4
f 59/3/4 58/3/4 60/3/4
f 59/1/4 60/1/4 61/1/4
f 61/1/4 60/1/4 62/1/4
f 61/5/4 62/5/4 63/5/4
f 63/5/4 62/5/4 64/5/4
f 63/4/4 64/4/4 65/4/4
f 65/4/4 64/4/4 66/4/4
f 72/2/5 68/2/5 67/2/5
f 73/1/5 69/1/5 68/1/5
f 73/2/5 68/2/5 72/2/5
f 74/3/5 73/3/5 72/3/5
f 75/1/5 69/1/5 73/1/5
f 75/3/5 73/3/5 74/3/5
f 76/2/5 75/2/5 74/2/5
f 77/1/5 69/1/5 75/1/5
f 77/2/5 75/2/5 76/2/5
f 78/3/5 77/3/5 76/3/5
f 79/1/5 69/1/5 77/1/5
f 79/3/5 77/3/5 78/3/5
f 80/2/5 79/2/5 78/2/5
f 81/1/5 69/1/5 79/1/5
f 81/2/5 79/2/5 80/2/5
f 82/3/5 81/3/5 80/3/5
f 83/1/5 69/1/5 81/1/5
f 83/3/5 81/3/5 82/3/5
f 84/2/5 83/2/5 82/2/5
f 85/1/5 69/1/5 83/1/5
f 85/2/5 83/2/5 84/2/5
f 86/3/5 85/3/5 84/3/5
f 87/1/5 69/1/5 85/1/5
f 87/3/5 85/3/5 86/3/5
f 88/2/5 87/2/5 86/2/5
f 89/1/5 69/1/5 87/1/5
f 89/2/5 87/2/5 88/2/5
f 90/3/5 89/3/5 88/3/5
f 91/1/5 69/1/5 89/1/5
f 91/3/5 89/3/5 90/3/5
f 92/2/5 91/2/5 90/2/5
f 93/1/5 69/1/5 91/1/5
f 93/2/5 91/2/5 92/2/5
f 94/3/5 93/3/5 92/3/5
f 95/1/5 69/1/5 93/1/5
f 95/3/5 93/3/5 94/3/5
f 96/2/5 95/2/5 94/2/5
f 97/1/5 69/1/5 95/1/5
f 97/2/5 95/2/5 96/2/5
f 98/3/5 97/3/5 96/3/5
f 99/1/5 69/1/5 97/1/5
f 99/3/5 97/3/5 98/3/5
f 100/2/5 99/2/5 98/2/5
f 101/1/5 69/1/5 99/1/5
f 101/2/5 99/2/5 100/2/5
f 102/3/5 101/3/5 100/3/5
f 103/1/5 69/1/5 101/1/5
f 103/3/5 101/3/5 102/3/5
f 104/2/5 103/2/5 102/2/5
f 105/1/5 69/1/5 103/1/5
f 105/2/5 103/2/5 104/2/5
f 106/3/5 105/3/5 104/3/5
f 107/1/5 69/1/5 105/1/5
f 107/3/5 105/3/5 106/3/5
f 108/2/5 107/2/5 106/2/5
f 109/1/5 69/1/5 107/1/5
f 109/2/5 107/2/5 108/2/5
f 110/3/5 109/3/5 108/3/5
f 111/1/5 69/1/5 109/1/5
f 111/3/5 109/3/5 110/3/5
f 112/5/5 70/5/5 69/5/5
f 112/1/5 69/1/5 111/1/5
f 113/4/5 71/4/5 70/4/5
f 113/5/5 70/5/5 112/5/5
f 114/4/5 71/4/5 113/4/5
f 115/2/6 116/2/6 120/2/6
f 116/1/6 117/1/6 121/1/6
f 120/2/6 116/2/6 121/2/6
f 120/3/6 121/3/6 122/3/6
f 121/1/6 117/1/6 123/1/6
f 122/3/6 121/3/6 123/3/6
f 122/2/6 123/2/6 124/2/6
f 123/1/6 117/1/6 125/1/6
f 124/2/6 123/2/6 125/2/6
f 124/3/6 125/3/6 126/3/6
f 125/1/6 117/1/6 127/1/6
f 126/3/6 125/3/6 127/3/6
f 126/2/6 127/2/6 128/2/6
f 127/1/6 117/1/6 129/1/6
f 128/2/6 127/2/6 129/2/6
f 128/3/6 129/3/6 130/3/6
f 129/1/6 117/1/6 131/1/6
f 130/3/6 129/3/6 131/3/6
f 130/2/6 131/2/6 132/2/6
f 131/1/6 117/1/6 133/1/6
f 132/2/6 131/2/6 133/2/6
f 132/3/6 133/3/6 134/3/6
f 133/1/6 117/1/6 135/1/6
f 134/3/6 133/3/6 135/3/6
f 134/2/6 135/2/6 136/2/6
f 135/1/6 117/1/6 137/1/6
f 136/2/6 135/2/6 137/2/6
f 136/3/6 137/3/6 138/3/6
f 137/1/6 117/1/6 139/1/6
f 138/3/6 137/3/6 139/3/6
f 138/2/6 139/2/6 140/2/6
f 139/1/6 117/1/6 141/1/6
f 140/2/6 139/2/6 141/2/6
f 140/3/6 141/3/6 142/3/6
f 141/1/6 117/1/6 143/1/6
f 142/3/6 141/3/6 143/3/6
f 142/2/6 143/2/6 144/2/6
f 143/1/6 117/1/6 145/1/6
f 144/2/6 143/2/6 145/2/6
f 144/3/6 145/3/6 146/3/6
f 145/1/6 117/1/6 147/1/6
f 146/3/6 145/3/6 147/3/6
f 146/2/6 147/2/6 148/2/6
f 147/1/6 117/1/6 149/1/6
f 148/2/6 147/2/6 149/2/6
f 148/3/6 149/3/6 150/3/6
f 149/1/6 117/1/6 151/1/6
f 150/3/6 149/3/6 151/3/6
f 150/2/6 151/2/6 152/2/6
f 151/1/6 117/1/6 153/1/6
f 152/2/6 151/2/6 153/2/6
f 152/3/6 153/3/6 154/3/6
f 153/1/6 117/1/6 155/1/6
f 154/3/6 153/3/6 155/3/6
f 154/2/6 155/2/6 156/2/6
f 155/1/6 117/1/6 157/1/6
f 156/2/6 155/2/6 157/2/6
f 156/3/6 157/3/6 158/3/6
f 157/1/6 117/1/6 159/1/6
f 158/3/6 157/3/6 159/3/6
f 117/5/6 118/5/6 160/5/6
f 159/1/6 117/1/6 160/1/6
f 118/4/6 119/4/6 161/4/6
f 160/5/6 118/5/6 161/5/6
f 161/4/6 119/4/6 162/4/6
