# MagicaVoxel @ Ephtracy

# group
g carpet_edge

# material
mtllib carpet_edge.mtl
usemtl palette

# normals
vn -1 0 0
vn 1 0 0
vn 0 0 1
vn 0 0 -1
vn 0 -1 0
vn 0 1 0

# texcoords
vt 0.505859 0.5
vt 0.513672 0.5
vt 0.572266 0.5
vt 0.576172 0.5

# verts
v -10 0 10
v -10 0 -10
v -10 1 10
v -10 1 -10
v 10 0 10
v 10 0 9
v 10 0 8
v 10 0 7
v 10 0 -10
v 10 1 10
v 10 1 9
v 10 1 8
v 10 1 7
v 10 1 -10
v -10 0 10
v -10 1 10
v 7 0 10
v 7 1 10
v 8 0 10
v 8 1 10
v 9 0 10
v 9 1 10
v 10 0 10
v 10 1 10
v -10 0 -10
v -10 1 -10
v 10 0 -10
v 10 1 -10
v -10 0 10
v 7 0 10
v 8 0 10
v 9 0 10
v 10 0 10
v 9 0 9
v 10 0 9
v 8 0 8
v 10 0 8
v 7 0 7
v 10 0 7
v -10 0 -10
v 10 0 -10
v -10 1 10
v 7 1 10
v 8 1 10
v 9 1 10
v 10 1 10
v 9 1 9
v 10 1 9
v 8 1 8
v 10 1 8
v 7 1 7
v 10 1 7
v -10 1 -10
v 10 1 -10

# faces
f 3/3/1 2/3/1 1/3/1
f 4/3/1 2/3/1 3/3/1
f 5/2/2 6/2/2 10/2/2
f 6/1/2 7/1/2 11/1/2
f 10/2/2 6/2/2 11/2/2
f 7/4/2 8/4/2 12/4/2
f 11/1/2 7/1/2 12/1/2
f 8/3/2 9/3/2 13/3/2
f 12/4/2 8/4/2 13/4/2
f 13/3/2 9/3/2 14/3/2
f 17/3/3 16/3/3 15/3/3
f 18/3/3 16/3/3 17/3/3
f 19/4/3 18/4/3 17/4/3
f 20/4/3 18/4/3 19/4/3
f 21/1/3 20/1/3 19/1/3
f 22/1/3 20/1/3 21/1/3
f 23/2/3 22/2/3 21/2/3
f 24/2/3 22/2/3 23/2/3
f 25/3/4 26/3/4 27/3/4
f 27/3/4 26/3/4 28/3/4
f 34/1/5 32/1/5 31/1/5
f 34/2/5 33/2/5 32/2/5
f 35/2/5 33/2/5 34/2/5
f 36/4/5 31/4/5 30/4/5
f 36/1/5 34/1/5 31/1/5
f 36/1/5 35/1/5 34/1/5
f 37/1/5 35/1/5 36/1/5
f 38/3/5 30/3/5 29/3/5
f 38/4/5 36/4/5 30/4/5
f 38/4/5 37/4/5 36/4/5
f 39/4/5 37/4/5 38/4/5
f 40/3/5 38/3/5 29/3/5
f 40/3/5 39/3/5 38/3/5
f 41/3/5 39/3/5 40/3/5
f 44/1/6 45/1/6 47/1/6
f 45/2/6 46/2/6 47/2/6
f 47/2/6 46/2/6 48/2/6
f 43/4/6 44/4/6 49/4/6
f 44/1/6 47/1/6 49/1/6
f 47/1/6 48/1/6 49/1/6
f 49/1/6 48/1/6 50/1/6
f 42/3/6 43/3/6 51/3/6
f 43/4/6 49/4/6 51/4/6
f 49/4/6 50/4/6 51/4/6
f 51/4/6 50/4/6 52/4/6
f 42/3/6 51/3/6 53/3/6
f 51/3/6 52/3/6 53/3/6
f 53/3/6 52/3/6 54/3/6
