# MagicaVoxel @ Ephtracy

# group
g noise

# material
mtllib noise.mtl
usemtl palette

# normals
vn -1 0 0
vn 1 0 0
vn 0 0 1
vn 0 0 -1
vn 0 -1 0
vn 0 1 0

# texcoords
vt 0.970703 0.5
vt 0.974609 0.5
vt 0.978516 0.5
vt 0.982422 0.5
vt 0.986328 0.5
vt 0.990234 0.5
vt 0.994141 0.5

# verts
v -10 0 4
v -10 0 -4
v -10 1 4
v -10 1 -4
v -9 0 6
v -9 0 4
v -9 0 -4
v -9 0 -6
v -9 1 6
v -9 1 4
v -9 1 -4
v -9 1 -6
v -8 0 7
v -8 0 6
v -8 0 -6
v -8 0 -7
v -8 1 7
v -8 1 6
v -8 1 -6
v -8 1 -7
v -7 0 8
v -7 0 7
v -7 0 -7
v -7 0 -8
v -7 1 8
v -7 1 7
v -7 1 -7
v -7 1 -8
v -6 0 9
v -6 0 8
v -6 0 -8
v -6 0 -9
v -6 1 9
v -6 1 8
v -6 1 -8
v -6 1 -9
v -4 0 10
v -4 0 9
v -4 0 -9
v -4 0 -10
v -4 1 10
v -4 1 9
v -4 1 -9
v -4 1 -10
v 4 0 10
v 4 0 9
v 4 0 -9
v 4 0 -10
v 4 1 10
v 4 1 9
v 4 1 -9
v 4 1 -10
v 6 0 9
v 6 0 8
v 6 0 -8
v 6 0 -9
v 6 1 9
v 6 1 8
v 6 1 -8
v 6 1 -9
v 7 0 8
v 7 0 7
v 7 0 -7
v 7 0 -8
v 7 1 8
v 7 1 7
v 7 1 -7
v 7 1 -8
v 8 0 7
v 8 0 6
v 8 0 -6
v 8 0 -7
v 8 1 7
v 8 1 6
v 8 1 -6
v 8 1 -7
v 9 0 6
v 9 0 4
v 9 0 3
v 9 0 -3
v 9 0 -4
v 9 0 -6
v 9 1 6
v 9 1 4
v 9 1 3
v 9 1 -3
v 9 1 -4
v 9 1 -6
v 10 0 3
v 10 0 -3
v 10 1 3
v 10 1 -3
v -4 0 10
v -4 1 10
v 4 0 10
v 4 1 10
v -6 0 9
v -6 1 9
v -4 0 9
v -4 1 9
v 4 0 9
v 4 1 9
v 6 0 9
v 6 1 9
v -7 0 8
v -7 1 8
v -6 0 8
v -6 1 8
v 6 0 8
v 6 1 8
v 7 0 8
v 7 1 8
v -8 0 7
v -8 1 7
v -7 0 7
v -7 1 7
v 7 0 7
v 7 1 7
v 8 0 7
v 8 1 7
v -9 0 6
v -9 1 6
v -8 0 6
v -8 1 6
v 8 0 6
v 8 1 6
v 9 0 6
v 9 1 6
v -10 0 4
v -10 1 4
v -9 0 4
v -9 1 4
v 9 0 3
v 9 1 3
v 10 0 3
v 10 1 3
v 9 0 -3
v 9 1 -3
v 10 0 -3
v 10 1 -3
v -10 0 -4
v -10 1 -4
v -9 0 -4
v -9 1 -4
v -9 0 -6
v -9 1 -6
v -8 0 -6
v -8 1 -6
v 8 0 -6
v 8 1 -6
v 9 0 -6
v 9 1 -6
v -8 0 -7
v -8 1 -7
v -7 0 -7
v -7 1 -7
v 7 0 -7
v 7 1 -7
v 8 0 -7
v 8 1 -7
v -7 0 -8
v -7 1 -8
v -6 0 -8
v -6 1 -8
v 6 0 -8
v 6 1 -8
v 7 0 -8
v 7 1 -8
v -6 0 -9
v -6 1 -9
v -4 0 -9
v -4 1 -9
v 4 0 -9
v 4 1 -9
v 6 0 -9
v 6 1 -9
v -4 0 -10
v -4 1 -10
v 4 0 -10
v 4 1 -10
v -4 0 10
v 4 0 10
v -6 0 9
v -4 0 9
v 4 0 9
v 6 0 9
v -7 0 8
v -6 0 8
v -4 0 8
v 4 0 8
v 6 0 8
v 7 0 8
v -8 0 7
v -7 0 7
v -6 0 7
v -4 0 7
v 4 0 7
v 6 0 7
v 7 0 7
v 8 0 7
v -9 0 6
v -8 0 6
v -7 0 6
v -6 0 6
v -5 0 6
v -4 0 6
v 4 0 6
v 5 0 6
v 6 0 6
v 7 0 6
v 8 0 6
v 9 0 6
v -6 0 5
v -5 0 5
v -4 0 5
v 4 0 5
v 5 0 5
v 6 0 5
v -10 0 4
v -9 0 4
v -8 0 4
v -7 0 4
v -6 0 4
v -5 0 4
v -4 0 4
v 4 0 4
v 5 0 4
v 6 0 4
v 7 0 4
v 8 0 4
v 9 0 4
v 9 0 3
v 10 0 3
v 9 0 -3
v 10 0 -3
v -10 0 -4
v -9 0 -4
v -8 0 -4
v -7 0 -4
v -6 0 -4
v -5 0 -4
v -4 0 -4
v 4 0 -4
v 5 0 -4
v 6 0 -4
v 7 0 -4
v 8 0 -4
v 9 0 -4
v -6 0 -5
v -5 0 -5
v -4 0 -5
v 4 0 -5
v 5 0 -5
v 6 0 -5
v -9 0 -6
v -8 0 -6
v -7 0 -6
v -6 0 -6
v -5 0 -6
v -4 0 -6
v 4 0 -6
v 5 0 -6
v 6 0 -6
v 7 0 -6
v 8 0 -6
v 9 0 -6
v -8 0 -7
v -7 0 -7
v -6 0 -7
v -4 0 -7
v 4 0 -7
v 6 0 -7
v 7 0 -7
v 8 0 -7
v -7 0 -8
v -6 0 -8
v -4 0 -8
v 4 0 -8
v 6 0 -8
v 7 0 -8
v -6 0 -9
v -4 0 -9
v 4 0 -9
v 6 0 -9
v -4 0 -10
v 4 0 -10
v -4 1 10
v 4 1 10
v -6 1 9
v -4 1 9
v 4 1 9
v 6 1 9
v -7 1 8
v -6 1 8
v -4 1 8
v 4 1 8
v 6 1 8
v 7 1 8
v -8 1 7
v -7 1 7
v -6 1 7
v -4 1 7
v 4 1 7
v 6 1 7
v 7 1 7
v 8 1 7
v -9 1 6
v -8 1 6
v -7 1 6
v -6 1 6
v -5 1 6
v -4 1 6
v 4 1 6
v 5 1 6
v 6 1 6
v 7 1 6
v 8 1 6
v 9 1 6
v -6 1 5
v -5 1 5
v -4 1 5
v 4 1 5
v 5 1 5
v 6 1 5
v -10 1 4
v -9 1 4
v -8 1 4
v -7 1 4
v -6 1 4
v -5 1 4
v -4 1 4
v 4 1 4
v 5 1 4
v 6 1 4
v 7 1 4
v 8 1 4
v 9 1 4
v 9 1 3
v 10 1 3
v 9 1 -3
v 10 1 -3
v -10 1 -4
v -9 1 -4
v -8 1 -4
v -7 1 -4
v -6 1 -4
v -5 1 -4
v -4 1 -4
v 4 1 -4
v 5 1 -4
v 6 1 -4
v 7 1 -4
v 8 1 -4
v 9 1 -4
v -6 1 -5
v -5 1 -5
v -4 1 -5
v 4 1 -5
v 5 1 -5
v 6 1 -5
v -9 1 -6
v -8 1 -6
v -7 1 -6
v -6 1 -6
v -5 1 -6
v -4 1 -6
v 4 1 -6
v 5 1 -6
v 6 1 -6
v 7 1 -6
v 8 1 -6
v 9 1 -6
v -8 1 -7
v -7 1 -7
v -6 1 -7
v -4 1 -7
v 4 1 -7
v 6 1 -7
v 7 1 -7
v 8 1 -7
v -7 1 -8
v -6 1 -8
v -4 1 -8
v 4 1 -8
v 6 1 -8
v 7 1 -8
v -6 1 -9
v -4 1 -9
v 4 1 -9
v 6 1 -9
v -4 1 -10
v 4 1 -10

# faces
f 3/1/1 2/1/1 1/1/1
f 4/1/1 2/1/1 3/1/1
f 9/1/1 6/1/1 5/1/1
f 10/1/1 6/1/1 9/1/1
f 11/1/1 8/1/1 7/1/1
f 12/1/1 8/1/1 11/1/1
f 17/1/1 14/1/1 13/1/1
f 18/1/1 14/1/1 17/1/1
f 19/1/1 16/1/1 15/1/1
f 20/1/1 16/1/1 19/1/1
f 25/1/1 22/1/1 21/1/1
f 26/1/1 22/1/1 25/1/1
f 27/1/1 24/1/1 23/1/1
f 28/1/1 24/1/1 27/1/1
f 33/1/1 30/1/1 29/1/1
f 34/1/1 30/1/1 33/1/1
f 35/1/1 32/1/1 31/1/1
f 36/1/1 32/1/1 35/1/1
f 41/1/1 38/1/1 37/1/1
f 42/1/1 38/1/1 41/1/1
f 43/1/1 40/1/1 39/1/1
f 44/1/1 40/1/1 43/1/1
f 45/1/2 46/1/2 49/1/2
f 49/1/2 46/1/2 50/1/2
f 47/1/2 48/1/2 51/1/2
f 51/1/2 48/1/2 52/1/2
f 53/1/2 54/1/2 57/1/2
f 57/1/2 54/1/2 58/1/2
f 55/1/2 56/1/2 59/1/2
f 59/1/2 56/1/2 60/1/2
f 61/1/2 62/1/2 65/1/2
f 65/1/2 62/1/2 66/1/2
f 63/1/2 64/1/2 67/1/2
f 67/1/2 64/1/2 68/1/2
f 69/1/2 70/1/2 73/1/2
f 73/1/2 70/1/2 74/1/2
f 71/1/2 72/1/2 75/1/2
f 75/1/2 72/1/2 76/1/2
f 77/1/2 78/1/2 83/1/2
f 78/2/2 79/2/2 84/2/2
f 83/1/2 78/1/2 84/1/2
f 84/2/2 79/2/2 85/2/2
f 80/2/2 81/2/2 86/2/2
f 81/1/2 82/1/2 87/1/2
f 86/2/2 81/2/2 87/2/2
f 87/1/2 82/1/2 88/1/2
f 89/1/2 90/1/2 91/1/2
f 91/1/2 90/1/2 92/1/2
f 95/1/3 94/1/3 93/1/3
f 96/1/3 94/1/3 95/1/3
f 99/1/3 98/1/3 97/1/3
f 100/1/3 98/1/3 99/1/3
f 103/1/3 102/1/3 101/1/3
f 104/1/3 102/1/3 103/1/3
f 107/1/3 106/1/3 105/1/3
f 108/1/3 106/1/3 107/1/3
f 111/1/3 110/1/3 109/1/3
f 112/1/3 110/1/3 111/1/3
f 115/1/3 114/1/3 113/1/3
f 116/1/3 114/1/3 115/1/3
f 119/1/3 118/1/3 117/1/3
f 120/1/3 118/1/3 119/1/3
f 123/1/3 122/1/3 121/1/3
f 124/1/3 122/1/3 123/1/3
f 127/1/3 126/1/3 125/1/3
f 128/1/3 126/1/3 127/1/3
f 131/1/3 130/1/3 129/1/3
f 132/1/3 130/1/3 131/1/3
f 135/1/3 134/1/3 133/1/3
f 136/1/3 134/1/3 135/1/3
f 137/1/4 138/1/4 139/1/4
f 139/1/4 138/1/4 140/1/4
f 141/1/4 142/1/4 143/1/4
f 143/1/4 142/1/4 144/1/4
f 145/1/4 146/1/4 147/1/4
f 147/1/4 146/1/4 148/1/4
f 149/1/4 150/1/4 151/1/4
f 151/1/4 150/1/4 152/1/4
f 153/1/4 154/1/4 155/1/4
f 155/1/4 154/1/4 156/1/4
f 157/1/4 158/1/4 159/1/4
f 159/1/4 158/1/4 160/1/4
f 161/1/4 162/1/4 163/1/4
f 163/1/4 162/1/4 164/1/4
f 165/1/4 166/1/4 167/1/4
f 167/1/4 166/1/4 168/1/4
f 169/1/4 170/1/4 171/1/4
f 171/1/4 170/1/4 172/1/4
f 173/1/4 174/1/4 175/1/4
f 175/1/4 174/1/4 176/1/4
f 177/1/4 178/1/4 179/1/4
f 179/1/4 178/1/4 180/1/4
f 184/1/5 182/1/5 181/1/5
f 185/1/5 182/1/5 184/1/5
f 188/1/5 184/1/5 183/1/5
f 189/2/5 185/2/5 184/2/5
f 189/1/5 184/1/5 188/1/5
f 190/1/5 186/1/5 185/1/5
f 190/2/5 185/2/5 189/2/5
f 191/1/5 186/1/5 190/1/5
f 194/1/5 188/1/5 187/1/5
f 195/2/5 189/2/5 188/2/5
f 195/1/5 188/1/5 194/1/5
f 196/3/5 190/3/5 189/3/5
f 196/2/5 189/2/5 195/2/5
f 197/2/5 191/2/5 190/2/5
f 197/3/5 190/3/5 196/3/5
f 198/1/5 192/1/5 191/1/5
f 198/2/5 191/2/5 197/2/5
f 199/1/5 192/1/5 198/1/5
f 202/1/5 194/1/5 193/1/5
f 203/2/5 195/2/5 194/2/5
f 203/1/5 194/1/5 202/1/5
f 204/3/5 196/3/5 195/3/5
f 204/2/5 195/2/5 203/2/5
f 205/3/5 196/3/5 204/3/5
f 206/4/5 197/4/5 196/4/5
f 206/3/5 196/3/5 205/3/5
f 207/3/5 198/3/5 197/3/5
f 207/4/5 197/4/5 206/4/5
f 208/3/5 198/3/5 207/3/5
f 209/2/5 199/2/5 198/2/5
f 209/3/5 198/3/5 208/3/5
f 210/1/5 200/1/5 199/1/5
f 210/2/5 199/2/5 209/2/5
f 211/1/5 200/1/5 210/1/5
f 213/3/5 205/3/5 204/3/5
f 213/3/5 204/3/5 203/3/5
f 214/4/5 206/4/5 205/4/5
f 214/3/5 205/3/5 213/3/5
f 215/5/5 207/5/5 206/5/5
f 215/4/5 206/4/5 214/4/5
f 216/4/5 208/4/5 207/4/5
f 216/5/5 207/5/5 215/5/5
f 217/3/5 209/3/5 208/3/5
f 217/4/5 208/4/5 216/4/5
f 217/3/5 210/3/5 209/3/5
f 218/3/5 210/3/5 217/3/5
f 220/1/5 202/1/5 201/1/5
f 221/2/5 203/2/5 202/2/5
f 221/1/5 202/1/5 220/1/5
f 222/3/5 213/3/5 203/3/5
f 222/2/5 203/2/5 221/2/5
f 223/4/5 214/4/5 213/4/5
f 223/3/5 213/3/5 222/3/5
f 224/5/5 215/5/5 214/5/5
f 224/4/5 214/4/5 223/4/5
f 225/6/5 216/6/5 215/6/5
f 225/5/5 215/5/5 224/5/5
f 226/5/5 217/5/5 216/5/5
f 226/6/5 216/6/5 225/6/5
f 227/4/5 218/4/5 217/4/5
f 227/5/5 217/5/5 226/5/5
f 228/3/5 210/3/5 218/3/5
f 228/4/5 218/4/5 227/4/5
f 229/2/5 211/2/5 210/2/5
f 229/3/5 210/3/5 228/3/5
f 230/1/5 212/1/5 211/1/5
f 230/2/5 211/2/5 229/2/5
f 231/1/5 212/1/5 230/1/5
f 232/2/5 231/2/5 230/2/5
f 234/2/5 232/2/5 230/2/5
f 234/1/5 233/1/5 232/1/5
f 235/1/5 233/1/5 234/1/5
f 236/1/5 220/1/5 219/1/5
f 237/2/5 221/2/5 220/2/5
f 237/1/5 220/1/5 236/1/5
f 238/3/5 222/3/5 221/3/5
f 238/2/5 221/2/5 237/2/5
f 239/4/5 223/4/5 222/4/5
f 239/3/5 222/3/5 238/3/5
f 240/5/5 224/5/5 223/5/5
f 240/4/5 223/4/5 239/4/5
f 241/6/5 225/6/5 224/6/5
f 241/5/5 224/5/5 240/5/5
f 242/7/5 226/7/5 225/7/5
f 242/6/5 225/6/5 241/6/5
f 243/6/5 227/6/5 226/6/5
f 243/7/5 226/7/5 242/7/5
f 244/5/5 228/5/5 227/5/5
f 244/6/5 227/6/5 243/6/5
f 245/4/5 229/4/5 228/4/5
f 245/5/5 228/5/5 244/5/5
f 246/3/5 230/3/5 229/3/5
f 246/4/5 229/4/5 245/4/5
f 247/2/5 234/2/5 230/2/5
f 247/3/5 230/3/5 246/3/5
f 248/2/5 234/2/5 247/2/5
f 249/3/5 240/3/5 239/3/5
f 249/4/5 241/4/5 240/4/5
f 250/5/5 242/5/5 241/5/5
f 250/4/5 241/4/5 249/4/5
f 251/6/5 243/6/5 242/6/5
f 251/5/5 242/5/5 250/5/5
f 252/5/5 244/5/5 243/5/5
f 252/6/5 243/6/5 251/6/5
f 253/4/5 245/4/5 244/4/5
f 253/5/5 244/5/5 252/5/5
f 254/3/5 246/3/5 245/3/5
f 254/4/5 245/4/5 253/4/5
f 255/1/5 238/1/5 237/1/5
f 256/2/5 239/2/5 238/2/5
f 256/1/5 238/1/5 255/1/5
f 257/3/5 249/3/5 239/3/5
f 257/2/5 239/2/5 256/2/5
f 257/3/5 250/3/5 249/3/5
f 258/3/5 250/3/5 257/3/5
f 259/4/5 251/4/5 250/4/5
f 259/3/5 250/3/5 258/3/5
f 260/5/5 252/5/5 251/5/5
f 260/4/5 251/4/5 259/4/5
f 261/4/5 253/4/5 252/4/5
f 261/5/5 252/5/5 260/5/5
f 262/3/5 254/3/5 253/3/5
f 262/4/5 253/4/5 261/4/5
f 263/3/5 246/3/5 254/3/5
f 263/3/5 254/3/5 262/3/5
f 264/2/5 247/2/5 246/2/5
f 264/3/5 246/3/5 263/3/5
f 265/1/5 248/1/5 247/1/5
f 265/2/5 247/2/5 264/2/5
f 266/1/5 248/1/5 265/1/5
f 267/1/5 257/1/5 256/1/5
f 268/2/5 258/2/5 257/2/5
f 268/1/5 257/1/5 267/1/5
f 269/3/5 259/3/5 258/3/5
f 269/2/5 258/2/5 268/2/5
f 269/3/5 260/3/5 259/3/5
f 270/4/5 261/4/5 260/4/5
f 270/3/5 260/3/5 269/3/5
f 271/3/5 262/3/5 261/3/5
f 271/4/5 261/4/5 270/4/5
f 271/3/5 263/3/5 262/3/5
f 272/2/5 264/2/5 263/2/5
f 272/3/5 263/3/5 271/3/5
f 273/1/5 265/1/5 264/1/5
f 273/2/5 264/2/5 272/2/5
f 274/1/5 265/1/5 273/1/5
f 275/1/5 269/1/5 268/1/5
f 276/2/5 270/2/5 269/2/5
f 276/1/5 269/1/5 275/1/5
f 277/3/5 271/3/5 270/3/5
f 277/2/5 270/2/5 276/2/5
f 278/2/5 272/2/5 271/2/5
f 278/3/5 271/3/5 277/3/5
f 279/1/5 273/1/5 272/1/5
f 279/2/5 272/2/5 278/2/5
f 280/1/5 273/1/5 279/1/5
f 281/1/5 277/1/5 276/1/5
f 282/2/5 278/2/5 277/2/5
f 282/1/5 277/1/5 281/1/5
f 283/1/5 279/1/5 278/1/5
f 283/2/5 278/2/5 282/2/5
f 284/1/5 279/1/5 283/1/5
f 285/1/5 283/1/5 282/1/5
f 286/1/5 283/1/5 285/1/5
f 287/1/6 288/1/6 290/1/6
f 290/1/6 288/1/6 291/1/6
f 289/1/6 290/1/6 294/1/6
f 290/2/6 291/2/6 295/2/6
f 294/1/6 290/1/6 295/1/6
f 291/1/6 292/1/6 296/1/6
f 295/2/6 291/2/6 296/2/6
f 296/1/6 292/1/6 297/1/6
f 293/1/6 294/1/6 300/1/6
f 294/2/6 295/2/6 301/2/6
f 300/1/6 294/1/6 301/1/6
f 295/3/6 296/3/6 302/3/6
f 301/2/6 295/2/6 302/2/6
f 296/2/6 297/2/6 303/2/6
f 302/3/6 296/3/6 303/3/6
f 297/1/6 298/1/6 304/1/6
f 303/2/6 297/2/6 304/2/6
f 304/1/6 298/1/6 305/1/6
f 299/1/6 300/1/6 308/1/6
f 300/2/6 301/2/6 309/2/6
f 308/1/6 300/1/6 309/1/6
f 301/3/6 302/3/6 310/3/6
f 309/2/6 301/2/6 310/2/6
f 310/3/6 302/3/6 311/3/6
f 302/4/6 303/4/6 312/4/6
f 311/3/6 302/3/6 312/3/6
f 303/3/6 304/3/6 313/3/6
f 312/4/6 303/4/6 313/4/6
f 313/3/6 304/3/6 314/3/6
f 304/2/6 305/2/6 315/2/6
f 314/3/6 304/3/6 315/3/6
f 305/1/6 306/1/6 316/1/6
f 315/2/6 305/2/6 316/2/6
f 316/1/6 306/1/6 317/1/6
f 310/3/6 311/3/6 319/3/6
f 309/3/6 310/3/6 319/3/6
f 311/4/6 312/4/6 320/4/6
f 319/3/6 311/3/6 320/3/6
f 312/5/6 313/5/6 321/5/6
f 320/4/6 312/4/6 321/4/6
f 313/4/6 314/4/6 322/4/6
f 321/5/6 313/5/6 322/5/6
f 314/3/6 315/3/6 323/3/6
f 322/4/6 314/4/6 323/4/6
f 315/3/6 316/3/6 323/3/6
f 323/3/6 316/3/6 324/3/6
f 307/1/6 308/1/6 326/1/6
f 308/2/6 309/2/6 327/2/6
f 326/1/6 308/1/6 327/1/6
f 309/3/6 319/3/6 328/3/6
f 327/2/6 309/2/6 328/2/6
f 319/4/6 320/4/6 329/4/6
f 328/3/6 319/3/6 329/3/6
f 320/5/6 321/5/6 330/5/6
f 329/4/6 320/4/6 330/4/6
f 321/6/6 322/6/6 331/6/6
f 330/5/6 321/5/6 331/5/6
f 322/5/6 323/5/6 332/5/6
f 331/6/6 322/6/6 332/6/6
f 323/4/6 324/4/6 333/4/6
f 332/5/6 323/5/6 333/5/6
f 324/3/6 316/3/6 334/3/6
f 333/4/6 324/4/6 334/4/6
f 316/2/6 317/2/6 335/2/6
f 334/3/6 316/3/6 335/3/6
f 317/1/6 318/1/6 336/1/6
f 335/2/6 317/2/6 336/2/6
f 336/1/6 318/1/6 337/1/6
f 336/2/6 337/2/6 338/2/6
f 336/2/6 338/2/6 340/2/6
f 338/1/6 339/1/6 340/1/6
f 340/1/6 339/1/6 341/1/6
f 325/1/6 326/1/6 342/1/6
f 326/2/6 327/2/6 343/2/6
f 342/1/6 326/1/6 343/1/6
f 327/3/6 328/3/6 344/3/6
f 343/2/6 327/2/6 344/2/6
f 328/4/6 329/4/6 345/4/6
f 344/3/6 328/3/6 345/3/6
f 329/5/6 330/5/6 346/5/6
f 345/4/6 329/4/6 346/4/6
f 330/6/6 331/6/6 347/6/6
f 346/5/6 330/5/6 347/5/6
f 331/7/6 332/7/6 348/7/6
f 347/6/6 331/6/6 348/6/6
f 332/6/6 333/6/6 349/6/6
f 348/7/6 332/7/6 349/7/6
f 333/5/6 334/5/6 350/5/6
f 349/6/6 333/6/6 350/6/6
f 334/4/6 335/4/6 351/4/6
f 350/5/6 334/5/6 351/5/6
f 335/3/6 336/3/6 352/3/6
f 351/4/6 335/4/6 352/4/6
f 336/2/6 340/2/6 353/2/6
f 352/3/6 336/3/6 353/3/6
f 353/2/6 340/2/6 354/2/6
f 345/3/6 346/3/6 355/3/6
f 346/4/6 347/4/6 355/4/6
f 347/5/6 348/5/6 356/5/6
f 355/4/6 347/4/6 356/4/6
f 348/6/6 349/6/6 357/6/6
f 356/5/6 348/5/6 357/5/6
f 349/5/6 350/5/6 358/5/6
f 357/6/6 349/6/6 358/6/6
f 350/4/6 351/4/6 359/4/6
f 358/5/6 350/5/6 359/5/6
f 351/3/6 352/3/6 360/3/6
f 359/4/6 351/4/6 360/4/6
f 343/1/6 344/1/6 361/1/6
f 344/2/6 345/2/6 362/2/6
f 361/1/6 344/1/6 362/1/6
f 345/3/6 355/3/6 363/3/6
f 362/2/6 345/2/6 363/2/6
f 355/3/6 356/3/6 363/3/6
f 363/3/6 356/3/6 364/3/6
f 356/4/6 357/4/6 365/4/6
f 364/3/6 356/3/6 365/3/6
f 357/5/6 358/5/6 366/5/6
f 365/4/6 357/4/6 366/4/6
f 358/4/6 359/4/6 367/4/6
f 366/5/6 358/5/6 367/5/6
f 359/3/6 360/3/6 368/3/6
f 367/4/6 359/4/6 368/4/6
f 360/3/6 352/3/6 369/3/6
f 368/3/6 360/3/6 369/3/6
f 352/2/6 353/2/6 370/2/6
f 369/3/6 352/3/6 370/3/6
f 353/1/6 354/1/6 371/1/6
f 370/2/6 353/2/6 371/2/6
f 371/1/6 354/1/6 372/1/6
f 362/1/6 363/1/6 373/1/6
f 363/2/6 364/2/6 374/2/6
f 373/1/6 363/1/6 374/1/6
f 364/3/6 365/3/6 375/3/6
f 374/2/6 364/2/6 375/2/6
f 365/3/6 366/3/6 375/3/6
f 366/4/6 367/4/6 376/4/6
f 375/3/6 366/3/6 376/3/6
f 367/3/6 368/3/6 377/3/6
f 376/4/6 367/4/6 377/4/6
f 368/3/6 369/3/6 377/3/6
f 369/2/6 370/2/6 378/2/6
f 377/3/6 369/3/6 378/3/6
f 370/1/6 371/1/6 379/1/6
f 378/2/6 370/2/6 379/2/6
f 379/1/6 371/1/6 380/1/6
f 374/1/6 375/1/6 381/1/6
f 375/2/6 376/2/6 382/2/6
f 381/1/6 375/1/6 382/1/6
f 376/3/6 377/3/6 383/3/6
f 382/2/6 376/2/6 383/2/6
f 377/2/6 378/2/6 384/2/6
f 383/3/6 377/3/6 384/3/6
f 378/1/6 379/1/6 385/1/6
f 384/2/6 378/2/6 385/2/6
f 385/1/6 379/1/6 386/1/6
f 382/1/6 383/1/6 387/1/6
f 383/2/6 384/2/6 388/2/6
f 387/1/6 383/1/6 388/1/6
f 384/1/6 385/1/6 389/1/6
f 388/2/6 384/2/6 389/2/6
f 389/1/6 385/1/6 390/1/6
f 388/1/6 389/1/6 391/1/6
f 391/1/6 389/1/6 392/1/6
