# MagicaVoxel @ Ephtracy

# group
g wall_window

# material
mtllib wall_window.mtl
usemtl palette

# normals
vn -1 0 0
vn 1 0 0
vn 0 0 1
vn 0 0 -1
vn 0 -1 0
vn 0 1 0

# texcoords
vt 0.103516 0.5
vt 0.107422 0.5
vt 0.130859 0.5
vt 0.138672 0.5
vt 0.142578 0.5
vt 0.509766 0.5
vt 0.513672 0.5
vt 0.576172 0.5
vt 0.580078 0.5
vt 0.994141 0.5

# verts
v -20 0 10
v -20 0 7
v -20 0 -10
v -20 1 10
v -20 1 8
v -20 2 10
v -20 2 8
v -20 2 7
v -20 6 10
v -20 6 8
v -20 7 10
v -20 7 7
v -20 8 10
v -20 8 9
v -20 8 7
v -20 28 10
v -20 28 9
v -20 28 7
v -20 29 10
v -20 29 7
v -20 30 10
v -20 30 7
v -20 30 -10
v -19 2 9
v -19 2 8
v -19 6 9
v -19 6 8
v -15 2 9
v -15 2 8
v -15 6 9
v -15 6 8
v -15 9 10
v -15 9 9
v -15 10 10
v -15 10 9
v -15 11 10
v -15 11 9
v -15 24 10
v -15 24 9
v -15 25 10
v -15 25 9
v -15 26 10
v -15 26 9
v -15 27 10
v -15 27 9
v -11 2 9
v -11 2 8
v -11 6 9
v -11 6 8
v -7 2 9
v -7 2 8
v -7 6 9
v -7 6 8
v -3 2 9
v -3 2 8
v -3 6 9
v -3 6 8
v -1 11 9
v -1 11 8
v -1 17 9
v -1 17 8
v -1 19 9
v -1 19 8
v -1 24 9
v -1 24 8
v -1 25 9
v -1 25 8
v 1 2 9
v 1 2 8
v 1 6 9
v 1 6 8
v 5 2 9
v 5 2 8
v 5 6 9
v 5 6 8
v 9 2 9
v 9 2 8
v 9 6 9
v 9 6 8
v 10 11 9
v 10 11 8
v 10 17 9
v 10 17 8
v 10 19 9
v 10 19 8
v 10 24 9
v 10 24 8
v 10 25 9
v 10 25 8
v 12 11 10
v 12 11 9
v 12 24 10
v 12 24 9
v 12 25 10
v 12 25 9
v 13 2 9
v 13 2 8
v 13 6 9
v 13 6 8
v 17 2 9
v 17 2 8
v 17 6 9
v 17 6 8
v -17 2 9
v -17 2 8
v -17 6 9
v -17 6 8
v -13 2 9
v -13 2 8
v -13 6 9
v -13 6 8
v -12 11 10
v -12 11 9
v -12 24 10
v -12 24 9
v -12 25 10
v -12 25 9
v -10 11 9
v -10 11 8
v -10 17 9
v -10 17 8
v -10 19 9
v -10 19 8
v -10 24 9
v -10 24 8
v -10 25 9
v -10 25 8
v -9 2 9
v -9 2 8
v -9 6 9
v -9 6 8
v -5 2 9
v -5 2 8
v -5 6 9
v -5 6 8
v -1 2 9
v -1 2 8
v -1 6 9
v -1 6 8
v 1 11 9
v 1 11 8
v 1 17 9
v 1 17 8
v 1 19 9
v 1 19 8
v 1 24 9
v 1 24 8
v 1 25 9
v 1 25 8
v 3 2 9
v 3 2 8
v 3 6 9
v 3 6 8
v 7 2 9
v 7 2 8
v 7 6 9
v 7 6 8
v 11 2 9
v 11 2 8
v 11 6 9
v 11 6 8
v 15 2 9
v 15 2 8
v 15 6 9
v 15 6 8
v 15 9 10
v 15 9 9
v 15 10 10
v 15 10 9
v 15 11 10
v 15 11 9
v 15 24 10
v 15 24 9
v 15 25 10
v 15 25 9
v 15 26 10
v 15 26 9
v 15 27 10
v 15 27 9
v 19 2 9
v 19 2 8
v 19 6 9
v 19 6 8
v 20 0 10
v 20 0 7
v 20 0 -10
v 20 1 10
v 20 1 8
v 20 2 10
v 20 2 8
v 20 2 7
v 20 6 10
v 20 6 8
v 20 7 10
v 20 7 7
v 20 8 10
v 20 8 9
v 20 8 7
v 20 28 10
v 20 28 9
v 20 28 7
v 20 29 10
v 20 29 7
v 20 30 10
v 20 30 7
v 20 30 -10
v -20 0 10
v -20 1 10
v -20 2 10
v -20 6 10
v -20 7 10
v -20 8 10
v -20 28 10
v -20 29 10
v -20 30 10
v -15 9 10
v -15 10 10
v -15 11 10
v -15 24 10
v -15 25 10
v -15 26 10
v -15 27 10
v -12 11 10
v -12 24 10
v -12 25 10
v 12 11 10
v 12 24 10
v 12 25 10
v 15 9 10
v 15 10 10
v 15 11 10
v 15 24 10
v 15 25 10
v 15 26 10
v 15 27 10
v 20 0 10
v 20 1 10
v 20 2 10
v 20 6 10
v 20 7 10
v 20 8 10
v 20 28 10
v 20 29 10
v 20 30 10
v -20 8 9
v -20 28 9
v -19 2 9
v -19 6 9
v -17 2 9
v -17 6 9
v -15 2 9
v -15 6 9
v -15 9 9
v -15 10 9
v -15 11 9
v -15 24 9
v -15 25 9
v -15 26 9
v -15 27 9
v -13 2 9
v -13 6 9
v -12 11 9
v -12 24 9
v -12 25 9
v -11 2 9
v -11 6 9
v -10 11 9
v -10 17 9
v -10 18 9
v -10 19 9
v -10 24 9
v -10 25 9
v -9 2 9
v -9 6 9
v -7 2 9
v -7 6 9
v -5 2 9
v -5 6 9
v -3 2 9
v -3 6 9
v -2 18 9
v -2 19 9
v -1 2 9
v -1 6 9
v -1 11 9
v -1 17 9
v -1 19 9
v -1 24 9
v -1 25 9
v 1 2 9
v 1 6 9
v 1 11 9
v 1 17 9
v 1 19 9
v 1 24 9
v 1 25 9
v 2 18 9
v 2 19 9
v 3 2 9
v 3 6 9
v 5 2 9
v 5 6 9
v 7 2 9
v 7 6 9
v 9 2 9
v 9 6 9
v 10 11 9
v 10 17 9
v 10 18 9
v 10 19 9
v 10 24 9
v 10 25 9
v 11 2 9
v 11 6 9
v 12 11 9
v 12 24 9
v 12 25 9
v 13 2 9
v 13 6 9
v 15 2 9
v 15 6 9
v 15 9 9
v 15 10 9
v 15 11 9
v 15 24 9
v 15 25 9
v 15 26 9
v 15 27 9
v 17 2 9
v 17 6 9
v 19 2 9
v 19 6 9
v 20 8 9
v 20 28 9
v -20 2 8
v -20 6 8
v -19 2 8
v -19 6 8
v -17 2 8
v -17 6 8
v -15 2 8
v -15 6 8
v -13 2 8
v -13 6 8
v -11 2 8
v -11 6 8
v -10 11 8
v -10 17 8
v -10 19 8
v -10 24 8
v -10 25 8
v -9 2 8
v -9 6 8
v -9 11 8
v -9 16 8
v -9 19 8
v -9 24 8
v -7 2 8
v -7 6 8
v -5 2 8
v -5 6 8
v -3 2 8
v -3 6 8
v -2 11 8
v -2 16 8
v -2 19 8
v -2 24 8
v -1 2 8
v -1 6 8
v -1 11 8
v -1 17 8
v -1 19 8
v -1 24 8
v -1 25 8
v 1 2 8
v 1 6 8
v 1 11 8
v 1 17 8
v 1 19 8
v 1 24 8
v 1 25 8
v 2 11 8
v 2 16 8
v 2 19 8
v 2 24 8
v 3 2 8
v 3 6 8
v 5 2 8
v 5 6 8
v 7 2 8
v 7 6 8
v 9 2 8
v 9 6 8
v 9 11 8
v 9 16 8
v 9 19 8
v 9 24 8
v 10 11 8
v 10 17 8
v 10 19 8
v 10 24 8
v 10 25 8
v 11 2 8
v 11 6 8
v 13 2 8
v 13 6 8
v 15 2 8
v 15 6 8
v 17 2 8
v 17 6 8
v 19 2 8
v 19 6 8
v 20 2 8
v 20 6 8
v -20 0 -10
v -20 30 -10
v 20 0 -10
v 20 30 -10
v -20 0 10
v 20 0 10
v -20 0 7
v 20 0 7
v -20 0 -10
v 20 0 -10
v -20 6 10
v 20 6 10
v -19 6 9
v -17 6 9
v -15 6 9
v -13 6 9
v -11 6 9
v -9 6 9
v -7 6 9
v -5 6 9
v -3 6 9
v -1 6 9
v 1 6 9
v 3 6 9
v 5 6 9
v 7 6 9
v 9 6 9
v 11 6 9
v 13 6 9
v 15 6 9
v 17 6 9
v 19 6 9
v -20 6 8
v -19 6 8
v -17 6 8
v -15 6 8
v -13 6 8
v -11 6 8
v -9 6 8
v -7 6 8
v -5 6 8
v -3 6 8
v -1 6 8
v 1 6 8
v 3 6 8
v 5 6 8
v 7 6 8
v 9 6 8
v 11 6 8
v 13 6 8
v 15 6 8
v 17 6 8
v 19 6 8
v 20 6 8
v -15 9 10
v 15 9 10
v -15 9 9
v 15 9 9
v -10 17 9
v -1 17 9
v 1 17 9
v 10 17 9
v -10 17 8
v -1 17 8
v 1 17 8
v 10 17 8
v -12 25 10
v 12 25 10
v -12 25 9
v -10 25 9
v -1 25 9
v 1 25 9
v 10 25 9
v 12 25 9
v -10 25 8
v -1 25 8
v 1 25 8
v 10 25 8
v -20 28 10
v 20 28 10
v -20 28 9
v 20 28 9
v -20 2 10
v 20 2 10
v -19 2 9
v -17 2 9
v -15 2 9
v -13 2 9
v -11 2 9
v -9 2 9
v -7 2 9
v -5 2 9
v -3 2 9
v -1 2 9
v 1 2 9
v 3 2 9
v 5 2 9
v 7 2 9
v 9 2 9
v 11 2 9
v 13 2 9
v 15 2 9
v 17 2 9
v 19 2 9
v -20 2 8
v -19 2 8
v -17 2 8
v -15 2 8
v -13 2 8
v -11 2 8
v -9 2 8
v -7 2 8
v -5 2 8
v -3 2 8
v -1 2 8
v 1 2 8
v 3 2 8
v 5 2 8
v 7 2 8
v 9 2 8
v 11 2 8
v 13 2 8
v 15 2 8
v 17 2 8
v 19 2 8
v 20 2 8
v -20 8 10
v 20 8 10
v -20 8 9
v 20 8 9
v -12 11 10
v 12 11 10
v -12 11 9
v -10 11 9
v -1 11 9
v 1 11 9
v 10 11 9
v 12 11 9
v -10 11 8
v -9 11 8
v -2 11 8
v -1 11 8
v 1 11 8
v 2 11 8
v 9 11 8
v 10 11 8
v -10 19 9
v -2 19 9
v -1 19 9
v 1 19 9
v 2 19 9
v 10 19 9
v -10 19 8
v -9 19 8
v -2 19 8
v -1 19 8
v 1 19 8
v 2 19 8
v 9 19 8
v 10 19 8
v -15 27 10
v 15 27 10
v -15 27 9
v 15 27 9
v -20 30 10
v 20 30 10
v -20 30 7
v 20 30 7
v -20 30 -10
v 20 30 -10

# faces
f 4/7/1 2/7/1 1/7/1
f 5/7/1 2/7/1 4/7/1
f 6/6/1 5/6/1 4/6/1
f 7/7/1 2/7/1 5/7/1
f 7/6/1 5/6/1 6/6/1
f 8/10/1 3/10/1 2/10/1
f 8/7/1 2/7/1 7/7/1
f 10/5/1 8/5/1 7/5/1
f 11/5/1 10/5/1 9/5/1
f 12/10/1 3/10/1 8/10/1
f 12/5/1 10/5/1 11/5/1
f 12/5/1 8/5/1 10/5/1
f 13/4/1 12/4/1 11/4/1
f 14/4/1 12/4/1 13/4/1
f 15/10/1 3/10/1 12/10/1
f 15/4/1 12/4/1 14/4/1
f 17/3/1 15/3/1 14/3/1
f 18/10/1 3/10/1 15/10/1
f 18/3/1 15/3/1 17/3/1
f 19/7/1 17/7/1 16/7/1
f 19/7/1 18/7/1 17/7/1
f 20/10/1 3/10/1 18/10/1
f 20/7/1 18/7/1 19/7/1
f 21/6/1 20/6/1 19/6/1
f 22/10/1 3/10/1 20/10/1
f 22/6/1 20/6/1 21/6/1
f 23/10/1 3/10/1 22/10/1
f 26/4/1 25/4/1 24/4/1
f 27/4/1 25/4/1 26/4/1
f 30/4/1 29/4/1 28/4/1
f 31/4/1 29/4/1 30/4/1
f 34/7/1 33/7/1 32/7/1
f 35/7/1 33/7/1 34/7/1
f 36/6/1 35/6/1 34/6/1
f 37/6/1 35/6/1 36/6/1
f 38/8/1 37/8/1 36/8/1
f 39/8/1 37/8/1 38/8/1
f 40/9/1 39/9/1 38/9/1
f 41/9/1 39/9/1 40/9/1
f 42/7/1 41/7/1 40/7/1
f 43/7/1 41/7/1 42/7/1
f 44/6/1 43/6/1 42/6/1
f 45/6/1 43/6/1 44/6/1
f 48/4/1 47/4/1 46/4/1
f 49/4/1 47/4/1 48/4/1
f 52/4/1 51/4/1 50/4/1
f 53/4/1 51/4/1 52/4/1
f 56/4/1 55/4/1 54/4/1
f 57/4/1 55/4/1 56/4/1
f 60/6/1 59/6/1 58/6/1
f 61/6/1 59/6/1 60/6/1
f 64/6/1 63/6/1 62/6/1
f 65/6/1 63/6/1 64/6/1
f 66/7/1 65/7/1 64/7/1
f 67/7/1 65/7/1 66/7/1
f 70/4/1 69/4/1 68/4/1
f 71/4/1 69/4/1 70/4/1
f 74/4/1 73/4/1 72/4/1
f 75/4/1 73/4/1 74/4/1
f 78/4/1 77/4/1 76/4/1
f 79/4/1 77/4/1 78/4/1
f 82/8/1 81/8/1 80/8/1
f 83/8/1 81/8/1 82/8/1
f 86/8/1 85/8/1 84/8/1
f 87/8/1 85/8/1 86/8/1
f 88/9/1 87/9/1 86/9/1
f 89/9/1 87/9/1 88/9/1
f 92/8/1 91/8/1 90/8/1
f 93/8/1 91/8/1 92/8/1
f 94/9/1 93/9/1 92/9/1
f 95/9/1 93/9/1 94/9/1
f 98/4/1 97/4/1 96/4/1
f 99/4/1 97/4/1 98/4/1
f 102/4/1 101/4/1 100/4/1
f 103/4/1 101/4/1 102/4/1
f 104/4/2 105/4/2 106/4/2
f 106/4/2 105/4/2 107/4/2
f 108/4/2 109/4/2 110/4/2
f 110/4/2 109/4/2 111/4/2
f 112/8/2 113/8/2 114/8/2
f 114/8/2 113/8/2 115/8/2
f 114/9/2 115/9/2 116/9/2
f 116/9/2 115/9/2 117/9/2
f 118/8/2 119/8/2 120/8/2
f 120/8/2 119/8/2 121/8/2
f 122/8/2 123/8/2 124/8/2
f 124/8/2 123/8/2 125/8/2
f 124/9/2 125/9/2 126/9/2
f 126/9/2 125/9/2 127/9/2
f 128/4/2 129/4/2 130/4/2
f 130/4/2 129/4/2 131/4/2
f 132/4/2 133/4/2 134/4/2
f 134/4/2 133/4/2 135/4/2
f 136/4/2 137/4/2 138/4/2
f 138/4/2 137/4/2 139/4/2
f 140/6/2 141/6/2 142/6/2
f 142/6/2 141/6/2 143/6/2
f 144/6/2 145/6/2 146/6/2
f 146/6/2 145/6/2 147/6/2
f 146/7/2 147/7/2 148/7/2
f 148/7/2 147/7/2 149/7/2
f 150/4/2 151/4/2 152/4/2
f 152/4/2 151/4/2 153/4/2
f 154/4/2 155/4/2 156/4/2
f 156/4/2 155/4/2 157/4/2
f 158/4/2 159/4/2 160/4/2
f 160/4/2 159/4/2 161/4/2
f 162/4/2 163/4/2 164/4/2
f 164/4/2 163/4/2 165/4/2
f 166/7/2 167/7/2 168/7/2
f 168/7/2 167/7/2 169/7/2
f 168/6/2 169/6/2 170/6/2
f 170/6/2 169/6/2 171/6/2
f 170/8/2 171/8/2 172/8/2
f 172/8/2 171/8/2 173/8/2
f 172/9/2 173/9/2 174/9/2
f 174/9/2 173/9/2 175/9/2
f 174/7/2 175/7/2 176/7/2
f 176/7/2 175/7/2 177/7/2
f 176/6/2 177/6/2 178/6/2
f 178/6/2 177/6/2 179/6/2
f 180/4/2 181/4/2 182/4/2
f 182/4/2 181/4/2 183/4/2
f 184/7/2 185/7/2 187/7/2
f 187/7/2 185/7/2 188/7/2
f 187/6/2 188/6/2 189/6/2
f 188/7/2 185/7/2 190/7/2
f 189/6/2 188/6/2 190/6/2
f 185/10/2 186/10/2 191/10/2
f 190/7/2 185/7/2 191/7/2
f 190/5/2 191/5/2 193/5/2
f 192/5/2 193/5/2 194/5/2
f 191/10/2 186/10/2 195/10/2
f 194/5/2 193/5/2 195/5/2
f 193/5/2 191/5/2 195/5/2
f 194/4/2 195/4/2 196/4/2
f 196/4/2 195/4/2 197/4/2
f 195/10/2 186/10/2 198/10/2
f 197/4/2 195/4/2 198/4/2
f 197/3/2 198/3/2 200/3/2
f 198/10/2 186/10/2 201/10/2
f 200/3/2 198/3/2 201/3/2
f 199/7/2 200/7/2 202/7/2
f 200/7/2 201/7/2 202/7/2
f 201/10/2 186/10/2 203/10/2
f 202/7/2 201/7/2 203/7/2
f 202/6/2 203/6/2 204/6/2
f 203/10/2 186/10/2 205/10/2
f 204/6/2 203/6/2 205/6/2
f 205/10/2 186/10/2 206/10/2
f 223/6/3 218/6/3 217/6/3
f 223/8/3 219/8/3 218/8/3
f 224/9/3 220/9/3 219/9/3
f 224/8/3 219/8/3 223/8/3
f 225/7/3 221/7/3 220/7/3
f 225/9/3 220/9/3 224/9/3
f 226/6/3 223/6/3 217/6/3
f 228/7/3 221/7/3 225/7/3
f 229/7/3 217/7/3 216/7/3
f 230/6/3 226/6/3 217/6/3
f 230/7/3 217/7/3 229/7/3
f 231/8/3 227/8/3 226/8/3
f 231/6/3 226/6/3 230/6/3
f 232/9/3 228/9/3 227/9/3
f 232/8/3 227/8/3 231/8/3
f 233/7/3 221/7/3 228/7/3
f 233/9/3 228/9/3 232/9/3
f 234/6/3 222/6/3 221/6/3
f 234/7/3 221/7/3 233/7/3
f 235/6/3 222/6/3 234/6/3
f 236/7/3 208/7/3 207/7/3
f 237/6/3 209/6/3 208/6/3
f 237/7/3 208/7/3 236/7/3
f 238/6/3 209/6/3 237/6/3
f 239/5/3 211/5/3 210/5/3
f 240/4/3 212/4/3 211/4/3
f 240/5/3 211/5/3 239/5/3
f 241/4/3 212/4/3 240/4/3
f 242/7/3 214/7/3 213/7/3
f 243/6/3 215/6/3 214/6/3
f 243/7/3 214/7/3 242/7/3
f 244/6/3 215/6/3 243/6/3
f 249/4/3 248/4/3 247/4/3
f 250/4/3 248/4/3 249/4/3
f 253/3/3 246/3/3 245/3/3
f 254/3/3 246/3/3 253/3/3
f 255/3/3 246/3/3 254/3/3
f 256/3/3 246/3/3 255/3/3
f 257/3/3 246/3/3 256/3/3
f 258/3/3 246/3/3 257/3/3
f 259/3/3 246/3/3 258/3/3
f 260/4/3 252/4/3 251/4/3
f 261/4/3 252/4/3 260/4/3
f 267/8/3 263/8/3 262/8/3
f 268/8/3 263/8/3 267/8/3
f 269/8/3 263/8/3 268/8/3
f 270/8/3 263/8/3 269/8/3
f 271/9/3 264/9/3 263/9/3
f 271/8/3 263/8/3 270/8/3
f 272/9/3 264/9/3 271/9/3
f 273/4/3 266/4/3 265/4/3
f 274/4/3 266/4/3 273/4/3
f 277/4/3 276/4/3 275/4/3
f 278/4/3 276/4/3 277/4/3
f 281/6/3 270/6/3 269/6/3
f 281/7/3 269/7/3 268/7/3
f 282/6/3 270/6/3 281/6/3
f 283/4/3 280/4/3 279/4/3
f 284/4/3 280/4/3 283/4/3
f 286/7/3 281/7/3 268/7/3
f 286/7/3 282/7/3 281/7/3
f 287/7/3 282/7/3 286/7/3
f 292/6/3 287/6/3 286/6/3
f 292/6/3 286/6/3 285/6/3
f 292/6/3 288/6/3 287/6/3
f 293/6/3 288/6/3 292/6/3
f 294/6/3 288/6/3 293/6/3
f 295/7/3 289/7/3 288/7/3
f 295/6/3 288/6/3 294/6/3
f 296/7/3 289/7/3 295/7/3
f 297/7/3 294/7/3 293/7/3
f 298/7/3 294/7/3 297/7/3
f 299/4/3 291/4/3 290/4/3
f 300/4/3 291/4/3 299/4/3
f 303/4/3 302/4/3 301/4/3
f 304/4/3 302/4/3 303/4/3
f 308/7/3 297/7/3 293/7/3
f 309/6/3 298/6/3 297/6/3
f 309/7/3 297/7/3 308/7/3
f 310/6/3 298/6/3 309/6/3
f 313/4/3 306/4/3 305/4/3
f 314/4/3 306/4/3 313/4/3
f 315/8/3 310/8/3 309/8/3
f 315/8/3 308/8/3 307/8/3
f 315/8/3 311/8/3 310/8/3
f 315/8/3 309/8/3 308/8/3
f 316/9/3 312/9/3 311/9/3
f 316/8/3 311/8/3 315/8/3
f 317/9/3 312/9/3 316/9/3
f 320/4/3 319/4/3 318/4/3
f 321/4/3 319/4/3 320/4/3
f 322/3/3 253/3/3 245/3/3
f 328/3/3 246/3/3 259/3/3
f 331/4/3 330/4/3 329/4/3
f 332/4/3 330/4/3 331/4/3
f 333/3/3 327/3/3 326/3/3
f 333/3/3 328/3/3 327/3/3
f 333/3/3 326/3/3 325/3/3
f 333/3/3 325/3/3 324/3/3
f 333/3/3 323/3/3 322/3/3
f 333/3/3 322/3/3 245/3/3
f 333/3/3 324/3/3 323/3/3
f 334/3/3 246/3/3 328/3/3
f 334/3/3 328/3/3 333/3/3
f 337/5/3 336/5/3 335/5/3
f 338/5/3 336/5/3 337/5/3
f 341/5/3 340/5/3 339/5/3
f 342/5/3 340/5/3 341/5/3
f 345/5/3 344/5/3 343/5/3
f 346/5/3 344/5/3 345/5/3
f 354/2/3 348/2/3 347/2/3
f 355/2/3 348/2/3 354/2/3
f 356/2/3 350/2/3 349/2/3
f 356/2/3 351/2/3 350/2/3
f 357/2/3 351/2/3 356/2/3
f 358/5/3 353/5/3 352/5/3
f 359/5/3 353/5/3 358/5/3
f 362/5/3 361/5/3 360/5/3
f 363/5/3 361/5/3 362/5/3
f 364/1/3 355/1/3 354/1/3
f 365/2/3 348/2/3 355/2/3
f 365/1/3 355/1/3 364/1/3
f 366/1/3 357/1/3 356/1/3
f 367/2/3 351/2/3 357/2/3
f 367/1/3 357/1/3 366/1/3
f 370/2/3 365/2/3 364/2/3
f 371/2/3 348/2/3 365/2/3
f 371/2/3 365/2/3 370/2/3
f 372/2/3 367/2/3 366/2/3
f 373/2/3 351/2/3 367/2/3
f 373/2/3 367/2/3 372/2/3
f 374/2/3 351/2/3 373/2/3
f 375/5/3 369/5/3 368/5/3
f 376/5/3 369/5/3 375/5/3
f 382/2/3 378/2/3 377/2/3
f 383/2/3 378/2/3 382/2/3
f 384/2/3 381/2/3 380/2/3
f 384/2/3 380/2/3 379/2/3
f 385/2/3 381/2/3 384/2/3
f 388/5/3 387/5/3 386/5/3
f 389/5/3 387/5/3 388/5/3
f 392/5/3 391/5/3 390/5/3
f 393/5/3 391/5/3 392/5/3
f 394/1/3 383/1/3 382/1/3
f 395/2/3 378/2/3 383/2/3
f 395/1/3 383/1/3 394/1/3
f 396/1/3 385/1/3 384/1/3
f 397/2/3 381/2/3 385/2/3
f 397/1/3 385/1/3 396/1/3
f 398/2/3 395/2/3 394/2/3
f 399/2/3 378/2/3 395/2/3
f 399/2/3 395/2/3 398/2/3
f 400/2/3 397/2/3 396/2/3
f 401/2/3 381/2/3 397/2/3
f 401/2/3 397/2/3 400/2/3
f 402/2/3 381/2/3 401/2/3
f 405/5/3 404/5/3 403/5/3
f 406/5/3 404/5/3 405/5/3
f 409/5/3 408/5/3 407/5/3
f 410/5/3 408/5/3 409/5/3
f 413/5/3 412/5/3 411/5/3
f 414/5/3 412/5/3 413/5/3
f 415/10/4 416/10/4 417/10/4
f 417/10/4 416/10/4 418/10/4
f 421/7/5 420/7/5 419/7/5
f 422/7/5 420/7/5 421/7/5
f 423/10/5 422/10/5 421/10/5
f 424/10/5 422/10/5 423/10/5
f 427/5/5 426/5/5 425/5/5
f 428/5/5 426/5/5 427/5/5
f 429/5/5 426/5/5 428/5/5
f 430/5/5 426/5/5 429/5/5
f 431/5/5 426/5/5 430/5/5
f 432/5/5 426/5/5 431/5/5
f 433/5/5 426/5/5 432/5/5
f 434/5/5 426/5/5 433/5/5
f 435/5/5 426/5/5 434/5/5
f 436/5/5 426/5/5 435/5/5
f 437/5/5 426/5/5 436/5/5
f 438/5/5 426/5/5 437/5/5
f 439/5/5 426/5/5 438/5/5
f 440/5/5 426/5/5 439/5/5
f 441/5/5 426/5/5 440/5/5
f 442/5/5 426/5/5 441/5/5
f 443/5/5 426/5/5 442/5/5
f 444/5/5 426/5/5 443/5/5
f 445/5/5 426/5/5 444/5/5
f 446/5/5 426/5/5 445/5/5
f 447/5/5 427/5/5 425/5/5
f 448/5/5 427/5/5 447/5/5
f 449/5/5 429/5/5 428/5/5
f 450/5/5 429/5/5 449/5/5
f 451/5/5 431/5/5 430/5/5
f 452/5/5 431/5/5 451/5/5
f 453/5/5 433/5/5 432/5/5
f 454/5/5 433/5/5 453/5/5
f 455/5/5 435/5/5 434/5/5
f 456/5/5 435/5/5 455/5/5
f 457/5/5 437/5/5 436/5/5
f 458/5/5 437/5/5 457/5/5
f 459/5/5 439/5/5 438/5/5
f 460/5/5 439/5/5 459/5/5
f 461/5/5 441/5/5 440/5/5
f 462/5/5 441/5/5 461/5/5
f 463/5/5 443/5/5 442/5/5
f 464/5/5 443/5/5 463/5/5
f 465/5/5 445/5/5 444/5/5
f 466/5/5 445/5/5 465/5/5
f 467/5/5 426/5/5 446/5/5
f 468/5/5 426/5/5 467/5/5
f 471/7/5 470/7/5 469/7/5
f 472/7/5 470/7/5 471/7/5
f 477/7/5 474/7/5 473/7/5
f 478/7/5 474/7/5 477/7/5
f 479/7/5 476/7/5 475/7/5
f 480/7/5 476/7/5 479/7/5
f 483/7/5 482/7/5 481/7/5
f 484/7/5 482/7/5 483/7/5
f 485/7/5 482/7/5 484/7/5
f 486/7/5 482/7/5 485/7/5
f 487/7/5 482/7/5 486/7/5
f 488/7/5 482/7/5 487/7/5
f 489/7/5 485/7/5 484/7/5
f 490/7/5 485/7/5 489/7/5
f 491/7/5 487/7/5 486/7/5
f 492/7/5 487/7/5 491/7/5
f 495/7/5 494/7/5 493/7/5
f 496/7/5 494/7/5 495/7/5
f 497/6/6 498/6/6 499/6/6
f 499/6/6 498/6/6 500/6/6
f 500/6/6 498/6/6 501/6/6
f 501/6/6 498/6/6 502/6/6
f 502/6/6 498/6/6 503/6/6
f 503/6/6 498/6/6 504/6/6
f 504/6/6 498/6/6 505/6/6
f 505/6/6 498/6/6 506/6/6
f 506/6/6 498/6/6 507/6/6
f 507/6/6 498/6/6 508/6/6
f 508/6/6 498/6/6 509/6/6
f 509/6/6 498/6/6 510/6/6
f 510/6/6 498/6/6 511/6/6
f 511/6/6 498/6/6 512/6/6
f 512/6/6 498/6/6 513/6/6
f 513/6/6 498/6/6 514/6/6
f 514/6/6 498/6/6 515/6/6
f 515/6/6 498/6/6 516/6/6
f 516/6/6 498/6/6 517/6/6
f 517/6/6 498/6/6 518/6/6
f 497/6/6 499/6/6 519/6/6
f 519/6/6 499/6/6 520/6/6
f 500/6/6 501/6/6 521/6/6
f 521/6/6 501/6/6 522/6/6
f 502/6/6 503/6/6 523/6/6
f 523/6/6 503/6/6 524/6/6
f 504/6/6 505/6/6 525/6/6
f 525/6/6 505/6/6 526/6/6
f 506/6/6 507/6/6 527/6/6
f 527/6/6 507/6/6 528/6/6
f 508/6/6 509/6/6 529/6/6
f 529/6/6 509/6/6 530/6/6
f 510/6/6 511/6/6 531/6/6
f 531/6/6 511/6/6 532/6/6
f 512/6/6 513/6/6 533/6/6
f 533/6/6 513/6/6 534/6/6
f 514/6/6 515/6/6 535/6/6
f 535/6/6 515/6/6 536/6/6
f 516/6/6 517/6/6 537/6/6
f 537/6/6 517/6/6 538/6/6
f 518/6/6 498/6/6 539/6/6
f 539/6/6 498/6/6 540/6/6
f 541/4/6 542/4/6 543/4/6
f 543/4/6 542/4/6 544/4/6
f 545/6/6 546/6/6 547/6/6
f 547/6/6 546/6/6 548/6/6
f 548/6/6 546/6/6 549/6/6
f 549/6/6 546/6/6 550/6/6
f 550/6/6 546/6/6 551/6/6
f 551/6/6 546/6/6 552/6/6
f 548/6/6 549/6/6 553/6/6
f 553/6/6 549/6/6 554/6/6
f 554/6/6 549/6/6 555/6/6
f 555/6/6 549/6/6 556/6/6
f 550/6/6 551/6/6 557/6/6
f 557/6/6 551/6/6 558/6/6
f 558/6/6 551/6/6 559/6/6
f 559/6/6 551/6/6 560/6/6
f 561/6/6 562/6/6 567/6/6
f 567/6/6 562/6/6 568/6/6
f 562/7/6 563/7/6 569/7/6
f 568/6/6 562/6/6 569/6/6
f 569/7/6 563/7/6 570/7/6
f 564/7/6 565/7/6 571/7/6
f 565/6/6 566/6/6 572/6/6
f 571/7/6 565/7/6 572/7/6
f 572/6/6 566/6/6 573/6/6
f 573/6/6 566/6/6 574/6/6
f 575/6/6 576/6/6 577/6/6
f 577/6/6 576/6/6 578/6/6
f 579/6/6 580/6/6 581/6/6
f 581/6/6 580/6/6 582/6/6
f 581/10/6 582/10/6 583/10/6
f 583/10/6 582/10/6 584/10/6
