# MagicaVoxel @ Ephtracy

# group
g wall_edge

# material
mtllib wall_edge.mtl
usemtl palette

# normals
vn -1 0 0
vn 1 0 0
vn 0 0 1
vn 0 0 -1
vn 0 -1 0
vn 0 1 0

# texcoords
vt 0.130859 0.5
vt 0.138672 0.5
vt 0.509766 0.5
vt 0.994141 0.5

# verts
v -10 0 10
v -10 0 -10
v -10 30 10
v -10 30 -10
v 9 8 10
v 9 8 9
v 9 28 10
v 9 28 9
v 10 0 10
v 10 0 7
v 10 0 -10
v 10 8 10
v 10 8 9
v 10 8 7
v 10 28 10
v 10 28 9
v 10 28 7
v 10 30 10
v 10 30 7
v 10 30 -10
v -10 0 10
v -10 30 10
v 7 0 10
v 7 8 10
v 7 28 10
v 7 30 10
v 9 8 10
v 9 28 10
v 10 0 10
v 10 8 10
v 10 28 10
v 10 30 10
v 9 8 9
v 9 28 9
v 10 8 9
v 10 28 9
v -10 0 -10
v -10 30 -10
v 10 0 -10
v 10 30 -10
v -10 0 10
v 7 0 10
v 10 0 10
v 7 0 7
v 9 0 7
v 10 0 7
v 7 0 6
v 9 0 6
v -10 0 -10
v 10 0 -10
v 9 28 10
v 10 28 10
v 9 28 9
v 10 28 9
v 9 8 10
v 10 8 10
v 9 8 9
v 10 8 9
v -10 30 10
v 7 30 10
v 10 30 10
v 7 30 7
v 10 30 7
v -10 30 -10
v 10 30 -10

# faces
f 3/4/1 2/4/1 1/4/1
f 4/4/1 2/4/1 3/4/1
f 5/1/2 6/1/2 7/1/2
f 7/1/2 6/1/2 8/1/2
f 9/2/2 10/2/2 12/2/2
f 12/2/2 10/2/2 13/2/2
f 10/4/2 11/4/2 14/4/2
f 13/2/2 10/2/2 14/2/2
f 13/1/2 14/1/2 16/1/2
f 14/4/2 11/4/2 17/4/2
f 16/1/2 14/1/2 17/1/2
f 15/3/2 16/3/2 18/3/2
f 16/3/2 17/3/2 18/3/2
f 17/4/2 11/4/2 19/4/2
f 18/3/2 17/3/2 19/3/2
f 19/4/2 11/4/2 20/4/2
f 23/4/3 22/4/3 21/4/3
f 24/4/3 22/4/3 23/4/3
f 25/4/3 22/4/3 24/4/3
f 26/4/3 22/4/3 25/4/3
f 27/2/3 24/2/3 23/2/3
f 27/1/3 25/1/3 24/1/3
f 28/3/3 26/3/3 25/3/3
f 28/1/3 25/1/3 27/1/3
f 29/2/3 27/2/3 23/2/3
f 30/2/3 27/2/3 29/2/3
f 31/3/3 26/3/3 28/3/3
f 32/3/3 26/3/3 31/3/3
f 35/1/3 34/1/3 33/1/3
f 36/1/3 34/1/3 35/1/3
f 37/4/4 38/4/4 39/4/4
f 39/4/4 38/4/4 40/4/4
f 44/4/5 42/4/5 41/4/5
f 44/2/5 43/2/5 42/2/5
f 45/2/5 43/2/5 44/2/5
f 46/2/5 43/2/5 45/2/5
f 47/4/5 44/4/5 41/4/5
f 47/3/5 45/3/5 44/3/5
f 48/4/5 46/4/5 45/4/5
f 48/3/5 45/3/5 47/3/5
f 49/4/5 47/4/5 41/4/5
f 49/4/5 48/4/5 47/4/5
f 50/4/5 46/4/5 48/4/5
f 50/4/5 48/4/5 49/4/5
f 53/3/5 52/3/5 51/3/5
f 54/3/5 52/3/5 53/3/5
f 55/2/6 56/2/6 57/2/6
f 57/2/6 56/2/6 58/2/6
f 59/4/6 60/4/6 62/4/6
f 60/3/6 61/3/6 62/3/6
f 62/3/6 61/3/6 63/3/6
f 59/4/6 62/4/6 64/4/6
f 62/4/6 63/4/6 64/4/6
f 64/4/6 63/4/6 65/4/6
