# MagicaVoxel @ Ephtracy

# group
g wall

# material
mtllib wall.mtl
usemtl palette

# normals
vn -1 0 0
vn 1 0 0
vn 0 0 1
vn 0 0 -1
vn 0 -1 0
vn 0 1 0

# texcoords
vt 0.130859 0.5
vt 0.138672 0.5
vt 0.142578 0.5
vt 0.509766 0.5
vt 0.513672 0.5
vt 0.994141 0.5

# verts
v -10 0 10
v -10 0 7
v -10 0 -10
v -10 1 10
v -10 1 8
v -10 2 10
v -10 2 8
v -10 2 7
v -10 6 10
v -10 6 8
v -10 7 10
v -10 7 7
v -10 8 10
v -10 8 9
v -10 8 7
v -10 28 10
v -10 28 9
v -10 28 7
v -10 29 10
v -10 29 7
v -10 30 10
v -10 30 7
v -10 30 -10
v -9 2 9
v -9 2 8
v -9 6 9
v -9 6 8
v -5 2 9
v -5 2 8
v -5 6 9
v -5 6 8
v -1 2 9
v -1 2 8
v -1 6 9
v -1 6 8
v 3 2 9
v 3 2 8
v 3 6 9
v 3 6 8
v 7 2 9
v 7 2 8
v 7 6 9
v 7 6 8
v -7 2 9
v -7 2 8
v -7 6 9
v -7 6 8
v -3 2 9
v -3 2 8
v -3 6 9
v -3 6 8
v 1 2 9
v 1 2 8
v 1 6 9
v 1 6 8
v 5 2 9
v 5 2 8
v 5 6 9
v 5 6 8
v 9 2 9
v 9 2 8
v 9 6 9
v 9 6 8
v 10 0 10
v 10 0 7
v 10 0 -10
v 10 1 10
v 10 1 8
v 10 2 10
v 10 2 8
v 10 2 7
v 10 6 10
v 10 6 8
v 10 7 10
v 10 7 7
v 10 8 10
v 10 8 9
v 10 8 7
v 10 28 10
v 10 28 9
v 10 28 7
v 10 29 10
v 10 29 7
v 10 30 10
v 10 30 7
v 10 30 -10
v -10 0 10
v -10 1 10
v -10 2 10
v -10 6 10
v -10 7 10
v -10 8 10
v -10 28 10
v -10 29 10
v -10 30 10
v 10 0 10
v 10 1 10
v 10 2 10
v 10 6 10
v 10 7 10
v 10 8 10
v 10 28 10
v 10 29 10
v 10 30 10
v -10 8 9
v -10 28 9
v -9 2 9
v -9 6 9
v -7 2 9
v -7 6 9
v -5 2 9
v -5 6 9
v -3 2 9
v -3 6 9
v -1 2 9
v -1 6 9
v 1 2 9
v 1 6 9
v 3 2 9
v 3 6 9
v 5 2 9
v 5 6 9
v 7 2 9
v 7 6 9
v 9 2 9
v 9 6 9
v 10 8 9
v 10 28 9
v -10 2 8
v -10 6 8
v -9 2 8
v -9 6 8
v -7 2 8
v -7 6 8
v -5 2 8
v -5 6 8
v -3 2 8
v -3 6 8
v -1 2 8
v -1 6 8
v 1 2 8
v 1 6 8
v 3 2 8
v 3 6 8
v 5 2 8
v 5 6 8
v 7 2 8
v 7 6 8
v 9 2 8
v 9 6 8
v 10 2 8
v 10 6 8
v -10 0 -10
v -10 30 -10
v 10 0 -10
v 10 30 -10
v -10 0 10
v 10 0 10
v -10 0 7
v 10 0 7
v -10 0 -10
v 10 0 -10
v -10 6 10
v 10 6 10
v -9 6 9
v -7 6 9
v -5 6 9
v -3 6 9
v -1 6 9
v 1 6 9
v 3 6 9
v 5 6 9
v 7 6 9
v 9 6 9
v -10 6 8
v -9 6 8
v -7 6 8
v -5 6 8
v -3 6 8
v -1 6 8
v 1 6 8
v 3 6 8
v 5 6 8
v 7 6 8
v 9 6 8
v 10 6 8
v -10 28 10
v 10 28 10
v -10 28 9
v 10 28 9
v -10 2 10
v 10 2 10
v -9 2 9
v -7 2 9
v -5 2 9
v -3 2 9
v -1 2 9
v 1 2 9
v 3 2 9
v 5 2 9
v 7 2 9
v 9 2 9
v -10 2 8
v -9 2 8
v -7 2 8
v -5 2 8
v -3 2 8
v -1 2 8
v 1 2 8
v 3 2 8
v 5 2 8
v 7 2 8
v 9 2 8
v 10 2 8
v -10 8 10
v 10 8 10
v -10 8 9
v 10 8 9
v -10 30 10
v 10 30 10
v -10 30 7
v 10 30 7
v -10 30 -10
v 10 30 -10

# faces
f 4/5/1 2/5/1 1/5/1
f 5/5/1 2/5/1 4/5/1
f 6/4/1 5/4/1 4/4/1
f 7/5/1 2/5/1 5/5/1
f 7/4/1 5/4/1 6/4/1
f 8/6/1 3/6/1 2/6/1
f 8/5/1 2/5/1 7/5/1
f 10/3/1 8/3/1 7/3/1
f 11/3/1 10/3/1 9/3/1
f 12/6/1 3/6/1 8/6/1
f 12/3/1 10/3/1 11/3/1
f 12/3/1 8/3/1 10/3/1
f 13/2/1 12/2/1 11/2/1
f 14/2/1 12/2/1 13/2/1
f 15/6/1 3/6/1 12/6/1
f 15/2/1 12/2/1 14/2/1
f 17/1/1 15/1/1 14/1/1
f 18/6/1 3/6/1 15/6/1
f 18/1/1 15/1/1 17/1/1
f 19/5/1 17/5/1 16/5/1
f 19/5/1 18/5/1 17/5/1
f 20/6/1 3/6/1 18/6/1
f 20/5/1 18/5/1 19/5/1
f 21/4/1 20/4/1 19/4/1
f 22/6/1 3/6/1 20/6/1
f 22/4/1 20/4/1 21/4/1
f 23/6/1 3/6/1 22/6/1
f 26/2/1 25/2/1 24/2/1
f 27/2/1 25/2/1 26/2/1
f 30/2/1 29/2/1 28/2/1
f 31/2/1 29/2/1 30/2/1
f 34/2/1 33/2/1 32/2/1
f 35/2/1 33/2/1 34/2/1
f 38/2/1 37/2/1 36/2/1
f 39/2/1 37/2/1 38/2/1
f 42/2/1 41/2/1 40/2/1
f 43/2/1 41/2/1 42/2/1
f 44/2/2 45/2/2 46/2/2
f 46/2/2 45/2/2 47/2/2
f 48/2/2 49/2/2 50/2/2
f 50/2/2 49/2/2 51/2/2
f 52/2/2 53/2/2 54/2/2
f 54/2/2 53/2/2 55/2/2
f 56/2/2 57/2/2 58/2/2
f 58/2/2 57/2/2 59/2/2
f 60/2/2 61/2/2 62/2/2
f 62/2/2 61/2/2 63/2/2
f 64/5/2 65/5/2 67/5/2
f 67/5/2 65/5/2 68/5/2
f 67/4/2 68/4/2 69/4/2
f 68/5/2 65/5/2 70/5/2
f 69/4/2 68/4/2 70/4/2
f 65/6/2 66/6/2 71/6/2
f 70/5/2 65/5/2 71/5/2
f 70/3/2 71/3/2 73/3/2
f 72/3/2 73/3/2 74/3/2
f 71/6/2 66/6/2 75/6/2
f 74/3/2 73/3/2 75/3/2
f 73/3/2 71/3/2 75/3/2
f 74/2/2 75/2/2 76/2/2
f 76/2/2 75/2/2 77/2/2
f 75/6/2 66/6/2 78/6/2
f 77/2/2 75/2/2 78/2/2
f 77/1/2 78/1/2 80/1/2
f 78/6/2 66/6/2 81/6/2
f 80/1/2 78/1/2 81/1/2
f 79/5/2 80/5/2 82/5/2
f 80/5/2 81/5/2 82/5/2
f 81/6/2 66/6/2 83/6/2
f 82/5/2 81/5/2 83/5/2
f 82/4/2 83/4/2 84/4/2
f 83/6/2 66/6/2 85/6/2
f 84/4/2 83/4/2 85/4/2
f 85/6/2 66/6/2 86/6/2
f 96/5/3 88/5/3 87/5/3
f 97/4/3 89/4/3 88/4/3
f 97/5/3 88/5/3 96/5/3
f 98/4/3 89/4/3 97/4/3
f 99/3/3 91/3/3 90/3/3
f 100/2/3 92/2/3 91/2/3
f 100/3/3 91/3/3 99/3/3
f 101/2/3 92/2/3 100/2/3
f 102/5/3 94/5/3 93/5/3
f 103/4/3 95/4/3 94/4/3
f 103/5/3 94/5/3 102/5/3
f 104/4/3 95/4/3 103/4/3
f 109/2/3 108/2/3 107/2/3
f 110/2/3 108/2/3 109/2/3
f 113/2/3 112/2/3 111/2/3
f 114/2/3 112/2/3 113/2/3
f 117/2/3 116/2/3 115/2/3
f 118/2/3 116/2/3 117/2/3
f 121/2/3 120/2/3 119/2/3
f 122/2/3 120/2/3 121/2/3
f 125/2/3 124/2/3 123/2/3
f 126/2/3 124/2/3 125/2/3
f 127/1/3 106/1/3 105/1/3
f 128/1/3 106/1/3 127/1/3
f 131/3/3 130/3/3 129/3/3
f 132/3/3 130/3/3 131/3/3
f 135/3/3 134/3/3 133/3/3
f 136/3/3 134/3/3 135/3/3
f 139/3/3 138/3/3 137/3/3
f 140/3/3 138/3/3 139/3/3
f 143/3/3 142/3/3 141/3/3
f 144/3/3 142/3/3 143/3/3
f 147/3/3 146/3/3 145/3/3
f 148/3/3 146/3/3 147/3/3
f 151/3/3 150/3/3 149/3/3
f 152/3/3 150/3/3 151/3/3
f 153/6/4 154/6/4 155/6/4
f 155/6/4 154/6/4 156/6/4
f 159/5/5 158/5/5 157/5/5
f 160/5/5 158/5/5 159/5/5
f 161/6/5 160/6/5 159/6/5
f 162/6/5 160/6/5 161/6/5
f 165/3/5 164/3/5 163/3/5
f 166/3/5 164/3/5 165/3/5
f 167/3/5 164/3/5 166/3/5
f 168/3/5 164/3/5 167/3/5
f 169/3/5 164/3/5 168/3/5
f 170/3/5 164/3/5 169/3/5
f 171/3/5 164/3/5 170/3/5
f 172/3/5 164/3/5 171/3/5
f 173/3/5 164/3/5 172/3/5
f 174/3/5 164/3/5 173/3/5
f 175/3/5 165/3/5 163/3/5
f 176/3/5 165/3/5 175/3/5
f 177/3/5 167/3/5 166/3/5
f 178/3/5 167/3/5 177/3/5
f 179/3/5 169/3/5 168/3/5
f 180/3/5 169/3/5 179/3/5
f 181/3/5 171/3/5 170/3/5
f 182/3/5 171/3/5 181/3/5
f 183/3/5 173/3/5 172/3/5
f 184/3/5 173/3/5 183/3/5
f 185/3/5 164/3/5 174/3/5
f 186/3/5 164/3/5 185/3/5
f 189/5/5 188/5/5 187/5/5
f 190/5/5 188/5/5 189/5/5
f 191/4/6 192/4/6 193/4/6
f 193/4/6 192/4/6 194/4/6
f 194/4/6 192/4/6 195/4/6
f 195/4/6 192/4/6 196/4/6
f 196/4/6 192/4/6 197/4/6
f 197/4/6 192/4/6 198/4/6
f 198/4/6 192/4/6 199/4/6
f 199/4/6 192/4/6 200/4/6
f 200/4/6 192/4/6 201/4/6
f 201/4/6 192/4/6 202/4/6
f 191/4/6 193/4/6 203/4/6
f 203/4/6 193/4/6 204/4/6
f 194/4/6 195/4/6 205/4/6
f 205/4/6 195/4/6 206/4/6
f 196/4/6 197/4/6 207/4/6
f 207/4/6 197/4/6 208/4/6
f 198/4/6 199/4/6 209/4/6
f 209/4/6 199/4/6 210/4/6
f 200/4/6 201/4/6 211/4/6
f 211/4/6 201/4/6 212/4/6
f 202/4/6 192/4/6 213/4/6
f 213/4/6 192/4/6 214/4/6
f 215/2/6 216/2/6 217/2/6
f 217/2/6 216/2/6 218/2/6
f 219/4/6 220/4/6 221/4/6
f 221/4/6 220/4/6 222/4/6
f 221/6/6 222/6/6 223/6/6
f 223/6/6 222/6/6 224/6/6
