# MagicaVoxel @ Ephtracy

# group
g Wall_1block

# material
mtllib Wall_1block.mtl
usemtl palette

# normals
vn -1 0 0
vn 1 0 0
vn 0 0 1
vn 0 0 -1
vn 0 -1 0
vn 0 1 0

# texcoords
vt 0.130859 0.5
vt 0.138672 0.5
vt 0.142578 0.5
vt 0.509766 0.5
vt 0.513672 0.5
vt 0.994141 0.5

# verts
v -10 0 10
v -10 0 -10
v -10 1 10
v -10 1 -10
v -10 2 10
v -10 2 -10
v -10 6 10
v -10 6 -10
v -10 7 10
v -10 7 -10
v -10 8 10
v -10 8 -10
v -10 28 10
v -10 28 -10
v -10 29 10
v -10 29 -10
v -10 30 10
v -10 30 -10
v -9 2 9
v -9 2 7
v -9 2 5
v -9 2 3
v -9 2 1
v -9 2 -1
v -9 2 -3
v -9 2 -5
v -9 2 -7
v -9 2 -9
v -9 6 9
v -9 6 7
v -9 6 5
v -9 6 3
v -9 6 1
v -9 6 -1
v -9 6 -3
v -9 6 -5
v -9 6 -7
v -9 6 -9
v -9 8 9
v -9 8 -9
v -9 28 9
v -9 28 -9
v -8 2 7
v -8 2 5
v -8 2 3
v -8 2 1
v -8 2 -1
v -8 2 -3
v -8 2 -5
v -8 2 -7
v -8 6 7
v -8 6 5
v -8 6 3
v -8 6 1
v -8 6 -1
v -8 6 -3
v -8 6 -5
v -8 6 -7
v -5 2 9
v -5 2 8
v -5 2 -8
v -5 2 -9
v -5 6 9
v -5 6 8
v -5 6 -8
v -5 6 -9
v -1 2 9
v -1 2 8
v -1 2 -8
v -1 2 -9
v -1 6 9
v -1 6 8
v -1 6 -8
v -1 6 -9
v 3 2 9
v 3 2 8
v 3 2 -8
v 3 2 -9
v 3 6 9
v 3 6 8
v 3 6 -8
v 3 6 -9
v 7 2 9
v 7 2 8
v 7 2 -8
v 7 2 -9
v 7 6 9
v 7 6 8
v 7 6 -8
v 7 6 -9
v -7 2 9
v -7 2 8
v -7 2 -8
v -7 2 -9
v -7 6 9
v -7 6 8
v -7 6 -8
v -7 6 -9
v -3 2 9
v -3 2 8
v -3 2 -8
v -3 2 -9
v -3 6 9
v -3 6 8
v -3 6 -8
v -3 6 -9
v 1 2 9
v 1 2 8
v 1 2 -8
v 1 2 -9
v 1 6 9
v 1 6 8
v 1 6 -8
v 1 6 -9
v 5 2 9
v 5 2 8
v 5 2 -8
v 5 2 -9
v 5 6 9
v 5 6 8
v 5 6 -8
v 5 6 -9
v 8 2 7
v 8 2 5
v 8 2 3
v 8 2 1
v 8 2 -1
v 8 2 -3
v 8 2 -5
v 8 2 -7
v 8 6 7
v 8 6 5
v 8 6 3
v 8 6 1
v 8 6 -1
v 8 6 -3
v 8 6 -5
v 8 6 -7
v 9 2 9
v 9 2 7
v 9 2 5
v 9 2 3
v 9 2 1
v 9 2 -1
v 9 2 -3
v 9 2 -5
v 9 2 -7
v 9 2 -9
v 9 6 9
v 9 6 7
v 9 6 5
v 9 6 3
v 9 6 1
v 9 6 -1
v 9 6 -3
v 9 6 -5
v 9 6 -7
v 9 6 -9
v 9 8 9
v 9 8 -9
v 9 28 9
v 9 28 -9
v 10 0 10
v 10 0 -10
v 10 1 10
v 10 1 -10
v 10 2 10
v 10 2 -10
v 10 6 10
v 10 6 -10
v 10 7 10
v 10 7 -10
v 10 8 10
v 10 8 -10
v 10 28 10
v 10 28 -10
v 10 29 10
v 10 29 -10
v 10 30 10
v 10 30 -10
v -10 0 10
v -10 1 10
v -10 2 10
v -10 6 10
v -10 7 10
v -10 8 10
v -10 28 10
v -10 29 10
v -10 30 10
v 10 0 10
v 10 1 10
v 10 2 10
v 10 6 10
v 10 7 10
v 10 8 10
v 10 28 10
v 10 29 10
v 10 30 10
v -9 2 9
v -9 6 9
v -9 8 9
v -9 28 9
v -7 2 9
v -7 6 9
v -5 2 9
v -5 6 9
v -3 2 9
v -3 6 9
v -1 2 9
v -1 6 9
v 1 2 9
v 1 6 9
v 3 2 9
v 3 6 9
v 5 2 9
v 5 6 9
v 7 2 9
v 7 6 9
v 9 2 9
v 9 6 9
v 9 8 9
v 9 28 9
v -7 2 8
v -7 6 8
v -5 2 8
v -5 6 8
v -3 2 8
v -3 6 8
v -1 2 8
v -1 6 8
v 1 2 8
v 1 6 8
v 3 2 8
v 3 6 8
v 5 2 8
v 5 6 8
v 7 2 8
v 7 6 8
v -9 2 5
v -9 6 5
v -8 2 5
v -8 6 5
v 8 2 5
v 8 6 5
v 9 2 5
v 9 6 5
v -9 2 1
v -9 6 1
v -8 2 1
v -8 6 1
v 8 2 1
v 8 6 1
v 9 2 1
v 9 6 1
v -9 2 -3
v -9 6 -3
v -8 2 -3
v -8 6 -3
v 8 2 -3
v 8 6 -3
v 9 2 -3
v 9 6 -3
v -9 2 -7
v -9 6 -7
v -8 2 -7
v -8 6 -7
v 8 2 -7
v 8 6 -7
v 9 2 -7
v 9 6 -7
v -9 2 7
v -9 6 7
v -8 2 7
v -8 6 7
v 8 2 7
v 8 6 7
v 9 2 7
v 9 6 7
v -9 2 3
v -9 6 3
v -8 2 3
v -8 6 3
v 8 2 3
v 8 6 3
v 9 2 3
v 9 6 3
v -9 2 -1
v -9 6 -1
v -8 2 -1
v -8 6 -1
v 8 2 -1
v 8 6 -1
v 9 2 -1
v 9 6 -1
v -9 2 -5
v -9 6 -5
v -8 2 -5
v -8 6 -5
v 8 2 -5
v 8 6 -5
v 9 2 -5
v 9 6 -5
v -7 2 -8
v -7 6 -8
v -5 2 -8
v -5 6 -8
v -3 2 -8
v -3 6 -8
v -1 2 -8
v -1 6 -8
v 1 2 -8
v 1 6 -8
v 3 2 -8
v 3 6 -8
v 5 2 -8
v 5 6 -8
v 7 2 -8
v 7 6 -8
v -9 2 -9
v -9 6 -9
v -9 8 -9
v -9 28 -9
v -7 2 -9
v -7 6 -9
v -5 2 -9
v -5 6 -9
v -3 2 -9
v -3 6 -9
v -1 2 -9
v -1 6 -9
v 1 2 -9
v 1 6 -9
v 3 2 -9
v 3 6 -9
v 5 2 -9
v 5 6 -9
v 7 2 -9
v 7 6 -9
v 9 2 -9
v 9 6 -9
v 9 8 -9
v 9 28 -9
v -10 0 -10
v -10 1 -10
v -10 2 -10
v -10 6 -10
v -10 7 -10
v -10 8 -10
v -10 28 -10
v -10 29 -10
v -10 30 -10
v 10 0 -10
v 10 1 -10
v 10 2 -10
v 10 6 -10
v 10 7 -10
v 10 8 -10
v 10 28 -10
v 10 29 -10
v 10 30 -10
v -10 0 10
v 10 0 10
v -7 0 7
v 7 0 7
v -7 0 -7
v 7 0 -7
v -10 0 -10
v 10 0 -10
v -10 6 10
v 10 6 10
v -9 6 9
v -7 6 9
v -5 6 9
v -3 6 9
v -1 6 9
v 1 6 9
v 3 6 9
v 5 6 9
v 7 6 9
v 9 6 9
v -7 6 8
v -5 6 8
v -3 6 8
v -1 6 8
v 1 6 8
v 3 6 8
v 5 6 8
v 7 6 8
v -9 6 7
v -8 6 7
v 8 6 7
v 9 6 7
v -9 6 5
v -8 6 5
v 8 6 5
v 9 6 5
v -9 6 3
v -8 6 3
v 8 6 3
v 9 6 3
v -9 6 1
v -8 6 1
v 8 6 1
v 9 6 1
v -9 6 -1
v -8 6 -1
v 8 6 -1
v 9 6 -1
v -9 6 -3
v -8 6 -3
v 8 6 -3
v 9 6 -3
v -9 6 -5
v -8 6 -5
v 8 6 -5
v 9 6 -5
v -9 6 -7
v -8 6 -7
v 8 6 -7
v 9 6 -7
v -7 6 -8
v -5 6 -8
v -3 6 -8
v -1 6 -8
v 1 6 -8
v 3 6 -8
v 5 6 -8
v 7 6 -8
v -9 6 -9
v -7 6 -9
v -5 6 -9
v -3 6 -9
v -1 6 -9
v 1 6 -9
v 3 6 -9
v 5 6 -9
v 7 6 -9
v 9 6 -9
v -10 6 -10
v 10 6 -10
v -10 28 10
v 10 28 10
v -9 28 9
v 9 28 9
v -9 28 -9
v 9 28 -9
v -10 28 -10
v 10 28 -10
v -10 2 10
v 10 2 10
v -9 2 9
v -7 2 9
v -5 2 9
v -3 2 9
v -1 2 9
v 1 2 9
v 3 2 9
v 5 2 9
v 7 2 9
v 9 2 9
v -7 2 8
v -5 2 8
v -3 2 8
v -1 2 8
v 1 2 8
v 3 2 8
v 5 2 8
v 7 2 8
v -9 2 7
v -8 2 7
v 8 2 7
v 9 2 7
v -9 2 5
v -8 2 5
v 8 2 5
v 9 2 5
v -9 2 3
v -8 2 3
v 8 2 3
v 9 2 3
v -9 2 1
v -8 2 1
v 8 2 1
v 9 2 1
v -9 2 -1
v -8 2 -1
v 8 2 -1
v 9 2 -1
v -9 2 -3
v -8 2 -3
v 8 2 -3
v 9 2 -3
v -9 2 -5
v -8 2 -5
v 8 2 -5
v 9 2 -5
v -9 2 -7
v -8 2 -7
v 8 2 -7
v 9 2 -7
v -7 2 -8
v -5 2 -8
v -3 2 -8
v -1 2 -8
v 1 2 -8
v 3 2 -8
v 5 2 -8
v 7 2 -8
v -9 2 -9
v -7 2 -9
v -5 2 -9
v -3 2 -9
v -1 2 -9
v 1 2 -9
v 3 2 -9
v 5 2 -9
v 7 2 -9
v 9 2 -9
v -10 2 -10
v 10 2 -10
v -10 8 10
v 10 8 10
v -9 8 9
v 9 8 9
v -9 8 -9
v 9 8 -9
v -10 8 -10
v 10 8 -10
v -10 30 10
v 10 30 10
v -7 30 7
v 7 30 7
v -7 30 -7
v 7 30 -7
v -10 30 -10
v 10 30 -10

# faces
f 3/5/1 2/5/1 1/5/1
f 4/5/1 2/5/1 3/5/1
f 5/4/1 4/4/1 3/4/1
f 6/4/1 4/4/1 5/4/1
f 9/3/1 8/3/1 7/3/1
f 10/3/1 8/3/1 9/3/1
f 11/2/1 10/2/1 9/2/1
f 12/2/1 10/2/1 11/2/1
f 15/5/1 14/5/1 13/5/1
f 16/5/1 14/5/1 15/5/1
f 17/4/1 16/4/1 15/4/1
f 18/4/1 16/4/1 17/4/1
f 29/2/1 20/2/1 19/2/1
f 30/2/1 20/2/1 29/2/1
f 31/2/1 22/2/1 21/2/1
f 32/2/1 22/2/1 31/2/1
f 33/2/1 24/2/1 23/2/1
f 34/2/1 24/2/1 33/2/1
f 35/2/1 26/2/1 25/2/1
f 36/2/1 26/2/1 35/2/1
f 37/2/1 28/2/1 27/2/1
f 38/2/1 28/2/1 37/2/1
f 41/1/1 40/1/1 39/1/1
f 42/1/1 40/1/1 41/1/1
f 51/3/1 44/3/1 43/3/1
f 52/3/1 44/3/1 51/3/1
f 53/3/1 46/3/1 45/3/1
f 54/3/1 46/3/1 53/3/1
f 55/3/1 48/3/1 47/3/1
f 56/3/1 48/3/1 55/3/1
f 57/3/1 50/3/1 49/3/1
f 58/3/1 50/3/1 57/3/1
f 63/2/1 60/2/1 59/2/1
f 64/2/1 60/2/1 63/2/1
f 65/2/1 62/2/1 61/2/1
f 66/2/1 62/2/1 65/2/1
f 71/2/1 68/2/1 67/2/1
f 72/2/1 68/2/1 71/2/1
f 73/2/1 70/2/1 69/2/1
f 74/2/1 70/2/1 73/2/1
f 79/2/1 76/2/1 75/2/1
f 80/2/1 76/2/1 79/2/1
f 81/2/1 78/2/1 77/2/1
f 82/2/1 78/2/1 81/2/1
f 87/2/1 84/2/1 83/2/1
f 88/2/1 84/2/1 87/2/1
f 89/2/1 86/2/1 85/2/1
f 90/2/1 86/2/1 89/2/1
f 91/2/2 92/2/2 95/2/2
f 95/2/2 92/2/2 96/2/2
f 93/2/2 94/2/2 97/2/2
f 97/2/2 94/2/2 98/2/2
f 99/2/2 100/2/2 103/2/2
f 103/2/2 100/2/2 104/2/2
f 101/2/2 102/2/2 105/2/2
f 105/2/2 102/2/2 106/2/2
f 107/2/2 108/2/2 111/2/2
f 111/2/2 108/2/2 112/2/2
f 109/2/2 110/2/2 113/2/2
f 113/2/2 110/2/2 114/2/2
f 115/2/2 116/2/2 119/2/2
f 119/2/2 116/2/2 120/2/2
f 117/2/2 118/2/2 121/2/2
f 121/2/2 118/2/2 122/2/2
f 123/3/2 124/3/2 131/3/2
f 131/3/2 124/3/2 132/3/2
f 125/3/2 126/3/2 133/3/2
f 133/3/2 126/3/2 134/3/2
f 127/3/2 128/3/2 135/3/2
f 135/3/2 128/3/2 136/3/2
f 129/3/2 130/3/2 137/3/2
f 137/3/2 130/3/2 138/3/2
f 139/2/2 140/2/2 149/2/2
f 149/2/2 140/2/2 150/2/2
f 141/2/2 142/2/2 151/2/2
f 151/2/2 142/2/2 152/2/2
f 143/2/2 144/2/2 153/2/2
f 153/2/2 144/2/2 154/2/2
f 145/2/2 146/2/2 155/2/2
f 155/2/2 146/2/2 156/2/2
f 147/2/2 148/2/2 157/2/2
f 157/2/2 148/2/2 158/2/2
f 159/1/2 160/1/2 161/1/2
f 161/1/2 160/1/2 162/1/2
f 163/5/2 164/5/2 165/5/2
f 165/5/2 164/5/2 166/5/2
f 165/4/2 166/4/2 167/4/2
f 167/4/2 166/4/2 168/4/2
f 169/3/2 170/3/2 171/3/2
f 171/3/2 170/3/2 172/3/2
f 171/2/2 172/2/2 173/2/2
f 173/2/2 172/2/2 174/2/2
f 175/5/2 176/5/2 177/5/2
f 177/5/2 176/5/2 178/5/2
f 177/4/2 178/4/2 179/4/2
f 179/4/2 178/4/2 180/4/2
f 190/5/3 182/5/3 181/5/3
f 191/4/3 183/4/3 182/4/3
f 191/5/3 182/5/3 190/5/3
f 192/4/3 183/4/3 191/4/3
f 193/3/3 185/3/3 184/3/3
f 194/2/3 186/2/3 185/2/3
f 194/3/3 185/3/3 193/3/3
f 195/2/3 186/2/3 194/2/3
f 196/5/3 188/5/3 187/5/3
f 197/4/3 189/4/3 188/4/3
f 197/5/3 188/5/3 196/5/3
f 198/4/3 189/4/3 197/4/3
f 203/2/3 200/2/3 199/2/3
f 204/2/3 200/2/3 203/2/3
f 207/2/3 206/2/3 205/2/3
f 208/2/3 206/2/3 207/2/3
f 211/2/3 210/2/3 209/2/3
f 212/2/3 210/2/3 211/2/3
f 215/2/3 214/2/3 213/2/3
f 216/2/3 214/2/3 215/2/3
f 219/2/3 218/2/3 217/2/3
f 220/2/3 218/2/3 219/2/3
f 221/1/3 202/1/3 201/1/3
f 222/1/3 202/1/3 221/1/3
f 225/3/3 224/3/3 223/3/3
f 226/3/3 224/3/3 225/3/3
f 229/3/3 228/3/3 227/3/3
f 230/3/3 228/3/3 229/3/3
f 233/3/3 232/3/3 231/3/3
f 234/3/3 232/3/3 233/3/3
f 237/3/3 236/3/3 235/3/3
f 238/3/3 236/3/3 237/3/3
f 241/2/3 240/2/3 239/2/3
f 242/2/3 240/2/3 241/2/3
f 245/2/3 244/2/3 243/2/3
f 246/2/3 244/2/3 245/2/3
f 249/2/3 248/2/3 247/2/3
f 250/2/3 248/2/3 249/2/3
f 253/2/3 252/2/3 251/2/3
f 254/2/3 252/2/3 253/2/3
f 257/2/3 256/2/3 255/2/3
f 258/2/3 256/2/3 257/2/3
f 261/2/3 260/2/3 259/2/3
f 262/2/3 260/2/3 261/2/3
f 265/2/3 264/2/3 263/2/3
f 266/2/3 264/2/3 265/2/3
f 269/2/3 268/2/3 267/2/3
f 270/2/3 268/2/3 269/2/3
f 271/2/4 272/2/4 273/2/4
f 273/2/4 272/2/4 274/2/4
f 275/2/4 276/2/4 277/2/4
f 277/2/4 276/2/4 278/2/4
f 279/2/4 280/2/4 281/2/4
f 281/2/4 280/2/4 282/2/4
f 283/2/4 284/2/4 285/2/4
f 285/2/4 284/2/4 286/2/4
f 287/2/4 288/2/4 289/2/4
f 289/2/4 288/2/4 290/2/4
f 291/2/4 292/2/4 293/2/4
f 293/2/4 292/2/4 294/2/4
f 295/2/4 296/2/4 297/2/4
f 297/2/4 296/2/4 298/2/4
f 299/2/4 300/2/4 301/2/4
f 301/2/4 300/2/4 302/2/4
f 303/3/4 304/3/4 305/3/4
f 305/3/4 304/3/4 306/3/4
f 307/3/4 308/3/4 309/3/4
f 309/3/4 308/3/4 310/3/4
f 311/3/4 312/3/4 313/3/4
f 313/3/4 312/3/4 314/3/4
f 315/3/4 316/3/4 317/3/4
f 317/3/4 316/3/4 318/3/4
f 319/2/4 320/2/4 323/2/4
f 323/2/4 320/2/4 324/2/4
f 325/2/4 326/2/4 327/2/4
f 327/2/4 326/2/4 328/2/4
f 329/2/4 330/2/4 331/2/4
f 331/2/4 330/2/4 332/2/4
f 333/2/4 334/2/4 335/2/4
f 335/2/4 334/2/4 336/2/4
f 337/2/4 338/2/4 339/2/4
f 339/2/4 338/2/4 340/2/4
f 321/1/4 322/1/4 341/1/4
f 341/1/4 322/1/4 342/1/4
f 343/5/4 344/5/4 352/5/4
f 344/4/4 345/4/4 353/4/4
f 352/5/4 344/5/4 353/5/4
f 353/4/4 345/4/4 354/4/4
f 346/3/4 347/3/4 355/3/4
f 347/2/4 348/2/4 356/2/4
f 355/3/4 347/3/4 356/3/4
f 356/2/4 348/2/4 357/2/4
f 349/5/4 350/5/4 358/5/4
f 350/4/4 351/4/4 359/4/4
f 358/5/4 350/5/4 359/5/4
f 359/4/4 351/4/4 360/4/4
f 363/5/5 362/5/5 361/5/5
f 364/5/5 362/5/5 363/5/5
f 365/5/5 363/5/5 361/5/5
f 365/6/5 364/6/5 363/6/5
f 366/5/5 362/5/5 364/5/5
f 366/6/5 364/6/5 365/6/5
f 367/5/5 365/5/5 361/5/5
f 367/5/5 366/5/5 365/5/5
f 368/5/5 362/5/5 366/5/5
f 368/5/5 366/5/5 367/5/5
f 371/3/5 370/3/5 369/3/5
f 372/3/5 370/3/5 371/3/5
f 373/3/5 370/3/5 372/3/5
f 374/3/5 370/3/5 373/3/5
f 375/3/5 370/3/5 374/3/5
f 376/3/5 370/3/5 375/3/5
f 377/3/5 370/3/5 376/3/5
f 378/3/5 370/3/5 377/3/5
f 379/3/5 370/3/5 378/3/5
f 380/3/5 370/3/5 379/3/5
f 381/3/5 373/3/5 372/3/5
f 382/3/5 373/3/5 381/3/5
f 383/3/5 375/3/5 374/3/5
f 384/3/5 375/3/5 383/3/5
f 385/3/5 377/3/5 376/3/5
f 386/3/5 377/3/5 385/3/5
f 387/3/5 379/3/5 378/3/5
f 388/3/5 379/3/5 387/3/5
f 389/3/5 371/3/5 369/3/5
f 392/3/5 370/3/5 380/3/5
f 393/6/5 390/6/5 389/6/5
f 393/3/5 389/3/5 369/3/5
f 394/6/5 390/6/5 393/6/5
f 395/6/5 392/6/5 391/6/5
f 396/3/5 370/3/5 392/3/5
f 396/6/5 392/6/5 395/6/5
f 397/3/5 393/3/5 369/3/5
f 400/3/5 370/3/5 396/3/5
f 401/6/5 398/6/5 397/6/5
f 401/3/5 397/3/5 369/3/5
f 402/6/5 398/6/5 401/6/5
f 403/6/5 400/6/5 399/6/5
f 404/3/5 370/3/5 400/3/5
f 404/6/5 400/6/5 403/6/5
f 405/3/5 401/3/5 369/3/5
f 408/3/5 370/3/5 404/3/5
f 409/6/5 406/6/5 405/6/5
f 409/3/5 405/3/5 369/3/5
f 410/6/5 406/6/5 409/6/5
f 411/6/5 408/6/5 407/6/5
f 412/3/5 370/3/5 408/3/5
f 412/6/5 408/6/5 411/6/5
f 413/3/5 409/3/5 369/3/5
f 416/3/5 370/3/5 412/3/5
f 417/6/5 414/6/5 413/6/5
f 417/3/5 413/3/5 369/3/5
f 418/6/5 414/6/5 417/6/5
f 419/6/5 416/6/5 415/6/5
f 420/3/5 370/3/5 416/3/5
f 420/6/5 416/6/5 419/6/5
f 429/3/5 417/3/5 369/3/5
f 430/3/5 422/3/5 421/3/5
f 431/3/5 422/3/5 430/3/5
f 432/3/5 424/3/5 423/3/5
f 433/3/5 424/3/5 432/3/5
f 434/3/5 426/3/5 425/3/5
f 435/3/5 426/3/5 434/3/5
f 436/3/5 428/3/5 427/3/5
f 437/3/5 428/3/5 436/3/5
f 438/3/5 370/3/5 420/3/5
f 439/3/5 437/3/5 436/3/5
f 439/3/5 438/3/5 437/3/5
f 439/3/5 435/3/5 434/3/5
f 439/3/5 429/3/5 369/3/5
f 439/3/5 436/3/5 435/3/5
f 439/3/5 431/3/5 430/3/5
f 439/3/5 434/3/5 433/3/5
f 439/3/5 433/3/5 432/3/5
f 439/3/5 432/3/5 431/3/5
f 439/3/5 430/3/5 429/3/5
f 440/3/5 370/3/5 438/3/5
f 440/3/5 438/3/5 439/3/5
f 443/5/5 442/5/5 441/5/5
f 444/5/5 442/5/5 443/5/5
f 445/5/5 443/5/5 441/5/5
f 446/5/5 442/5/5 444/5/5
f 447/5/5 445/5/5 441/5/5
f 447/5/5 446/5/5 445/5/5
f 448/5/5 442/5/5 446/5/5
f 448/5/5 446/5/5 447/5/5
f 449/4/6 450/4/6 451/4/6
f 451/4/6 450/4/6 452/4/6
f 452/4/6 450/4/6 453/4/6
f 453/4/6 450/4/6 454/4/6
f 454/4/6 450/4/6 455/4/6
f 455/4/6 450/4/6 456/4/6
f 456/4/6 450/4/6 457/4/6
f 457/4/6 450/4/6 458/4/6
f 458/4/6 450/4/6 459/4/6
f 459/4/6 450/4/6 460/4/6
f 452/4/6 453/4/6 461/4/6
f 461/4/6 453/4/6 462/4/6
f 454/4/6 455/4/6 463/4/6
f 463/4/6 455/4/6 464/4/6
f 456/4/6 457/4/6 465/4/6
f 465/4/6 457/4/6 466/4/6
f 458/4/6 459/4/6 467/4/6
f 467/4/6 459/4/6 468/4/6
f 449/4/6 451/4/6 469/4/6
f 460/4/6 450/4/6 472/4/6
f 469/6/6 470/6/6 473/6/6
f 449/4/6 469/4/6 473/4/6
f 473/6/6 470/6/6 474/6/6
f 471/6/6 472/6/6 475/6/6
f 472/4/6 450/4/6 476/4/6
f 475/6/6 472/6/6 476/6/6
f 449/4/6 473/4/6 477/4/6
f 476/4/6 450/4/6 480/4/6
f 477/6/6 478/6/6 481/6/6
f 449/4/6 477/4/6 481/4/6
f 481/6/6 478/6/6 482/6/6
f 479/6/6 480/6/6 483/6/6
f 480/4/6 450/4/6 484/4/6
f 483/6/6 480/6/6 484/6/6
f 449/4/6 481/4/6 485/4/6
f 484/4/6 450/4/6 488/4/6
f 485/6/6 486/6/6 489/6/6
f 449/4/6 485/4/6 489/4/6
f 489/6/6 486/6/6 490/6/6
f 487/6/6 488/6/6 491/6/6
f 488/4/6 450/4/6 492/4/6
f 491/6/6 488/6/6 492/6/6
f 449/4/6 489/4/6 493/4/6
f 492/4/6 450/4/6 496/4/6
f 493/6/6 494/6/6 497/6/6
f 449/4/6 493/4/6 497/4/6
f 497/6/6 494/6/6 498/6/6
f 495/6/6 496/6/6 499/6/6
f 496/4/6 450/4/6 500/4/6
f 499/6/6 496/6/6 500/6/6
f 449/4/6 497/4/6 509/4/6
f 501/4/6 502/4/6 510/4/6
f 510/4/6 502/4/6 511/4/6
f 503/4/6 504/4/6 512/4/6
f 512/4/6 504/4/6 513/4/6
f 505/4/6 506/4/6 514/4/6
f 514/4/6 506/4/6 515/4/6
f 507/4/6 508/4/6 516/4/6
f 516/4/6 508/4/6 517/4/6
f 500/4/6 450/4/6 518/4/6
f 516/4/6 517/4/6 519/4/6
f 517/4/6 518/4/6 519/4/6
f 514/4/6 515/4/6 519/4/6
f 449/4/6 509/4/6 519/4/6
f 515/4/6 516/4/6 519/4/6
f 510/4/6 511/4/6 519/4/6
f 513/4/6 514/4/6 519/4/6
f 512/4/6 513/4/6 519/4/6
f 511/4/6 512/4/6 519/4/6
f 509/4/6 510/4/6 519/4/6
f 518/4/6 450/4/6 520/4/6
f 519/4/6 518/4/6 520/4/6
f 521/2/6 522/2/6 523/2/6
f 523/2/6 522/2/6 524/2/6
f 521/2/6 523/2/6 525/2/6
f 524/2/6 522/2/6 526/2/6
f 521/2/6 525/2/6 527/2/6
f 525/2/6 526/2/6 527/2/6
f 526/2/6 522/2/6 528/2/6
f 527/2/6 526/2/6 528/2/6
f 529/4/6 530/4/6 531/4/6
f 531/4/6 530/4/6 532/4/6
f 529/4/6 531/4/6 533/4/6
f 531/6/6 532/6/6 533/6/6
f 532/4/6 530/4/6 534/4/6
f 533/6/6 532/6/6 534/6/6
f 529/4/6 533/4/6 535/4/6
f 533/4/6 534/4/6 535/4/6
f 534/4/6 530/4/6 536/4/6
f 535/4/6 534/4/6 536/4/6
